<?xml version="1.0" encoding="UTF-8" standalone="no"?>
<svg
   xmlns:dc="http://purl.org/dc/elements/1.1/"
   xmlns:cc="http://creativecommons.org/ns#"
   xmlns:rdf="http://www.w3.org/1999/02/22-rdf-syntax-ns#"
   xmlns:svg="http://www.w3.org/2000/svg"
   xmlns="http://www.w3.org/2000/svg"
   xmlns:sodipodi="http://sodipodi.sourceforge.net/DTD/sodipodi-0.dtd"
   xmlns:inkscape="http://www.inkscape.org/namespaces/inkscape"
   width="150"
   height="216"
   viewBox="0 0 39.687497 57.149966"
   version="1.1"
   id="svg863"
   inkscape:version="1.0.2-2 (e86c870879, 2021-01-15)"
   sodipodi:docname="tmslogo2.svg">
  <defs
     id="defs857">
    <rect
       x="36.844532"
       y="-43.142742"
       width="4.4087474"
       height="8.5025843"
       id="rect1002" />
    <rect
       x="149.89742"
       y="150.73717"
       width="197.76381"
       height="188.73637"
       id="rect862" />
  </defs>
  <sodipodi:namedview
     id="base"
     pagecolor="#ffffff"
     bordercolor="#666666"
     borderopacity="1.0"
     inkscape:pageopacity="0.0"
     inkscape:pageshadow="2"
     inkscape:zoom="2.5205572"
     inkscape:cx="66.18974"
     inkscape:cy="7.4990138"
     inkscape:document-units="mm"
     inkscape:current-layer="layer1"
     inkscape:document-rotation="0"
     showgrid="false"
     inkscape:pagecheckerboard="false"
     width="213.677mm"
     units="px"
     inkscape:window-width="3840"
     inkscape:window-height="2072"
     inkscape:window-x="-5"
     inkscape:window-y="-5"
     inkscape:window-maximized="1" />
  <metadata
     id="metadata860">
    <rdf:RDF>
      <cc:Work
         rdf:about="">
        <dc:format>image/svg+xml</dc:format>
        <dc:type
           rdf:resource="http://purl.org/dc/dcmitype/StillImage" />
        <dc:title></dc:title>
      </cc:Work>
    </rdf:RDF>
  </metadata>
  <g
     inkscape:label="Layer 1"
     inkscape:groupmode="layer"
     id="layer1">
    <path
       d="m 30.394396,0.09942408 c -0.0539,0.10617 -0.0666,0.14579 -0.0761,0.25355 -0.01,0.10935 -0.006,0.13629 0.0174,0.17273 0.0238,0.0365 0.0254,0.0523 0.01,0.12044 -0.0111,0.0444 -0.019,0.10459 -0.019,0.13312 0,0.0285 -0.005,0.0634 -0.01,0.0777 -0.0174,0.0444 -0.038,0.0269 -0.038,-0.0333 0,-0.0364 -0.0206,-0.0935 -0.0555,-0.15847 -0.0317,-0.0539 -0.0586,-0.0998 -0.0618,-0.0998 -0.003,0 0.019,0.0808 0.0475,0.17749 0.0618,0.20443 0.0634,0.23295 0.0285,0.33596002 l -0.0253,0.0745 -0.0476,-0.0444 c -0.0269,-0.0238 -0.0681,-0.0745 -0.0935,-0.10934002 -0.0571,-0.084 -0.23454,-0.18542 -0.31536,-0.18225 -0.29793,0.0111 -0.28525,0.01 -0.3835,0.0872 -0.0507,0.0412 -0.0919,0.084 -0.0919,0.0983 0,0.0127 -0.0206,0.0269 -0.0475,0.0317 -0.14579,0.0301 -0.14896,0.32487 -0.003,0.39301 l 0.0555,0.0269 -0.0364,0.038 c -0.0333,0.0349 -0.038,0.0365 -0.0555,0.0127 -0.0111,-0.0143 -0.0269,-0.0206 -0.0349,-0.0159 -0.01,0.006 -0.0206,0 -0.0269,-0.0127 -0.0143,-0.038 -0.0349,-0.0285 -0.0777,0.038 -0.0555,0.084 -0.046,0.19967 0.0222,0.26465 0.0428,0.0412 0.046,0.0507 0.046,0.1759 v 0.12995 l -0.0444,-0.008 c -0.0364,-0.008 -0.0476,-0.002 -0.0634,0.0333 -0.0254,0.0539 -0.0238,0.0555 0.0111,0.0555 0.0159,0 0.038,0.01 0.0475,0.0222 0.0143,0.0174 -0.002,0.046 -0.0792,0.13787 -0.0523,0.065 -0.10301,0.12361 -0.10935,0.13154 -0.0206,0.0206 -0.0951,-0.0333 -0.0951,-0.0697 0,-0.0333 -0.0571,-0.0491 -0.0967,-0.0254 -0.019,0.0111 -0.0444,0.002 -0.0983,-0.038 -0.0602,-0.0428 -0.0824,-0.0507 -0.12361,-0.0412 -0.046,0.01 -0.0602,0.002 -0.12044,-0.0571 -0.038,-0.0365 -0.0681,-0.0824 -0.0681,-0.0998 0,-0.019 -0.008,-0.0412 -0.019,-0.0523 -0.0159,-0.0158 -0.0111,-0.0253 0.0174,-0.0459 l 0.038,-0.0254 -0.0618,-0.0507 -0.0602,-0.0507 0.0824,-0.10142 c 0.0935,-0.1141 0.17749,-0.30744 0.18858,-0.4358 l 0.008,-0.0824 -0.0887,-0.0333 c -0.16323,-0.0602 -0.21077,-0.065 -0.38826,-0.0396 -0.16481,0.0254 -0.16639,0.0254 -0.29317,0.12202 -0.0713,0.0523 -0.15689,0.12044 -0.19017,0.15055 -0.0364,0.0333 -0.065,0.0491 -0.0697,0.038 -0.003,-0.01 0.006,-0.0729 0.019,-0.13945 0.0159,-0.0745 0.0254,-0.19809 0.0254,-0.3217 -0.002,-0.19334016 -0.003,-0.20601016 -0.0681,-0.39459016 -0.0523,-0.15055 -0.0856,-0.21553 -0.1458,-0.29476 -0.0444,-0.0571 -0.084,-0.10301 -0.0887,-0.10301 -0.005,-0.002 -0.0396,0.0206 -0.0776,0.0475 -0.0555,0.0396 -0.0808,0.0792 -0.15214,0.2282 -0.0713,0.15372 -0.0887,0.2076 -0.11568,0.37875 -0.0317,0.18700016 -0.0317,0.20601016 -0.008,0.32804016 0.019,0.103 0.0206,0.13945 0.005,0.1759 -0.01,0.0238 -0.0238,0.0491 -0.0317,0.0539 -0.008,0.005 -0.16323,-0.0777 -0.34389,-0.18383 -0.31219,-0.17907 -0.33596,-0.19016 -0.41678,-0.19016 -0.0475,0 -0.11093,0.006 -0.14104,0.0143 -0.0301,0.008 -0.0887,0.019 -0.12836,0.0253 l -0.0729,0.01 0.0602,0.19175 c 0.0808,0.25514 0.22186,0.51504 0.34072,0.62597 0.0792,0.0745 0.0998,0.084 0.21393,0.10934 0.13629,0.0301 0.17432,0.0586 0.16006,0.1252 -0.005,0.0301 -0.0349,0.0555 -0.11727,0.0998 l -0.10935,0.0586 -0.11251,0.21076 -0.11093,0.21077 -0.0365,-0.0333 -0.0365,-0.0349 -0.0111,0.0349 c -0.008,0.0238 -0.002,0.0444 0.0222,0.0697 0.019,0.019 0.0333,0.0475 0.0333,0.0602 0,0.0396 -0.0444,0.0761 -0.0951,0.0761 -0.0254,0 -0.0507,0.008 -0.0555,0.0158 -0.006,0.0111 0.0127,0.0127 0.0555,0.006 l 0.065,-0.0111 -0.01,0.0555 -0.0111,0.057 0.10618,0.0174 c 0.0571,0.0111 0.12995,0.0143 0.16164,0.008 l 0.0555,-0.0111 -0.0111,0.0539 c -0.006,0.0301 -0.0365,0.103 -0.0666,0.16322 -0.0301,0.0586 -0.0523,0.11093 -0.0491,0.11252 0.003,0.003 0.0269,-0.0111 0.0539,-0.0317 0.0285,-0.0222 0.0761,-0.0935 0.11568,-0.17431 0.0634,-0.13154 0.0856,-0.15531 0.10142,-0.11569 0.006,0.0159 0.01,0.0143 0.01,-0.002 0.002,-0.0174 0.006,-0.0174 0.0285,0 0.0238,0.0206 0.0238,0.0158 0.0159,-0.0491 -0.01,-0.0681 -0.006,-0.0745 0.0586,-0.14579 l 0.0681,-0.0745 0.0111,0.11093 c 0.005,0.0602 0.0111,0.11886 0.0143,0.12995 0.002,0.0111 -0.01,0.0174 -0.0238,0.0143 -0.0238,-0.003 -0.0269,0.005 -0.019,0.0412 0.0111,0.0539 -0.0111,0.0745 -0.0555,0.0523 -0.0444,-0.0254 -0.18225,0.0238 -0.16798,0.0602 0.006,0.0143 0.0143,0.0444 0.019,0.0697 0.005,0.0238 0.0301,0.0586 0.0539,0.0761 0.0475,0.0333 0.0602,0.0618 0.0269,0.0618 -0.0349,0 -0.12677,0.084 -0.14738,0.13311 -0.0158,0.038 -0.0174,0.0697 -0.006,0.11886 0.0206,0.0935 -0.006,0.14738 -0.0856,0.16639 -0.0586,0.0159 -0.0618,0.0143 -0.13153,-0.0666 -0.0666,-0.0761 -0.0729,-0.0919 -0.0745,-0.16957 -0.003,-0.0792 -0.01,-0.0919 -0.0729,-0.15689 l -0.0697,-0.0713 0.0412,-0.01 c 0.0713,-0.019 0.0745,-0.12519 0.005,-0.11568 -0.0254,0.003 -0.0333,0.0143 -0.0301,0.0491 0.002,0.0349 -0.003,0.0428 -0.0365,0.0428 -0.0206,0 -0.0681,-0.0238 -0.10617,-0.0523 -0.0364,-0.0285 -0.11094,-0.065 -0.16482,-0.0808 -0.0887,-0.0269 -0.0998,-0.0349 -0.10934,-0.0792 -0.0143,-0.0745 -0.11886,-0.2282 -0.16798,-0.2488 -0.0808,-0.0333 -0.27099,0.019 -0.38667,0.10618 -0.0602,0.0459 -0.0697,0.0475 -0.0697,0.005 0,-0.0222 -0.008,-0.0301 -0.0222,-0.0254 -0.0158,0.006 -0.0238,-0.0127 -0.0317,-0.0697 -0.006,-0.0428 -0.0143,-0.0776 -0.019,-0.0776 -0.005,0 -0.0238,0.0158 -0.0412,0.0349 l -0.0301,0.0365 0.008,-0.0539 c 0.01,-0.0539 0.01,-0.0539 -0.0222,-0.0254 -0.0317,0.0301 -0.038,0.0222 -0.0333,-0.0396 0,-0.0127 -0.006,-0.0349 -0.0143,-0.0475 -0.0143,-0.0206 -0.0206,-0.019 -0.046,0.0111 -0.0396,0.0475 -0.0491,0.0459 -0.0491,-0.0127 0,-0.0349 -0.006,-0.0444 -0.019,-0.0349 -0.0111,0.006 -0.0333,0.01 -0.0475,0.008 -0.019,-0.003 -0.0301,0.01 -0.038,0.0396 -0.006,0.0238 -0.0143,0.0507 -0.0174,0.057 -0.0127,0.0222 -0.0571,-0.0254 -0.0872,-0.0951 -0.0159,-0.0364 -0.0475,-0.0808 -0.0697,-0.0982 l -0.0412,-0.0317 0.0428,-0.0555 c 0.0349,-0.046 0.129939,-0.12995 0.358139,-0.3217 0.0206,-0.0174 0.0365,-0.0143 0.0951,0.0143 0.16322,0.0808 0.41519,0.0412 0.51662,-0.0824 0.0285,-0.0333 0.0523,-0.065 0.0523,-0.0681 0,-0.005 -0.038,-0.0174 -0.0824,-0.0269 -0.11252,-0.0269 -0.11252,-0.0269 -0.0745,-0.0761 l 0.0317,-0.0428 -0.0396,-0.01 c -0.0903,-0.0254 -0.30902,0.0586 -0.39776,0.14897 -0.0349,0.0365 -0.12995,0.12361 -0.21236,0.19333 -0.0808,0.0697 -0.18541,0.16798 -0.231359,0.21869 l -0.084,0.0919 -0.0967,-0.0396 c -0.0523,-0.0222 -0.10618,-0.0412 -0.11886,-0.0412 -0.0396,0 -0.0143,-0.0365 0.0602,-0.0872 0.0776,-0.0523 0.0856,-0.0697 0.0143,-0.0349 -0.0238,0.0127 -0.0602,0.0285 -0.0792,0.0333 l -0.0365,0.0111 v -0.23613 c 0,-0.23453 0,-0.2377 0.0396,-0.26306 0.0349,-0.0222 0.0681,-0.10618 0.11251,-0.27099 0.008,-0.0317 0.008,-0.0317 -0.0158,-0.002 -0.0238,0.0301 -0.0254,0.0301 -0.0349,0 -0.0317,-0.0983 -0.0761,-0.19968 -0.0808,-0.18541 -0.003,0.01 -0.019,0.0143 -0.0333,0.01 -0.0174,-0.003 -0.0364,0.01 -0.0539,0.038 -0.0174,0.0269 -0.0285,0.0349 -0.0301,0.0206 0,-0.0127 -0.0111,-0.003 -0.0222,0.0238 -0.0222,0.0475 -0.0222,0.046 -0.0238,-0.0475 -0.002,-0.0586 -0.0127,-0.11569 -0.0301,-0.14738 l -0.0269,-0.0523 -0.0571,0.0808 -0.057,0.0808 -0.0475,-0.0412 c -0.0254,-0.0222 -0.0507,-0.0396 -0.0539,-0.0396 -0.005,0 -0.0159,0.0285 -0.0269,0.065 -0.0159,0.0507 -0.0254,0.0618 -0.046,0.0539 -0.0697,-0.0301 -0.0982,-0.0285 -0.0982,0.006 0,0.0222 -0.006,0.0317 -0.0174,0.0238 -0.0111,-0.006 -0.0428,-0.0127 -0.0713,-0.0159 l -0.0507,-0.003 0.008,0.0872 0.01,0.0872 -0.0539,-0.0285 c -0.065,-0.0333 -0.16164,-0.0412 -0.15055,-0.0111 0.0111,0.0254 -0.009,0.0269 -0.0349,0.002 -0.0349,-0.0349 -0.019,0.006 0.046,0.12044 0.0523,0.0919 0.084,0.12677 0.17273,0.18699 0.0745,0.0523 0.123609,0.0761 0.160059,0.0761 0.0365,0 0.0697,0.0174 0.11727,0.0586 0.0365,0.0333 0.0903,0.0792 0.12044,0.10143 0.0618,0.0491 0.0539,0.0745 -0.0127,0.0412 -0.0238,-0.0127 -0.10142,-0.0269 -0.17115,-0.0317 -0.14738,-0.01 -0.12836,0.002 0.10618,0.0618 0.15847,0.0396 0.1759,0.0491 0.24246,0.11568 0.0396,0.0396 0.065,0.0761 0.0586,0.0824 -0.0159,0.0158 -0.16956,0.046 -0.23137,0.046 -0.0349,0 -0.0903,0.0254 -0.17749,0.0824 -0.11251,0.0761 -0.12519,0.0903 -0.12994,0.13946 -0.003,0.0301 -0.0285,0.0872 -0.0586,0.12677 l -0.0507,0.0713 0.0143,0.11885 c 0.01,0.0681 0.0254,0.12519 0.0396,0.1347 0.0174,0.0127 0.019,0.0269 0.006,0.0602 -0.0539,0.13946 0.19017,0.29 0.33279,0.20601 0.0491,-0.0301 0.0523,-0.0285 0.0681,0.0206 0.008,0.0269 0.003,0.0365 -0.0238,0.0428 -0.0174,0.005 -0.0285,0.0159 -0.0222,0.0254 0.006,0.0111 -0.006,0.0174 -0.0301,0.0174 -0.0491,0 -0.0491,-0.002 -0.008,0.084 0.046,0.0951 0.14738,0.14738 0.23454,0.12044 0.0539,-0.0159 0.065,-0.0127 0.15214,0.0396 0.0523,0.0317 0.10459,0.0571 0.11568,0.0571 0.0254,0 0.0238,0.0158 -0.005,0.0539 -0.0285,0.038 -0.0285,0.0412 0,0.0792 0.0222,0.0301 0.0238,0.0301 0.0539,0.002 0.0174,-0.0143 0.0412,-0.0238 0.0523,-0.019 0.0238,0.008 0.20126,0.53405 0.18066,0.53405 -0.002,0 -0.0365,-0.0111 -0.0777,-0.0254 -0.0729,-0.0254 -0.0903,-0.0428 -0.0586,-0.0618 0.0238,-0.0143 0.019,-0.0396 -0.006,-0.0396 -0.0127,0 -0.0777,0.0254 -0.14421,0.0555 -0.0967,0.0428 -0.12361,0.0634 -0.13629,0.10142 -0.0143,0.0396 -0.0301,0.0491 -0.0982,0.065 -0.12044,0.0285 -0.1458,0.0602 -0.16798,0.19967 -0.0111,0.0634 -0.0254,0.11727 -0.0301,0.11727 -0.006,-0.002 -0.0285,-0.0238 -0.0507,-0.0507 -0.065,-0.0808 -0.11093,-0.12044 -0.18066,-0.1553 -0.0872,-0.0412 -0.15213,-0.0412 -0.16323,0 -0.005,0.0158 -0.0238,0.0349 -0.0428,0.0412 -0.0428,0.0127 -0.0888,0.0539 -0.0888,0.0776 0,0.0285 0.0745,0.0555 0.12678,0.046 0.0254,-0.006 0.0475,-0.003 0.0475,0.005 0,0.008 0.0602,0.0143 0.13153,0.0143 0.13153,-0.002 0.13312,0 0.2076,0.0586 0.0745,0.0618 0.11252,0.12044 0.1759,0.27891 l 0.0349,0.0856 -0.0618,0.0555 -0.0634,0.057 0.008,0.12044 c 0.0127,0.18858 0.0444,0.33596 0.0824,0.3835 0.0317,0.038 0.0349,0.0507 0.0206,0.12519 -0.0222,0.12044 0.0222,0.21077 0.0777,0.1553 0.0127,-0.0127 0.0222,-0.002 0.0349,0.038 0.0222,0.0681 0.0935,0.10617 0.12202,0.0681 0.01,-0.0143 0.0222,-0.0539 0.0285,-0.0887 0.01,-0.0618 0.0285,-0.0808 0.0491,-0.046 0.008,0.0111 0.0254,0.005 0.0491,-0.019 l 0.0365,-0.0349 -0.01,0.0808 c -0.008,0.0745 -0.006,0.0792 0.0285,0.0856 0.0317,0.003 0.0396,0.0159 0.0428,0.0666 0.003,0.0349 0.0174,0.0713 0.0317,0.084 0.0507,0.0364 0.14579,-0.019 0.14579,-0.0856 0,-0.0301 0.006,-0.0365 0.0301,-0.0285 0.0159,0.005 0.0444,-0.003 0.065,-0.0206 0.0301,-0.0254 0.0333,-0.0349 0.0174,-0.0634 -0.0159,-0.0285 -0.0143,-0.0349 0.005,-0.0349 0.0127,0 0.0666,-0.019 0.12044,-0.0412 0.0523,-0.0238 0.0998,-0.0396 0.10301,-0.0349 0.005,0.005 0.0143,0.0491 0.0206,0.0998 0.01,0.0824 0.0174,0.0967 0.0777,0.14738 l 0.0681,0.0555 0.0254,-0.0602 c 0.0174,-0.0428 0.0206,-0.084 0.0143,-0.14896 l -0.01,-0.0887 0.0571,0.0602 c 0.0317,0.0333 0.0618,0.057 0.0681,0.0523 0.005,-0.006 -0.003,-0.019 -0.0174,-0.0301 -0.0143,-0.01 -0.0365,-0.046 -0.0507,-0.0792 -0.0238,-0.0586 -0.0238,-0.0602 0.006,-0.0507 0.0174,0.005 0.0365,0 0.0428,-0.01 0.019,-0.0317 0.0365,0.0285 0.0365,0.13311 0.002,0.0998 0.0317,0.17432 0.0808,0.20126 0.0349,0.019 0.0412,0.0555 0.0158,0.0713 -0.01,0.006 -0.0269,0.002 -0.0396,-0.008 -0.0127,-0.0111 -0.0238,-0.0143 -0.0238,-0.006 0,0.008 -0.0111,0.002 -0.0222,-0.0143 -0.0206,-0.0269 -0.0238,-0.0254 -0.0555,0.019 -0.0491,0.0681 -0.0459,0.17431 0.006,0.22344 0.0349,0.0333 0.0396,0.0507 0.0396,0.14579 0,0.10143 -0.002,0.10777 -0.0365,0.10777 -0.019,0 -0.0444,0.0143 -0.0555,0.0317 -0.0159,0.0269 -0.0143,0.0317 0.0206,0.0412 0.0222,0.005 0.0396,0.0174 0.0396,0.0285 0,0.019 -0.22345,0.28208 -0.27574,0.32486 -0.0317,0.0269 -0.0349,0.0238 -0.046,-0.0491 -0.008,-0.0523 -0.005,-0.0586 0.0285,-0.0634 0.0333,-0.005 0.0254,-0.0143 -0.065,-0.0808 -0.0824,-0.0618 -0.11093,-0.0745 -0.14579,-0.0666 -0.0349,0.006 -0.0539,-0.002 -0.0983,-0.0475 -0.0634,-0.065 -0.0998,-0.0681 -0.21869,-0.0238 l -0.0824,0.0317 0.01,-0.0428 c 0.006,-0.0254 0.0174,-0.057 0.0238,-0.0713 0.0206,-0.038 0.0174,-0.19809 -0.003,-0.23612 -0.01,-0.0206 -0.0254,-0.0285 -0.0412,-0.0238 -0.0143,0.006 -0.0364,0 -0.0507,-0.0127 -0.0143,-0.0111 -0.0412,-0.0269 -0.0602,-0.0317 -0.0333,-0.0111 -0.0364,-0.006 -0.0364,0.0428 0,0.0365 0.01,0.0586 0.0254,0.065 0.0159,0.006 0.0222,0.019 0.0159,0.0365 -0.006,0.0158 0.005,0.0412 0.0269,0.0666 0.0951,0.10143 0.0872,0.24247 -0.0238,0.40094 l -0.0666,0.0951 -0.0824,-0.0111 c -0.0634,-0.008 -0.0919,-0.003 -0.12836,0.019 -0.0872,0.0539 -0.24087,0.2012601 -0.25672,0.2440501 -0.0111,0.0317 -0.0317,0.0491 -0.0792,0.0634 -0.0349,0.0111 -0.0761,0.0349 -0.0887,0.0555 -0.0206,0.0333 -0.0206,0.038 0.003,0.0507 0.0238,0.0143 0.0238,0.0174 -0.002,0.0523 -0.0396,0.0571 -0.0333,0.10935 0.0127,0.10935 0.0222,0 0.0571,-0.006 0.0792,-0.0159 0.0349,-0.0127 0.0412,-0.0111 0.0412,0.0159 0,0.019 0.0127,0.0317 0.0365,0.0349 0.0301,0.006 0.0285,0.01 -0.0222,0.0317 -0.0475,0.0206 -0.0571,0.0317 -0.0507,0.0634 0.005,0.0285 -0.003,0.0428 -0.0333,0.0602 -0.0777,0.0412 -0.0396,0.1347 0.0507,0.1252 0.0269,-0.003 0.0571,0.005 0.0729,0.0222 0.0333,0.0333 0.0713,0.0349 0.0824,0.003 0.006,-0.0174 0.0285,-0.008 0.0903,0.0428 0.046,0.0349 0.084,0.0681 0.0856,0.0745 0.003,0.005 -0.0206,0.0254 -0.0523,0.046 -0.0571,0.038 -0.0856,0.0887 -0.0856,0.1553 0,0.0285 0.008,0.038 0.0317,0.038 0.0412,0 0.1141,-0.0364 0.14104,-0.0697 0.0333,-0.0396 0.0507,-0.0301 0.0317,0.0158 -0.0222,0.0618 -0.008,0.0634 0.0301,0.003 0.0269,-0.0412 0.0349,-0.046 0.0428,-0.0254 0.006,0.0143 0.0317,0.0317 0.0586,0.0365 l 0.0475,0.0111 -0.0412,0.0412 c -0.0222,0.0238 -0.0586,0.10143 -0.0824,0.17591 l -0.0428,0.13311 0.0412,0.0349 c 0.0238,0.0174 0.11251,0.0555 0.19809,0.084 0.1236,0.0396 0.18224,0.0507 0.28524,0.0507 h 0.12995 v 0.046 c 0,0.0666 0.0143,0.0967 0.046,0.0967 0.0159,0 0.0586,0.0285 0.0951,0.0618 l 0.0681,0.0634 -0.0602,0.0253 c -0.0919,0.038 -0.17748,0.0539 -0.28207,0.0555 -0.0808,0 -0.10143,0.006 -0.13788,0.0412 -0.0412,0.0396 -0.0444,0.0475 -0.0364,0.14738 l 0.01,0.10459 -0.0507,-0.0745 c -0.0697,-0.10301 -0.1347,-0.12836 -0.26781,-0.0998 -0.0539,0.0111 -0.0998,0.0222 -0.10301,0.0254 -0.003,0.003 -0.0254,0.038 -0.0491,0.0777 -0.0238,0.0396 -0.0713,0.10142 -0.10617,0.13787 -0.0618,0.0634 -0.0634,0.0681 -0.0539,0.1505498 0.01,0.084 0.008,0.084 -0.0539,0.13153 -0.0602,0.0475 -0.11093,0.13628 -0.11093,0.19967 0,0.0269 0.006,0.0301 0.0364,0.0206 0.0792,-0.0238 0.0998,-0.038 0.15214,-0.0919 0.0301,-0.0317 0.0602,-0.0571 0.065,-0.0571 0.006,0 0.0238,0.0269 0.038,0.0618 0.0159,0.0333 0.046,0.0697 0.0666,0.0792 0.0317,0.0143 0.038,0.0285 0.038,0.084 0,0.038 0.01,0.0998 0.0222,0.13946 0.019,0.0665 0.0254,0.0713 0.0808,0.0761 0.0333,0.003 0.12519,-0.006 0.20602,-0.0206 0.19175,-0.0349 0.22978,-0.0254 0.0903,0.0222 -0.10776,0.038 -0.11251,0.0412 -0.12994,0.10617 -0.0159,0.0555 -0.0143,0.0808 0.008,0.14738 0.0143,0.046 0.0412,0.0888 0.0586,0.0983 0.0475,0.0254 0.16481,0.005 0.24404,-0.0412 0.0365,-0.0222 0.0713,-0.0396 0.0761,-0.0396 0.005,0 0.0269,0.0333 0.0507,0.0729 0.0555,0.0951 0.14262,0.13629 0.26306,0.12202 0.0903,-0.01 0.0888,-0.006 -0.005,0.0634 -0.0412,0.0285 -0.0618,0.0602 -0.0745,0.10935 -0.01,0.0365 -0.0143,0.0697 -0.0111,0.0745 0.0159,0.0143 0.1458,-0.0396 0.19334,-0.0824 l 0.0523,-0.046 v 0.038 c 0,0.0523 -0.0317,0.13945 -0.0491,0.13945 -0.008,0 -0.0143,0.006 -0.0143,0.0159 0,0.0301 0.0317,0.0159 0.0523,-0.0254 l 0.0222,-0.0428 0.0174,0.0491 c 0.008,0.0254 0.0491,0.0919 0.0872,0.1458 l 0.0729,0.0983 0.0111,-0.0602 c 0.008,-0.0349 0.0127,-0.12678 0.0127,-0.20443 0.002,-0.14738 0.008,-0.16639 0.0697,-0.16639 0.0349,0 0.0349,0 0.006,-0.0444 -0.0158,-0.0238 -0.0364,-0.0571 -0.0444,-0.0745 -0.01,-0.0174 -0.0475,-0.046 -0.084,-0.0634 -0.0618,-0.0301 -0.065,-0.0349 -0.0555,-0.0856 0.005,-0.0301 0.0349,-0.14104 0.065,-0.24563 0.0317,-0.10618 0.0792,-0.27891 0.10776,-0.38668 l 0.0491,-0.19333 0.0269,0.0555 c 0.0143,0.0317 0.0269,0.0697 0.0269,0.084 0,0.0792 0.0919,0.0888 0.14738,0.0143 0.0555,-0.0729 0.0618,-0.10776 0.0349,-0.18383 -0.0127,-0.038 -0.0206,-0.0745 -0.0159,-0.0808 0.005,-0.008 0.0396,-0.0254 0.0777,-0.0396 0.0586,-0.0222 0.0792,-0.0238 0.12837,-0.008 0.0761,0.0253 0.20126,0.17749 0.2377,0.28842 0.0666,0.20284 0.19017,0.37082 0.38984,0.52137 l 0.0539,0.0412 -0.0285,0.0872 c -0.0269,0.0872 -0.038,0.34547 -0.0159,0.34547 0.006,0 0.0571,-0.0444 0.1141,-0.0998 l 0.10142,-0.0983 -0.0491,0.0729 c -0.11093,0.16639 -0.10618,0.39301 0.0127,0.4976 0.0349,0.0317 0.0349,0.0317 0.0618,-0.002 0.0143,-0.019 0.0396,-0.10617 0.0571,-0.19809 l 0.0285,-0.16481 0.0143,0.0792 c 0.019,0.103 0.0634,0.15055 0.14104,0.15055 0.101421,0 0.134701,-0.0222 0.163221,-0.1046 0.0143,-0.0412 0.0254,-0.10142 0.0254,-0.1347 0,-0.0491 0.006,-0.0602 0.0365,-0.065 0.0301,-0.005 0.0475,0.0174 0.12519,0.16164 0.0491,0.0919 0.13153,0.25197 0.18383,0.35815 0.0523,0.10459 0.133109,0.25831 0.180659,0.3423 l 0.0887,0.15213 0.0982,0.48017 c 0.0539,0.26465 0.13629,0.66717 0.18541,0.89378 l 0.0888,0.41203 -0.0349,0.61011 c -0.019,0.33596 -0.0412,0.63865 -0.0491,0.67351 -0.008,0.0349 -0.0159,0.15213 -0.0159,0.25989 v 0.19651 l -0.13312,0.35814 c -0.15213,0.40728 -0.18382,0.54832 -0.18382,0.82881 v 0.18383 l 0.12361,0.17907 0.12202,0.17907 0.150551,0.0428 c 0.14421,0.0412 0.20601,0.046 1.347009,0.11093 l 1.196461,0.0681 0.13945,-0.0555 0.13946,-0.0539 0.12519,-0.23929 c 0.12361,-0.23771 0.1252,-0.24088 0.12678,-0.36449 0.003,-0.10459 -0.0127,-0.18858 -0.0935,-0.51345 -0.0808,-0.31852 -0.12202,-0.5388 -0.22978,-1.22815 l -0.13312,-0.8399 0.0681,-0.79236 0.0682,-0.79236 0.18541,-0.53088 c 0.10142,-0.29159 0.199674,-0.57209 0.217105,-0.62121 0.02377,-0.0681 0.04279,-0.0967 0.07765,-0.1141 0.02694,-0.0127 0.07131,-0.038 0.09825,-0.0555 l 0.0523,-0.0317 0.05705,0.0982 c 0.05071,0.0888 0.06497,0.10142 0.139456,0.12836 0.0618,0.0222 0.107761,0.0269 0.186997,0.0206 0.0824,-0.006 0.09984,-0.005 0.07923,0.01 -0.01268,0.0111 -0.05705,0.0412 -0.09508,0.0681 -0.05863,0.0412 -0.0729,0.0618 -0.08716,0.12677 -0.01109,0.0444 -0.01268,0.084 -0.0048,0.0919 0.02377,0.0238 0.160056,-0.038 0.232953,-0.10618 l 0.06973,-0.0634 -0.01109,0.0697 c -0.01268,0.0872 -0.04754,0.17273 -0.06814,0.17273 -0.0095,0 -0.01743,0.006 -0.01743,0.0159 0,0.0349 0.04279,0.0127 0.06656,-0.0365 l 0.02536,-0.0507 0.03169,0.0713 c 0.01743,0.0396 0.06814,0.12044 0.11093,0.18066 l 0.07924,0.10776 0.01426,-0.0761 c 0.0063,-0.0428 0.01268,-0.15847 0.01109,-0.25673 v -0.17749 l 0.06022,-0.0111 c 0.06022,-0.008 0.09984,-0.0365 0.05547,-0.0365 -0.01268,0 -0.03169,-0.0238 -0.04279,-0.0523 -0.03011,-0.0729 -0.07765,-0.12203 -0.153718,-0.15531 l -0.06656,-0.0285 0.04754,-0.1759 c 0.02536,-0.0983 0.0729,-0.26782 0.107761,-0.37717 0.03328,-0.11093 0.0729,-0.26148 0.08875,-0.33596 0.01585,-0.0745 0.03328,-0.14104 0.0412,-0.14896 0.01585,-0.019 0.0618,0.0745 0.0618,0.12995 0,0.0982 0.101422,0.12836 0.174319,0.0507 0.07924,-0.084 0.08874,-0.13154 0.0523,-0.24563 l -0.03169,-0.0998 0.05071,-0.0238 c 0.156887,-0.0745 0.259893,-0.0428 0.388255,0.11727 0.06339,0.0777 0.09825,0.14104 0.128363,0.23295 0.02377,0.0697 0.07131,0.1759 0.106176,0.23612 0.06656,0.11252 0.231368,0.28367 0.348638,0.36132 0.03645,0.0238 0.06656,0.0491 0.06656,0.0555 0,0.008 -0.01426,0.0586 -0.03169,0.1141 -0.03169,0.0998 -0.04596,0.40886 -0.0206,0.40886 0.0063,0 0.06814,-0.0555 0.13787,-0.12361 0.109346,-0.10617 0.120439,-0.1141 0.08874,-0.0586 -0.0206,0.0349 -0.04913,0.0808 -0.06339,0.10301 -0.02852,0.0428 -0.06339,0.19492 -0.06339,0.27732 0,0.0967 0.109346,0.29317 0.163226,0.29317 0.03803,0 0.06973,-0.0887 0.09984,-0.27415 0.01585,-0.10142 0.03328,-0.18541 0.03962,-0.18541 0.0048,0 0.01426,0.0412 0.0206,0.0903 0.01902,0.16006 0.101422,0.20919 0.269401,0.15848 0.05547,-0.0174 0.06497,-0.0285 0.09033,-0.0983 0.01585,-0.0444 0.02853,-0.10459 0.02853,-0.1347 0.0032,-0.0887 0.01743,-0.12519 0.05546,-0.12994 0.04913,-0.006 0.0523,-0.065 0.0016,-0.0919 -0.03645,-0.019 -0.03962,-0.0301 -0.03962,-0.12202 0,-0.11093 -0.02694,-0.18383 -0.08874,-0.23454 l -0.03645,-0.0317 0.0935,-0.15848 c 0.103007,-0.17273 0.112515,-0.21869 0.06497,-0.30902 -0.02377,-0.0428 -0.05229,-0.0634 -0.13787,-0.0998 -0.153717,-0.065 -0.182242,-0.0682 -0.207598,-0.0349 -0.01109,0.0174 -0.0206,0.0491 -0.0206,0.0713 0,0.0238 -0.02219,0.0729 -0.04913,0.11093 -0.04754,0.065 -0.04913,0.0729 -0.04279,0.19333 0.0079,0.12836 -0.0016,0.14104 -0.03328,0.0428 -0.01109,-0.0317 -0.03169,-0.0697 -0.04913,-0.0856 -0.02694,-0.0238 -0.03486,-0.0254 -0.05705,-0.006 -0.02694,0.0222 -0.161642,0.2076 -0.191752,0.26624 -0.0063,0.0111 -0.190166,-0.14104 -0.267816,-0.22345 -0.04437,-0.046 -0.112515,-0.14104 -0.148963,-0.20918 -0.06814,-0.12519 -0.207599,-0.44055 -0.198091,-0.45006 0.0016,-0.002 0.0412,0.01 0.08558,0.0285 l 0.08241,0.0317 0.0618,-0.0317 c 0.06022,-0.0301 0.06181,-0.0333 0.04437,-0.0824 -0.01902,-0.057 -0.129947,-0.18224 -0.17432,-0.19651 -0.04279,-0.0127 -0.03486,-0.0269 0.04279,-0.0824 0.05705,-0.0396 0.07131,-0.0602 0.07131,-0.0967 0,-0.0365 0.01268,-0.0539 0.05388,-0.0792 0.02852,-0.019 0.05546,-0.0333 0.06022,-0.0333 0.0032,0 0.0032,0.0428 0,0.0951 -0.0095,0.12678 0.01268,0.1553 0.07923,0.10934 0.02536,-0.019 0.05388,-0.0507 0.06339,-0.0713 0.0206,-0.0459 0.03328,-0.0475 0.08874,-0.008 0.02853,0.0206 0.08399,0.0333 0.163226,0.0396 0.177488,0.0158 0.212352,-0.006 0.296343,-0.17432 0.06022,-0.12044 0.06656,-0.1458 0.06656,-0.2488 0,-0.065 -0.01109,-0.14897 -0.02536,-0.19175 -0.01426,-0.0412 -0.02377,-0.0761 -0.0206,-0.0777 0.0032,-0.003 0.03486,-0.0238 0.07131,-0.0475 0.04913,-0.0333 0.0824,-0.0428 0.148963,-0.0428 h 0.08558 l -0.0412,0.0428 c -0.08875,0.0967 -0.0935,0.18066 -0.01585,0.29635 l 0.0412,0.0602 -0.03486,0.0618 c -0.04913,0.0856 -0.04596,0.14738 0.0095,0.187 0.06814,0.0475 0.144208,0.019 0.228199,-0.084 0.04913,-0.0602 0.0618,-0.0713 0.05388,-0.0412 -0.04437,0.16798 -0.02536,0.24405 0.07131,0.29951 0.06656,0.0365 0.07607,0.038 0.126776,0.0174 0.03011,-0.0127 0.08399,-0.0507 0.122024,-0.084 0.07607,-0.0713 0.08241,-0.10935 0.03486,-0.21553 -0.04279,-0.0919 -0.0412,-0.0967 0.02853,-0.0967 0.06814,0 0.101422,0.0285 0.2282,0.19809 0.07131,0.0935 0.0729,0.0967 0.04913,0.14262 -0.02852,0.0539 -0.06656,0.20284 -0.06814,0.26465 0,0.0729 0.04437,0.0792 0.104591,0.0143 l 0.0523,-0.0571 -0.0095,0.0792 c -0.0063,0.0618 -0.0032,0.0856 0.01585,0.0998 0.03645,0.0301 0.05546,-0.0159 0.06022,-0.13629 0.0016,-0.0539 0.0079,-0.0983 0.01268,-0.0983 0.0063,0 0.02536,0.0111 0.04437,0.0238 0.03169,0.0222 0.03486,0.0206 0.05071,-0.0254 0.01585,-0.046 0.01743,-0.0475 0.0523,-0.0238 0.01902,0.0143 0.05546,0.0254 0.07924,0.0254 h 0.04437 v -0.12361 c 0,-0.10459 0.0048,-0.12519 0.03169,-0.14263 0.02694,-0.0158 0.02853,-0.0254 0.01268,-0.0586 -0.0095,-0.0222 -0.03169,-0.0396 -0.04754,-0.0396 -0.01585,0 -0.03328,-0.01 -0.03803,-0.0222 -0.0063,-0.0174 -0.01902,-0.019 -0.05547,-0.006 -0.06022,0.0206 -0.07607,0.006 -0.03803,-0.0349 0.02377,-0.0254 0.02535,-0.0349 0.0079,-0.057 -0.01902,-0.0206 -0.01743,-0.0269 0.0016,-0.0396 0.01902,-0.0127 0.01743,-0.019 -0.01109,-0.0428 -0.01743,-0.0143 -0.06022,-0.0634 -0.09667,-0.10618 l -0.06339,-0.0792 0.03645,-0.0792 c 0.0206,-0.0444 0.03803,-0.0982 0.03803,-0.12202 0,-0.0333 0.01268,-0.0476 0.06814,-0.0745 0.03803,-0.019 0.09033,-0.0333 0.117268,-0.0333 0.02694,0 0.0729,-0.005 0.101423,-0.0111 l 0.05388,-0.0127 -0.07131,-0.008 -0.07131,-0.008 0.0824,-0.0301 c 0.125193,-0.0475 0.09033,-0.0475 -0.07131,-0.002 -0.07924,0.0222 -0.147379,0.0396 -0.150547,0.0396 -0.0032,0 -0.01109,-0.0523 -0.01585,-0.11727 -0.0063,-0.0634 -0.01426,-0.12678 -0.0206,-0.14104 -0.01268,-0.0349 -0.123608,-0.0634 -0.213937,-0.0555 -0.04437,0.005 -0.08874,0 -0.110931,-0.0127 -0.02219,-0.0127 -0.0935,-0.0222 -0.172734,-0.0222 -0.125193,-0.002 -0.131531,-0.003 -0.09508,-0.0238 0.02535,-0.0159 0.07765,-0.0222 0.152133,-0.0206 0.123607,0.003 0.16798,-0.0159 0.302681,-0.12519 0.06814,-0.0555 0.06973,-0.0586 0.03486,-0.0713 l -0.03486,-0.0143 0.04437,-0.046 c 0.02377,-0.0238 0.06339,-0.0539 0.08874,-0.0634 0.02536,-0.0111 0.04596,-0.0254 0.04596,-0.0317 0,-0.0127 -0.103008,-0.0586 -0.150548,-0.0681 -0.02536,-0.003 -0.01585,-0.0127 0.03962,-0.0428 0.04913,-0.0254 0.06339,-0.0396 0.04437,-0.0444 -0.01743,-0.003 -0.02377,-0.0143 -0.01743,-0.0301 0.0079,-0.0206 0.0016,-0.0238 -0.03169,-0.0143 -0.0523,0.0127 -0.05547,-0.008 -0.0095,-0.0713 l 0.03328,-0.046 -0.08716,0.01 -0.08716,0.0111 -0.01109,-0.0745 -0.01109,-0.0729 -0.0618,0.0491 c -0.0618,0.0491 -0.0618,0.0491 -0.07448,0.0143 -0.01268,-0.0349 -0.01585,-0.0333 -0.06497,0.0254 l -0.0523,0.0618 0.01109,-0.0555 c 0.0063,-0.0301 0.0206,-0.0713 0.03328,-0.0903 0.03011,-0.0476 0.02853,-0.0491 -0.01743,-0.0396 -0.03645,0.006 -0.03962,0.003 -0.03962,-0.0602 0,-0.0586 -0.0032,-0.065 -0.03169,-0.0555 -0.01743,0.006 -0.03169,0.003 -0.03169,-0.006 0,-0.01 -0.02853,-0.0174 -0.0618,-0.0174 -0.05705,0 -0.06497,0.006 -0.122025,0.0951 -0.03486,0.0523 -0.06656,0.0951 -0.0729,0.0951 -0.01902,0 -0.01585,-0.0143 0.02853,-0.0872 0.05546,-0.0967 0.06022,-0.14263 0.02219,-0.22186 -0.02536,-0.0523 -0.04754,-0.0745 -0.08875,-0.0872 -0.03962,-0.0143 -0.05388,-0.0269 -0.05388,-0.0523 0,-0.0396 0.02536,-0.4722401 0.03962,-0.6655801 0.0079,-0.11251 0.0063,-0.12202 -0.02219,-0.12202 -0.01585,0 -0.04596,-0.0143 -0.06656,-0.0317 l -0.03803,-0.0301 0.04437,-0.002 c 0.02377,0 0.04279,0.006 0.04279,0.0127 0,0.006 0.0206,0.0238 0.04437,0.038 0.06973,0.0412 0.144209,0.0111 0.217107,-0.084 0.03169,-0.0428 0.0618,-0.0776 0.06339,-0.0776 0.0032,0 -0.0032,0.0333 -0.01268,0.0745 -0.01109,0.0428 -0.01743,0.10301 -0.01426,0.1347 0.0048,0.0507 0.01585,0.0681 0.07765,0.10935 0.06814,0.0475 0.07607,0.0491 0.129947,0.0301 0.03169,-0.0111 0.08716,-0.0491 0.125192,-0.084 0.07765,-0.0761 0.08716,-0.13788 0.03486,-0.24088 -0.01743,-0.0349 -0.0317,-0.065 -0.0317,-0.0666 0,-0.003 0.0317,-0.005 0.06973,-0.005 0.06339,0 0.07607,0.006 0.126777,0.0666 0.03169,0.0365 0.08241,0.10301 0.1141,0.14897 0.05071,0.0729 0.05388,0.0856 0.03645,0.11885 -0.03011,0.0571 -0.0618,0.19017 -0.0618,0.26148 0,0.0903 0.03169,0.0983 0.09508,0.0269 l 0.05071,-0.0571 -0.0048,0.0729 c -0.0032,0.0428 0.0032,0.0824 0.01743,0.0982 0.01902,0.0238 0.02377,0.0222 0.0412,-0.0111 0.01268,-0.0206 0.0206,-0.0777 0.02219,-0.12837 0,-0.0491 0.0032,-0.0903 0.0079,-0.0903 0.0048,0 0.02536,0.0111 0.04596,0.0253 0.03645,0.0238 0.03803,0.0222 0.04913,-0.0238 0.01109,-0.0491 0.0317,-0.065 0.04279,-0.0317 0.0032,0.008 0.03486,0.0206 0.0729,0.0254 l 0.06656,0.01 v -0.12836 c 0,-0.10142 0.0048,-0.13153 0.02536,-0.14263 0.03803,-0.0206 0.01268,-0.0824 -0.04279,-0.10142 -0.02536,-0.008 -0.04596,-0.0222 -0.04596,-0.0301 0,-0.008 -0.01743,-0.005 -0.03962,0.005 -0.04913,0.0222 -0.06339,0.01 -0.03962,-0.0333 0.01268,-0.0238 0.01268,-0.0428 0,-0.065 -0.01426,-0.0254 -0.01268,-0.0317 0.0079,-0.0317 0.03169,0 0.03011,-0.0206 -0.0048,-0.0412 -0.01585,-0.01 -0.05864,-0.0571 -0.09508,-0.10618 -0.06497,-0.084 -0.06814,-0.0903 -0.04437,-0.12519 0.01268,-0.0206 0.03328,-0.0761 0.04596,-0.12203 0.01902,-0.0713 0.03169,-0.0919 0.07607,-0.11568 0.02853,-0.0159 0.08241,-0.0301 0.11727,-0.0301 0.03486,-0.002 0.08557,-0.008 0.11093,-0.0143 0.04437,-0.0111 0.04279,-0.0127 -0.02377,-0.0159 l -0.07131,-0.003 0.07924,-0.038 c 0.08558,-0.0412 0.07924,-0.0412 -0.103008,0.01 -0.06497,0.0174 -0.122022,0.0317 -0.126776,0.0317 -0.0048,0 -0.0079,-0.0301 -0.0095,-0.0681 0,-0.0365 -0.0063,-0.0998 -0.01268,-0.14104 -0.01109,-0.0713 -0.01426,-0.0761 -0.07448,-0.0919 -0.03486,-0.01 -0.104592,-0.0158 -0.153718,-0.0127 -0.04913,0.002 -0.101422,-0.003 -0.1141,-0.0111 -0.01268,-0.01 -0.08399,-0.019 -0.158472,-0.0238 -0.133115,-0.008 -0.134701,-0.008 -0.08716,-0.0317 0.03486,-0.019 0.07131,-0.0222 0.134701,-0.0143 0.07765,0.008 0.09667,0.005 0.174318,-0.0364 0.04754,-0.0254 0.115685,-0.0713 0.148963,-0.10143 0.05388,-0.0459 0.05863,-0.0539 0.02853,-0.0539 -0.01902,0 -0.03486,-0.005 -0.03486,-0.0127 0.0016,-0.0238 0.07607,-0.0967 0.128363,-0.12203 l 0.0523,-0.0269 -0.04754,-0.0254 c -0.02536,-0.0143 -0.07131,-0.0285 -0.101423,-0.0349 l -0.05546,-0.01 0.07923,-0.0428 c 0.04437,-0.0222 0.06656,-0.0412 0.0523,-0.0428 -0.01585,0 -0.02853,-0.0111 -0.02853,-0.0254 0,-0.0174 -0.0095,-0.0222 -0.03169,-0.0143 -0.02377,0.008 -0.0317,0.003 -0.0317,-0.0206 0,-0.0174 0.01109,-0.0396 0.02377,-0.0507 0.04279,-0.0365 0.02536,-0.0491 -0.05546,-0.038 -0.0729,0.01 -0.07924,0.008 -0.07924,-0.0222 0,-0.019 -0.0063,-0.0365 -0.01426,-0.0412 -0.0079,-0.005 -0.01109,-0.0238 -0.0063,-0.0412 0.01268,-0.046 -0.01426,-0.0396 -0.06656,0.0158 -0.05388,0.0571 -0.07131,0.0602 -0.07131,0.0127 0,-0.0317 -0.0063,-0.0285 -0.06497,0.0269 -0.05863,0.057 -0.06339,0.0586 -0.05388,0.0238 0.02219,-0.0761 0.03803,-0.10776 0.05388,-0.11885 0.03486,-0.0206 0.01585,-0.038 -0.03169,-0.0285 l -0.04913,0.01 0.0063,-0.065 c 0.0048,-0.0618 0.0032,-0.065 -0.03328,-0.0555 -0.02694,0.006 -0.03486,0.003 -0.02694,-0.01 0.0079,-0.0111 -0.0079,-0.0174 -0.0523,-0.0174 -0.06022,0 -0.06814,0.005 -0.126776,0.0935 l -0.06497,0.0935 -0.05705,-0.0174 c -0.05705,-0.0174 -0.301096,0.006 -0.351807,0.0349 -0.01585,0.01 -0.04596,-0.003 -0.09191,-0.0365 -0.03645,-0.0269 -0.09984,-0.0697 -0.139455,-0.0935 -0.0618,-0.038 -0.06973,-0.0491 -0.05705,-0.0745 0.02535,-0.046 0.01902,-0.0792 -0.01426,-0.0792 -0.01902,0 -0.03645,0.0174 -0.04754,0.0491 -0.01426,0.0444 -0.01109,0.0555 0.03486,0.1141 0.02694,0.0365 0.05705,0.0713 0.06656,0.0777 0.0079,0.006 0.01109,0.0159 0.0048,0.0206 -0.02219,0.0222 -0.0824,-0.0158 -0.191751,-0.11885 -0.0618,-0.0602 -0.115684,-0.10618 -0.120438,-0.10301 -0.01109,0.0127 0.186996,0.19651 0.239292,0.22345 l 0.04913,0.0254 -0.0523,0.0428 c -0.156888,0.12202 -0.245631,0.1759 -0.296343,0.1759 -0.0412,0 -0.0523,-0.006 -0.0523,-0.0317 0,-0.0254 -0.0079,-0.0301 -0.04754,-0.0222 -0.02536,0.006 -0.04754,0.005 -0.04754,-0.002 0,-0.006 0.02536,-0.0539 0.05705,-0.10459 0.05863,-0.0983 0.07765,-0.17115 0.103006,-0.40252 0.0079,-0.0792 0.01902,-0.17907 0.02377,-0.22345 0.0079,-0.0697 0.0048,-0.0824 -0.0206,-0.0919 -0.01585,-0.005 -0.03803,-0.0143 -0.04754,-0.019 -0.01268,-0.006 -0.0206,0.003 -0.0206,0.0238 0,0.019 -0.02377,0.0808 -0.05388,0.13946 -0.03011,0.0602 -0.05863,0.12361 -0.06497,0.14421 -0.01426,0.0475 -0.02536,0.0349 -0.05546,-0.057 -0.02219,-0.0666 -0.02219,-0.0792 0,-0.11727 0.03328,-0.0602 0.04437,-0.0555 0.05071,0.0222 l 0.0048,0.0681 0.03486,-0.0666 c 0.0206,-0.0365 0.03962,-0.0919 0.04279,-0.12361 0.0063,-0.0491 0.0016,-0.0602 -0.02377,-0.0666 -0.01743,-0.005 -0.03011,-0.0222 -0.03011,-0.0412 0,-0.0729 -0.210767,-0.26465 -0.316943,-0.28842 -0.05705,-0.0127 -0.05863,-0.0174 -0.01109,-0.0571 0.01902,-0.0158 0.02536,-0.0285 0.01585,-0.0301 -0.02694,0 -0.02694,-0.0317 0,-0.0317 0.01109,0 0.03645,-0.0222 0.05546,-0.0475 l 0.03645,-0.0475 h -0.0412 c -0.02219,0 -0.03962,-0.008 -0.03962,-0.0159 0,-0.01 0.01426,-0.0159 0.03169,-0.0159 0.01743,0 0.0317,-0.008 0.0317,-0.0159 0,-0.009 -0.01109,-0.0158 -0.02377,-0.0158 -0.03645,0 -0.02853,-0.0254 0.01585,-0.0539 0.05705,-0.038 0.05071,-0.0729 -0.01109,-0.0729 h -0.0523 l 0.04754,-0.0396 c 0.02694,-0.0206 0.03962,-0.038 0.02853,-0.0396 -0.0095,0 -0.02377,-0.0143 -0.02853,-0.0333 -0.0063,-0.0206 -0.01902,-0.0285 -0.03486,-0.0238 -0.112515,0.0444 -0.126777,0.0222 -0.0523,-0.0872 0.02536,-0.038 0.0523,-0.0935 0.05705,-0.12202 0.0095,-0.0523 0.01109,-0.0523 0.07607,-0.0428 0.06973,0.0127 0.267817,0.0713 0.400933,0.12203 l 0.08241,0.0301 0.0095,0.084 c 0.02219,0.17907 0.186997,0.37557 0.33279,0.39618 0.0412,0.006 0.07765,0.008 0.08399,0.003 0.0079,-0.008 -0.01426,-0.0951 -0.03962,-0.16481 -0.0079,-0.0206 0,-0.0222 0.05547,-0.0158 l 0.06497,0.01 -0.02219,-0.0444 c -0.0317,-0.0618 -0.226615,-0.23612 -0.275741,-0.24721 -0.02219,-0.005 -0.141041,-0.0396 -0.263064,-0.0792 -0.19492,-0.0618 -0.296342,-0.0887 -0.454814,-0.12361 -0.03486,-0.008 -0.04437,-0.0206 -0.0523,-0.0697 -0.0048,-0.0317 -0.01426,-0.0872 -0.02219,-0.12203 -0.0079,-0.0349 -0.01268,-0.0666 -0.0095,-0.0697 0.0032,-0.003 0.03645,0.006 0.07448,0.0222 0.115683,0.046 0.117269,0.046 0.03962,-0.0111 l -0.07448,-0.0555 0.161641,-0.0967 c 0.09033,-0.0539 0.182243,-0.11093 0.206014,-0.12519 0.03645,-0.0222 0.04754,-0.0238 0.08082,-0.006 0.03328,0.0174 0.06022,0.0159 0.167979,-0.006 0.06973,-0.0158 0.128362,-0.0349 0.128362,-0.0412 0,-0.008 -0.01109,-0.0143 -0.02536,-0.0143 -0.01585,0 0,-0.0269 0.04754,-0.0824 0.0729,-0.084 0.08557,-0.10776 0.05705,-0.10776 -0.0079,0 -0.01585,-0.0111 -0.01585,-0.0238 0,-0.0158 -0.01585,-0.0238 -0.04913,-0.0238 -0.02694,0 -0.04437,-0.006 -0.03803,-0.0159 0.0063,-0.01 -0.01109,-0.0127 -0.04279,-0.008 -0.04754,0.008 -0.04437,0.005 0.03011,-0.0333 0.05388,-0.0285 0.09191,-0.0634 0.115684,-0.10459 l 0.03328,-0.0602 h -0.07607 c -0.104591,0 -0.122023,-0.0143 -0.109345,-0.0856 0.01268,-0.0618 0.01268,-0.0618 -0.0729,-0.0428 -0.05546,0.0127 -0.06022,0.0111 -0.06022,-0.0206 0,-0.0475 -0.02377,-0.0792 -0.0523,-0.0682 -0.01585,0.006 -0.02694,-0.003 -0.03328,-0.0301 -0.0063,-0.0206 -0.01743,-0.038 -0.02536,-0.038 -0.0095,0 -0.01585,-0.0111 -0.01585,-0.0238 0,-0.0333 -0.01585,-0.0285 -0.07924,0.0254 l -0.05546,0.0475 -0.01426,-0.0713 c -0.0079,-0.0412 -0.0206,-0.0729 -0.02853,-0.0729 -0.0063,0 -0.01268,-0.0143 -0.01268,-0.0317 0,-0.0349 -0.02377,-0.0428 -0.03645,-0.0127 -0.0048,0.0111 -0.0095,-0.002 -0.01109,-0.0269 0,-0.0428 -0.0095,-0.0333 -0.07131,0.0792 -0.0412,0.0745 -0.07131,0.14738 -0.07131,0.17749 v 0.0491 l -0.304267,0.0729 c -0.166396,0.0396 -0.304266,0.0713 -0.305851,0.0697 -0.0016,-0.003 -0.01109,-0.0285 -0.0206,-0.0586 -0.01743,-0.0491 -0.01426,-0.0618 0.04437,-0.16798 0.05705,-0.103 0.06497,-0.13153 0.08557,-0.31694 0.02377,-0.19492 0.02377,-0.21235 -0.0079,-0.40411016 -0.03169,-0.18541 -0.03803,-0.20442 -0.09191,-0.26781 l -0.05863,-0.0697 -0.107761,0.0729 c -0.08716,0.0571 -0.129947,0.10459 -0.229784,0.24404 -0.11093,0.15214 -0.128363,0.19017016 -0.175903,0.34547016 -0.02853,0.0951 -0.06022,0.2488 -0.06973,0.33913 l -0.01743,0.1664 -0.04596,-0.0713 c -0.02535,-0.038 -0.09825,-0.1347 -0.160056,-0.21236 l -0.114099,-0.14262 -0.164811,-0.0681 c -0.169565,-0.0697 -0.261479,-0.0824 -0.413611,-0.0571 -0.07924,0.0143 -0.09191,0.0618 -0.0729,0.27257 0.01109,0.12994 0.02536,0.18383 0.06814,0.28049 0.03011,0.0666 0.05547,0.12203 0.05547,0.1252 0,0.003 -0.03169,0.0174 -0.07131,0.0333 -0.06973,0.0254 -0.07131,0.0285 -0.04913,0.0634 0.01902,0.0301 0.0206,0.038 0.0016,0.0571 -0.03803,0.038 -0.08082,0.20602 -0.07448,0.28684 0.0048,0.0634 0.01109,0.0745 0.04596,0.084 0.0412,0.01 0.0412,0.01 -0.0206,0.0507 -0.03328,0.0238 -0.120438,0.0951 -0.190166,0.15847 -0.109353,0.0983 -0.134703,0.13153 -0.164813,0.21077 -0.019,0.0523 -0.0317,0.10459 -0.0269,0.11568 0.005,0.0127 0.0634,0.0507 0.133118,0.0856 l 0.123609,0.065 0.16481,-0.0159 c 0.155303,-0.0143 0.174319,-0.019 0.348638,-0.10617 0.196505,-0.0998 0.286834,-0.13153 0.316944,-0.1141 0.02219,0.0143 -0.01743,0.37558 -0.04437,0.40252 -0.01268,0.0127 -0.01743,0.0127 -0.01743,-0.002 0,-0.0127 -0.02536,-0.019 -0.06656,-0.019 -0.06497,0.002 -0.06973,0.005 -0.126777,0.0967 l -0.06022,0.0951 -0.04596,-0.0238 c -0.04437,-0.0238 -0.07607,-0.0222 -0.297927,0.0143 l -0.0523,0.01 v -0.0856 c 0,-0.0951 -0.05071,-0.18858 -0.08399,-0.1553 -0.01268,0.0127 -0.02694,0.008 -0.05071,-0.0143 -0.01743,-0.0174 -0.05705,-0.0364 -0.08557,-0.0412 l -0.05072,-0.0111 0.0111,0.0618 c 0.005,0.0333 0.02378,0.0745 0.03962,0.0903 0.03803,0.0364 0.03803,0.0428 -0.0032,0.0349 -0.06023,-0.0111 -0.07925,-0.0396 -0.06815,-0.0967 0.008,-0.046 0.006,-0.0539 -0.0222,-0.0539 -0.0206,0 -0.038,0.0159 -0.0491,0.0491 -0.0158,0.0444 -0.0111,0.0539 0.0412,0.11886 0.0364,0.0428 0.08558,0.0792 0.126779,0.0951 0.06973,0.0269 0.09667,0.065 0.03328,0.0444 -0.110929,-0.0333 -0.206009,-0.0919 -0.296339,-0.17907 -0.0555,-0.0539 -0.10459,-0.0951 -0.10776,-0.0903 -0.003,0.003 0.038,0.0491 0.0919,0.0998 0.0903,0.0872 0.16164,0.1347 0.272571,0.17749 0.0523,0.0206 0.05388,0.038 0.0048,0.0618 -0.03169,0.0143 -0.04279,0.0111 -0.07448,-0.0238 -0.0539,-0.0555 -0.10935,-0.0935 -0.16006,-0.10618 -0.0396,-0.01 -0.0444,-0.006 -0.0444,0.0301 v 0.0396 l -0.0713,-0.0507 c -0.0666,-0.0475 -0.0729,-0.0491 -0.0998,-0.0238 -0.0365,0.0333 -0.0887,0.0349 -0.120441,0.003 -0.0301,-0.0301 -0.0681,-0.0301 -0.0856,0.002 -0.0127,0.0222 -0.0159,0.0222 -0.0365,-0.003 -0.0143,-0.019 -0.0206,-0.0602 -0.0159,-0.13946 0.003,-0.0998 0.01,-0.11885 0.0507,-0.16006 0.0507,-0.0539 0.0571,-0.0982 0.0222,-0.16639 -0.0222,-0.0412 -0.0206,-0.0491 0.0158,-0.1141 0.0539,-0.0919 0.0507,-0.15213 -0.01,-0.2282 -0.0571,-0.0713 -0.19492,-0.17432 -0.25673,-0.18858 -0.0491,-0.0127 -0.0539,-0.0269 -0.019,-0.0555 0.019,-0.0158 0.0206,-0.0238 0.006,-0.0317 -0.0111,-0.008 0.003,-0.0317 0.0428,-0.0697 l 0.0618,-0.0555 -0.0444,-0.002 c -0.0555,0 -0.0507,-0.0333 0.006,-0.0491 0.0365,-0.0111 0.0365,-0.0111 0.003,-0.0127 -0.0444,-0.002 -0.0475,-0.0428 -0.005,-0.0571 0.0174,-0.005 0.0396,-0.0238 0.0475,-0.0412 0.0159,-0.0269 0.0111,-0.0301 -0.0428,-0.0301 h -0.0602 l 0.0476,-0.0396 c 0.0269,-0.0206 0.0396,-0.038 0.0285,-0.0396 -0.01,0 -0.0238,-0.0143 -0.0285,-0.0333 -0.0111,-0.0333 -0.0333,-0.0333 -0.11252,-0.003 -0.0222,0.008 -0.0254,0.003 -0.0159,-0.0349 0.006,-0.0238 0.0285,-0.0666 0.0491,-0.0951 0.0222,-0.0269 0.0444,-0.0729 0.0491,-0.10142 l 0.0111,-0.0523 0.0761,0.01 c 0.0618,0.008 0.323291,0.0903 0.457991,0.14263 0.0159,0.006 0.0254,0.0365 0.0285,0.0856 0.0111,0.18383 0.17749,0.38034 0.348642,0.40569 0.07607,0.0111 0.07924,0.006 0.04437,-0.10617 l -0.02219,-0.0729 0.06339,-0.005 0.06339,-0.005 -0.04913,-0.0666 c -0.06656,-0.0919 -0.215522,-0.20601 -0.285252,-0.21869 -0.0317,-0.005 -0.13946,-0.038 -0.23929,-0.0713 -0.0998,-0.0333 -0.250391,-0.0761 -0.332791,-0.0967 -0.0824,-0.019 -0.15214,-0.0365 -0.15372,-0.0365 -0.002,-0.002 -0.01,-0.0444 -0.019,-0.0967 -0.008,-0.0523 -0.0206,-0.10934 -0.0269,-0.12519 -0.01,-0.0254 -0.006,-0.0285 0.0269,-0.0222 0.0206,0.005 0.065,0.0206 0.0982,0.0349 0.0761,0.0333 0.0745,0.0254 -0.005,-0.0301 -0.0349,-0.0238 -0.0634,-0.0475 -0.0634,-0.0539 0,-0.005 0.038,-0.0301 0.084,-0.0555 0.0444,-0.0254 0.1347,-0.0808 0.1965,-0.1236 0.107771,-0.0729 0.117271,-0.0761 0.152141,-0.0539 0.0317,0.0206 0.0491,0.0206 0.15372,0 0.12994,-0.0269 0.19175,-0.0523 0.12994,-0.0539 -0.0317,0 -0.0285,-0.008 0.038,-0.0903 0.0412,-0.0507 0.06655,-0.0935 0.05546,-0.0967 -0.0095,-0.003 -0.01743,-0.0159 -0.01743,-0.0285 0,-0.0143 -0.0174,-0.0222 -0.0491,-0.0222 -0.0317,0 -0.0444,-0.006 -0.0365,-0.019 0.008,-0.0127 -0.003,-0.0143 -0.0412,-0.006 -0.0634,0.0127 -0.0539,0 0.0412,-0.0539 0.0396,-0.0222 0.0872,-0.0618 0.103014,-0.0887 l 0.03169,-0.0507 -0.09826,-0.0111 -0.0967,-0.0111 0.01,-0.0634 0.01,-0.0618 -0.0713,0.01 c -0.0681,0.0111 -0.0713,0.01 -0.0713,-0.0254 0,-0.0206 -0.006,-0.0475 -0.0143,-0.0602 -0.0127,-0.019 -0.019,-0.019 -0.0396,-0.003 -0.0222,0.019 -0.0254,0.0159 -0.0254,-0.0206 0,-0.0254 -0.008,-0.0412 -0.0238,-0.0412 -0.0143,0 -0.0238,-0.0143 -0.0238,-0.0333 0,-0.0301 -0.005,-0.0285 -0.0586,0.0158 -0.0333,0.0269 -0.065,0.0491 -0.0713,0.0491 -0.006,0 -0.0158,-0.0317 -0.0222,-0.0713 -0.005,-0.0396 -0.0159,-0.0713 -0.0238,-0.0713 -0.008,0 -0.0143,-0.0159 -0.0143,-0.0365 -0.002,-0.0333 -0.002,-0.0333 -0.0238,-0.006 -0.0206,0.0285 -0.0222,0.0269 -0.0269,-0.0127 -0.005,-0.038 -0.0127,-0.0269 -0.0713,0.0808 z m 0.0681,0.52295 c 0.0206,0.14263 -0.0143,0.25673 -0.10301,0.33438 -0.0586,0.0507 -0.0666,0.0444 -0.0396,-0.0317 0.0143,-0.0365 0.0317,-0.1141 0.0396,-0.17273 0.0127,-0.10776 0.0507,-0.20284 0.0777,-0.20284 0.008,0 0.019,0.0333 0.0254,0.0729 z m 0.24405,0.0269 c 0,0.0206 -0.0222,0.0571 -0.0507,0.084 -0.0507,0.046 -0.187,0.13946 -0.187,0.12836 0,-0.0444 0.0507,-0.11885 0.12202,-0.1759 0.0998,-0.0824 0.11569,-0.0872 0.11569,-0.0365 z m 0.002,0.19809 c -0.0396,0.0777 -0.0681,0.10935 -0.1553,0.16957002 -0.13628,0.0967 -0.28366,0.17749 -0.29792,0.16322 -0.0222,-0.0222 0.0792,-0.14579 0.20284,-0.24404002 0.12519,-0.0998 0.28049,-0.20126 0.29317,-0.19017 0.003,0.003 -0.0159,0.0491 -0.0428,0.10142 z m -7.03298,0.94132002 c 0.0285,0.0206 0.0586,0.16006 0.0586,0.26624 v 0.0555 l -0.038,-0.0475 c -0.0507,-0.0634 -0.0983,-0.29317 -0.0602,-0.29317 0.008,0 0.0254,0.01 0.0396,0.019 z m 0.16165,0.0951 0.0618,0.0983 0.006,0.22028 c 0.008,0.24563 -0.006,0.29317 -0.0571,0.19175 -0.0174,-0.0349 -0.0396,-0.10142 -0.0491,-0.14897 -0.0206,-0.0919 -0.0444,-0.45956 -0.0301,-0.45956 0.005,0 0.0349,0.0444 0.0682,0.0982 z m 5.56394,0.12994 c -0.11727,0.12995 -0.21552,0.19493 -0.21552,0.14263 0,-0.0111 0.005,-0.0222 0.0127,-0.0222 0.006,0 0.0571,-0.0523 0.11093,-0.11727 0.065,-0.0761 0.11727,-0.12202 0.15055,-0.13153 0.0285,-0.008 0.0539,-0.0127 0.0571,-0.0111 0.003,0.003 -0.0491,0.065 -0.11569,0.13945 z m 0.25514,-0.0919 c 0.0159,0.0238 0.0444,0.0586 0.065,0.0808 0.038,0.0412 0.0428,0.0634 0.0206,0.0983 -0.0127,0.019 -0.0238,0.0159 -0.0697,-0.019 l -0.0555,-0.0412 0.0254,0.0792 0.0254,0.0792 -0.103,0.103 c -0.0777,0.0777 -0.11727,0.10459 -0.16164,0.11252 l -0.0586,0.01 v -0.0792 c 0,-0.0428 -0.008,-0.0856 -0.0174,-0.0951 -0.0127,-0.0127 -0.0127,-0.0254 0.003,-0.0475 0.0444,-0.0618 0.27574,-0.3217 0.28683,-0.3217 0.006,0 0.0238,0.019 0.0396,0.0412 z m -6.14237,0.057 c 0.12044,0.0412 0.22345,0.1553 0.24088,0.27099 l 0.01,0.0602 -0.152129,-0.13946 c -0.2076,-0.19175 -0.23137,-0.23771 -0.0983,-0.19175 z m 6.33729,0.0983 c 0,0.0206 -0.0111,0.0428 -0.0254,0.0476 -0.0127,0.005 -0.0206,0.0158 -0.0159,0.0222 0.005,0.006 -0.01,0.0333 -0.0317,0.0602 l -0.038,0.046 0.01,-0.0475 c 0.0238,-0.12837 0.10142,-0.22503 0.10142,-0.12837 z m 4.16464,0.12361 c -0.04754,0.0919 -0.06656,0.10935 -0.22503,0.21394 -0.161642,0.10934 -0.231369,0.13787 -0.231369,0.0998 0,-0.01 0.02377,-0.0301 0.05071,-0.0444 0.02852,-0.0143 0.131532,-0.103 0.228199,-0.19809 0.209183,-0.19967 0.256725,-0.21869 0.177489,-0.0713 z m -4.92372,0.17907 c -0.10776,0.12678 -0.14579,0.15531 -0.16798,0.11886 -0.0222,-0.0349 0.24246,-0.28525 0.27574,-0.2599 0.003,0.003 -0.046,0.0666 -0.10776,0.14104 z m 0.58952,-0.103 c 0.005,0.0174 0,0.0317 -0.01,0.0317 -0.0127,0 -0.0111,0.006 0.002,0.019 0.0349,0.0349 0.0206,0.0444 -0.0602,0.0444 -0.0428,0 -0.0792,-0.003 -0.0792,-0.008 0,-0.0111 0.11727,-0.11727 0.12836,-0.11886 0.006,0 0.0143,0.0143 0.019,0.0317 z m -0.47384,0.12994 c -0.008,0.0412 -0.0206,0.0602 -0.0428,0.0666 -0.0634,0.0159 -0.0682,-0.019 -0.0111,-0.0776 0.0285,-0.0301 0.0555,-0.0523 0.0586,-0.0507 0.002,0.003 0,0.0301 -0.005,0.0618 z m 0.59744,0.0967 c -0.0127,0.0127 -0.0222,0.0111 -0.0364,-0.003 -0.0174,-0.0158 -0.0143,-0.0238 0.0111,-0.0428 0.0285,-0.0206 0.0317,-0.0206 0.0365,0.003 0.003,0.0143 -0.002,0.0333 -0.0111,0.0428 z m -0.6735,0.0666 c -0.0222,0.0856 -0.0412,0.11885 -0.0872,0.14263 -0.0634,0.0317 -0.10776,0.0301 -0.12678,-0.005 -0.0127,-0.0238 -0.003,-0.0444 0.0507,-0.10301 0.0539,-0.0586 0.0776,-0.0729 0.12044,-0.0745 0.0475,0 0.0523,0.003 0.0428,0.0396 z m -0.48809,0.0761 c 0.0143,0.0158 0.005,0.0254 -0.038,0.0412 -0.0697,0.0254 -0.0903,0.01 -0.038,-0.0301 0.0475,-0.0364 0.0539,-0.038 0.0761,-0.0111 z m 0.49918,0.1141 c -0.005,0.0143 -0.0127,0.0222 -0.0159,0.0174 -0.005,-0.005 -0.003,-0.0143 0.003,-0.0238 0.0143,-0.0254 0.0238,-0.0206 0.0127,0.006 z m 0.0111,0.21393 c 0,0.008 -0.008,0.0159 -0.0174,0.0159 -0.008,0 -0.0111,-0.008 -0.006,-0.0159 0.005,-0.01 0.0127,-0.0158 0.0174,-0.0158 0.003,0 0.006,0.006 0.006,0.0158 z m -4.6448,0.34706 c 0.0111,0.0317 0.0238,0.0666 0.0285,0.0792 0.0159,0.0396 -0.0586,-0.0222 -0.0967,-0.0808 -0.0444,-0.065 -0.038,-0.0967 0.0127,-0.0729 0.0222,0.01 0.046,0.0412 0.0555,0.0745 z m 8.446544,0.0254 c 0.06022,0.10459 0.0618,0.12044 0.0095,0.0713 -0.04754,-0.0444 -0.04754,-0.0428 -0.01426,0.0555 l 0.02694,0.0761 -0.11093,0.10934 c -0.09033,0.0856 -0.122023,0.10776 -0.161641,0.10776 -0.04754,0 -0.04913,-0.002 -0.04913,-0.0697 0,-0.0903 0.07131,-0.24564 0.160056,-0.3534 0.03803,-0.0444 0.07448,-0.0824 0.08082,-0.0824 0.0048,-0.002 0.03169,0.038 0.05864,0.0856 z m -8.053534,0.006 c 0.0285,0.0222 0.0523,0.0523 0.0523,0.0666 0,0.046 0.0444,0.0856 0.12203,0.10459 l 0.0761,0.019 -0.0681,-0.006 -0.0697,-0.005 0.01,0.0539 c 0.0127,0.0618 -0.0222,0.12677 -0.0745,0.14262 -0.019,0.005 -0.0571,0.0269 -0.0856,0.0475 -0.0269,0.0206 -0.0539,0.038 -0.0571,0.038 -0.003,0 -0.0111,-0.0254 -0.0158,-0.0571 -0.008,-0.0444 -0.002,-0.0697 0.0238,-0.10617 0.0333,-0.046 0.0333,-0.0475 0.005,-0.0681 -0.0159,-0.0127 -0.038,-0.0222 -0.0491,-0.0222 -0.0111,0 -0.0238,-0.0349 -0.0285,-0.0856 -0.008,-0.0634 -0.005,-0.0982 0.0159,-0.14104 0.0301,-0.0634 0.0428,-0.0618 0.14421,0.019 z m -0.49444,-0.0143 c 0.0349,0.038 0.0317,0.0412 -0.0491,0.0697 l -0.0618,0.0206 0.0634,0.019 c 0.0349,0.01 0.0713,0.0174 0.0824,0.0174 0.0111,0 0.0269,0.0301 0.0365,0.0666 0.01,0.038 0.0238,0.0935 0.0333,0.12361 0.0206,0.0792 0.0174,0.13153 -0.008,0.16798 -0.0238,0.0301 -0.0238,0.0301 -0.0935,-0.006 -0.038,-0.0206 -0.0792,-0.0349 -0.0903,-0.0317 -0.0127,0.003 -0.0428,-0.0681 -0.0887,-0.20918 -0.038,-0.11727 -0.0697,-0.21869 -0.0697,-0.22662 0,-0.006 0.038,-0.0111 0.0856,-0.0111 0.0475,0 0.0919,-0.008 0.0967,-0.0159 0.0143,-0.0238 0.0317,-0.019 0.0634,0.0159 z m 3.11873,0.0618 c -0.006,0.0428 0,0.0729 0.019,0.10301 0.0333,0.0507 0.0253,0.0634 -0.0365,0.0491 -0.0428,-0.008 -0.0475,-0.0159 -0.046,-0.0666 0.002,-0.038 -0.008,-0.0602 -0.0285,-0.0713 -0.0269,-0.0159 -0.0238,-0.019 0.0254,-0.046 0.0745,-0.0396 0.0761,-0.038 0.0666,0.0317 z m 2.95233,0.003 c 0.005,0.01 0.0301,0.0143 0.0555,0.0111 0.0428,-0.006 0.0476,-0.002 0.0634,0.057 l 0.0174,0.065 -0.11568,0.10617 c -0.065,0.0586 -0.12044,0.10618 -0.12519,0.10777 -0.005,0 -0.0238,-0.0254 -0.0444,-0.0555 l -0.0349,-0.0555 0.0539,-0.0475 c 0.038,-0.0349 0.0602,-0.0713 0.0729,-0.12677 0.019,-0.0777 0.0349,-0.0967 0.0571,-0.0618 z m -6.30242,0.21552 c 0.0269,0.0888 0.046,0.16957 0.0428,0.18225 -0.0253,0.0856 -0.0285,0.0824 -0.0824,-0.0824 -0.0396,-0.12361 -0.0523,-0.18224 -0.0444,-0.22661 0.005,-0.0349 0.0158,-0.0555 0.0222,-0.0475 0.006,0.006 0.0349,0.0856 0.0618,0.17432 z m 7.509974,-0.15688 c 0.01426,0.0111 0.01585,0.0254 0.0016,0.065 l -0.01743,0.0507 -0.03486,-0.0317 c -0.0523,-0.0491 -0.104592,-0.0539 -0.190166,-0.019 -0.109346,0.0475 -0.109346,0.0396 -0.0016,-0.0222 0.09508,-0.0539 0.194921,-0.0713 0.242462,-0.0428 z m -7.075764,0.0666 c 0.008,0.006 -0.006,0.0428 -0.0301,0.0808 -0.0491,0.0777 -0.0491,0.0777 -0.0761,-0.0682 l -0.0111,-0.0586 0.0523,0.0174 c 0.0285,0.01 0.0586,0.0222 0.065,0.0285 z m 8.498841,-0.0143 c 0.0048,0.01 -0.0063,0.0333 -0.02536,0.0523 -0.03169,0.0285 -0.03486,0.0301 -0.02536,0.005 0.0048,-0.0159 0.0095,-0.0396 0.0095,-0.0523 0,-0.0269 0.02536,-0.0301 0.0412,-0.005 z m -1.863628,0.14104 c -0.0095,0.0301 -0.03011,0.0761 -0.04754,0.10301 l -0.03169,0.0475 v -0.0444 c 0,-0.0238 -0.0063,-0.0428 -0.01585,-0.0428 -0.0079,0 -0.01585,-0.0174 -0.01585,-0.038 0,-0.0254 0.01743,-0.0491 0.05071,-0.0713 0.06339,-0.0396 0.08082,-0.0254 0.06022,0.046 z m 1.743189,-0.0491 c 0,0.008 0.0048,0.0364 0.0095,0.0634 l 0.01109,0.0491 h -0.08558 -0.08399 l 0.0618,-0.0634 c 0.06022,-0.0618 0.08716,-0.0777 0.08716,-0.0491 z m -1.440509,0.11885 c -0.01585,0.0285 -0.03328,0.038 -0.07448,0.0365 l -0.05388,-0.002 0.03169,-0.0539 c 0.01743,-0.0285 0.03169,-0.065 0.03169,-0.0792 0,-0.0206 0.0095,-0.0174 0.04279,0.0158 0.03803,0.0396 0.0412,0.0476 0.02219,0.0824 z m -0.223444,0.0555 c 0,0.0254 -0.05071,0.0349 -0.07607,0.0143 -0.0206,-0.0174 -0.02219,-0.0159 -0.01268,0.0127 0.0063,0.0222 -0.0016,0.0428 -0.03011,0.0697 -0.05546,0.0523 -0.05071,0.0127 0.0095,-0.0887 0.04913,-0.0792 0.05071,-0.0808 0.07924,-0.0523 0.01743,0.0174 0.03011,0.0364 0.03011,0.0444 z m 1.979312,0.0444 c -0.0048,0.0681 -0.01585,0.10459 -0.04279,0.13787 -0.03645,0.0459 -0.03803,0.0729 -0.01109,0.16005 0.0048,0.0174 -0.0032,0.008 -0.01902,-0.0206 l -0.03011,-0.0523 -0.03803,0.0412 c -0.0206,0.0222 -0.04913,0.0396 -0.0618,0.0396 -0.0206,0 -0.202845,-0.0824 -0.239293,-0.10776 -0.0048,-0.003 0.01268,-0.0238 0.03645,-0.0444 0.03169,-0.0269 0.06339,-0.038 0.109345,-0.038 0.06339,0 0.06339,0 0.05388,-0.0523 -0.0095,-0.0476 -0.0032,-0.057 0.05705,-0.10301 0.04754,-0.0365 0.08241,-0.0507 0.128362,-0.0507 h 0.0618 z m -1.630675,-0.0317 c 0,0.0206 -0.0048,0.0206 -0.02377,0.005 -0.01268,-0.0111 -0.01902,-0.0254 -0.01426,-0.0333 0.01268,-0.0206 0.03803,-0.002 0.03803,0.0285 z m 0.131532,0.065 c 0.02853,0.0301 0.03962,0.0555 0.03328,0.0713 -0.01268,0.0365 -0.0206,0.0349 -0.07924,-0.0222 -0.04913,-0.0475 -0.05705,-0.0935 -0.01585,-0.0935 0.01109,0 0.03803,0.0206 0.0618,0.0444 z m -7.419648,0.39618 c 0.0428,0.14579 0.0491,0.22503 0.0174,0.22503 -0.0143,0 -0.16164,-0.48651 -0.16164,-0.53247 0,-0.11568 0.0571,0.006 0.14421,0.30744 z m 1.94762,-0.30427 0.0317,0.0475 -0.046,0.0444 -0.0444,0.0428 -0.019,-0.0729 c -0.0143,-0.0571 -0.0143,-0.0792 0,-0.0967 0.0254,-0.0301 0.0412,-0.0238 0.0777,0.0349 z m -1.89374,0.0998 c -0.0159,0.0523 -0.0412,0.0333 -0.065,-0.0475 -0.0127,-0.038 -0.0222,-0.0729 -0.0222,-0.0777 0,-0.003 0.0222,0.0143 0.0491,0.0412 0.038,0.038 0.046,0.0586 0.038,0.084 z m 0.6941,-0.0713 c 0.0238,0.019 0.0269,0.0365 0.0174,0.12678 -0.006,0.0571 -0.0159,0.10459 -0.0206,0.10459 -0.006,0 -0.0349,-0.0475 -0.0634,-0.10617 -0.0491,-0.0998 -0.0507,-0.10776 -0.0238,-0.12678 0.0349,-0.0254 0.0539,-0.0254 0.0903,0.002 z m -0.0998,0.13154 c 0.0729,0.13945 0.0729,0.13787 0.0269,0.10934 -0.0444,-0.0301 -0.15689,-0.19175 -0.14263,-0.20601 0.0301,-0.0301 0.065,0 0.11569,0.0967 z m 7.563856,-0.0476 c 0.0048,0.0254 0.01268,0.0555 0.01902,0.0697 0.0063,0.019 -0.0063,0.0364 -0.04437,0.0602 -0.09667,0.0586 -0.117269,0.0349 -0.07924,-0.0919 0.01902,-0.0666 0.02853,-0.0808 0.06022,-0.0808 0.02694,0 0.03803,0.0111 0.04437,0.0428 z m -7.909326,-0.008 c 0.003,0.01 0.003,0.038 0,0.0634 -0.006,0.0428 -0.008,0.0444 -0.0285,0.0159 -0.0111,-0.0159 -0.0158,-0.046 -0.0111,-0.0634 0.01,-0.038 0.0301,-0.046 0.0396,-0.0159 z m 0.23612,0.0475 c 0.019,0.0285 0.0602,0.0777 0.0888,0.10935 0.0364,0.038 0.0491,0.0618 0.038,0.0697 -0.0111,0.006 -0.0317,-0.006 -0.0475,-0.0269 -0.0174,-0.019 -0.0555,-0.0682 -0.0872,-0.10777 -0.0317,-0.0396 -0.0571,-0.0761 -0.0571,-0.084 0,-0.0269 0.0317,-0.008 0.065,0.0396 z m 0.32011,-0.008 c 0.0285,0.0333 0.0777,0.21394 0.0618,0.22978 -0.006,0.005 -0.0301,0.0159 -0.0539,0.0206 l -0.0444,0.0111 v -0.11886 c 0,-0.065 -0.005,-0.12994 -0.01,-0.14421 -0.0127,-0.0333 0.0143,-0.0317 0.046,0.002 z m -0.70361,0.0618 c 0.0428,0.0475 0.0507,0.0681 0.046,0.12203 -0.003,0.0523 -0.0143,0.0697 -0.0475,0.0887 -0.0238,0.0143 -0.0476,0.0206 -0.0523,0.0159 -0.005,-0.006 -0.0206,-0.0507 -0.0349,-0.0983 -0.0206,-0.0745 -0.0206,-0.0983 -0.005,-0.13788 0.0111,-0.0254 0.0254,-0.0475 0.0317,-0.0475 0.006,0 0.0349,0.0254 0.0618,0.0571 z m 1.66395,0.005 c 0.019,0.0127 0.019,0.0254 -0.003,0.084 -0.0143,0.038 -0.027,0.103 -0.027,0.14421 0,0.0745 0,0.0745 -0.0539,0.0745 h -0.0555 l 0.0285,-0.084 c 0.0159,-0.0444 0.0333,-0.11569 0.0396,-0.15847 0.0111,-0.0729 0.0269,-0.0872 0.0713,-0.0602 z m -0.14104,0.17749 c -0.0317,0.10617 -0.0491,0.12836 -0.0729,0.0919 -0.006,-0.01 -0.0301,-0.0143 -0.057,-0.008 l -0.046,0.01 0.005,-0.0919 c 0.002,-0.0491 -0.002,-0.10618 -0.008,-0.12678 -0.0143,-0.0396 0.003,-0.0444 0.10301,-0.0206 0.046,0.0111 0.0634,0.008 0.0792,-0.0111 0.0365,-0.0428 0.0349,0.0349 -0.003,0.15689 z m 6.620957,-0.11727 c -0.0032,0.019 -0.02219,0.0301 -0.06022,0.0333 l -0.05546,0.005 0.03962,-0.0333 c 0.04913,-0.038 0.08399,-0.0412 0.07607,-0.005 z m 0.09033,0.0206 c 0.0079,0.0143 -0.112515,0.23771 -0.128362,0.23771 -0.0032,0 -0.0063,-0.0222 -0.0063,-0.0476 0,-0.0317 0.01426,-0.0618 0.0412,-0.0872 0.02219,-0.0206 0.03803,-0.046 0.03645,-0.0586 -0.0048,-0.0412 0.0016,-0.0602 0.02377,-0.0602 0.01268,0 0.02853,0.006 0.03328,0.0159 z m 0.08082,0.0697 c 0.02377,0.0174 0.03169,0.0364 0.02536,0.0681 -0.0048,0.0364 -0.02377,0.0523 -0.103008,0.0887 -0.05229,0.0238 -0.09825,0.0396 -0.101421,0.0364 -0.0079,-0.008 0.125193,-0.21394 0.137871,-0.21552 0.0048,0 0.02377,0.01 0.0412,0.0222 z m -0.23137,0.065 c 0,0.0222 -0.0063,0.0396 -0.01585,0.0396 -0.0079,0 -0.01585,-0.0174 -0.01585,-0.0396 0,-0.0222 0.0079,-0.0396 0.01585,-0.0396 0.0095,0 0.01585,0.0174 0.01585,0.0396 z m 0.213937,0.14896 c -0.0048,0.01 -0.02219,0.0174 -0.03645,0.0174 -0.02377,-0.002 -0.02377,-0.003 0.0032,-0.0238 0.03328,-0.0254 0.05071,-0.0206 0.03328,0.006 z m -0.01426,0.0682 c -0.0048,0.0206 -0.0095,0.0555 -0.0095,0.0792 0,0.0396 -0.0063,0.0444 -0.05547,0.0444 -0.04437,0 -0.05705,-0.006 -0.06339,-0.0365 -0.01902,-0.0935 -0.01743,-0.0982 0.03962,-0.10776 0.09667,-0.0174 0.09984,-0.0174 0.08874,0.0206 z m -8.471904,-0.008 c -0.002,0.0317 -0.0285,0.0507 -0.0602,0.0412 -0.0412,-0.01 -0.046,-0.0317 -0.006,-0.0412 0.0444,-0.0127 0.0666,-0.0111 0.0666,0 z m -0.23771,0.0888 c 0,0.0269 -0.0365,0.0475 -0.11885,0.0681 -0.0475,0.0127 -0.0507,-0.008 -0.008,-0.0618 0.0396,-0.0491 0.12678,-0.0539 0.12678,-0.006 z m 2.71938,0.0697 c -0.0174,0.0174 -0.0269,-0.006 -0.0143,-0.0364 0.0111,-0.0285 0.0127,-0.0285 0.0174,-0.002 0.003,0.0159 0.002,0.0333 -0.003,0.038 z m 7.704899,-0.0143 c 0.02694,0.003 0.05071,0.0127 0.05071,0.0206 0,0.0206 -0.06973,0.0174 -0.118854,-0.005 -0.04437,-0.019 -0.05546,-0.0555 -0.01109,-0.0365 0.01426,0.008 0.05071,0.0159 0.07923,0.0206 z m -10.665159,0.046 c 0.008,0.0174 0.008,0.0507 0,0.084 l -0.0158,0.0555 -0.0285,-0.0396 c -0.0174,-0.0222 -0.0412,-0.0523 -0.0539,-0.0666 -0.0206,-0.0238 -0.019,-0.0285 0.019,-0.0428 0.0602,-0.0206 0.0634,-0.0206 0.0792,0.01 z m 10.633465,0.0174 c 0.0048,0.0174 -0.0729,0.0586 -0.08716,0.0444 -0.0032,-0.003 -0.0016,-0.0238 0.0032,-0.0459 0.0095,-0.0333 0.01743,-0.038 0.04437,-0.0285 0.01743,0.006 0.03645,0.0206 0.03962,0.0301 z m 0.505525,0.038 c -0.05071,0.13629 -0.06339,0.20443 -0.04596,0.26148 0.01743,0.0571 0.01426,0.0697 -0.07131,0.26307 -0.106177,0.23612 -0.128363,0.2488 -0.155303,0.0887 -0.0095,-0.057 -0.02853,-0.12202 -0.04437,-0.14579 -0.02219,-0.0333 -0.02694,-0.0777 -0.02694,-0.22028 v -0.17907 l 0.07607,-0.0412 c 0.05705,-0.0317 0.09825,-0.0428 0.175904,-0.0444 0.07448,-0.002 0.09825,0.003 0.09191,0.0174 z m -8.32928,0.0586 c -0.0396,0.0555 -0.0412,0.0777 -0.008,0.1141 0.019,0.0222 0.0238,0.046 0.0158,0.0967 -0.0174,0.11251 -0.0269,0.11885 -0.11093,0.0697 l -0.0745,-0.0428 0.005,-0.10618 0.005,-0.10459 0.0872,-0.0349 c 0.1141,-0.0475 0.11885,-0.046 0.0808,0.008 z m 7.929931,0.13153 c 0.01268,0.0444 0.02377,0.11093 0.02377,0.14579 v 0.0634 l -0.04754,-0.046 c -0.05705,-0.0539 -0.05705,-0.0523 -0.01268,0.0634 l 0.03328,0.0903 -0.03486,0.10776 -0.03486,0.10935 -0.07448,0.0159 c -0.06339,0.0127 -0.07924,0.0111 -0.103008,-0.0127 -0.02694,-0.0269 -0.02694,-0.0285 0.0079,-0.046 0.0206,-0.0111 0.04913,-0.0507 0.06497,-0.0887 0.02694,-0.065 0.02694,-0.0681 -0.0079,-0.15372 -0.01902,-0.0475 -0.04437,-0.0951 -0.05546,-0.10618 -0.01268,-0.0127 -0.01743,-0.038 -0.01109,-0.0634 0.01268,-0.0523 0.0016,-0.038 0.08557,-0.1046 0.103007,-0.0808 0.136285,-0.0761 0.166395,0.0254 z m -10.780841,0.0539 c 0.002,0.0491 0,0.0967 -0.006,0.10618 -0.005,0.008 -0.0317,-0.0285 -0.0602,-0.0824 -0.0269,-0.0555 -0.0428,-0.0951 -0.0333,-0.0887 0.01,0.005 0.0301,0.002 0.0444,-0.006 0.0459,-0.0269 0.0491,-0.0222 0.0555,0.0713 z m 2.57517,0.0317 c -0.003,0.005 -0.0222,0.002 -0.0396,-0.005 l -0.0333,-0.0127 0.0349,-0.0555 0.0349,-0.0555 0.005,0.0618 c 0.003,0.0333 0.002,0.0634 -0.002,0.0666 z m 4.868255,0.0269 c -0.01902,0.0682 -0.03486,0.0808 -0.07448,0.0602 -0.02219,-0.0111 -0.02852,-0.0285 -0.02219,-0.0634 0.0048,-0.0396 0.01426,-0.0475 0.05705,-0.0523 0.02694,-0.003 0.05071,-0.005 0.0523,-0.005 0.0016,0.002 -0.0032,0.0285 -0.01268,0.0602 z m 3.85562,0.18225 c -0.01743,0.0317 -0.0412,0.084 -0.0523,0.11251 -0.02377,0.065 -0.213937,0.27099 -0.247216,0.27099 -0.03803,0 -0.01743,-0.0634 0.09667,-0.30427 0.09191,-0.19333 0.109346,-0.22027 0.163226,-0.24721 l 0.06022,-0.0317 0.0048,0.0697 c 0.0032,0.0475 -0.0048,0.0903 -0.02536,0.12995 z m -1.408816,-0.10776 c 0.0079,0.0301 -0.05071,0.0951 -0.08716,0.0951 -0.03803,0 -0.03011,-0.0539 0.01268,-0.0887 0.05705,-0.046 0.06339,-0.046 0.07448,-0.006 z m -6.953749,0.0792 c 0.0174,0.0269 0.0586,0.0666 0.0903,0.0887 0.0634,0.0444 0.065,0.0697 0.005,0.0697 -0.0301,0 -0.0507,-0.0206 -0.0951,-0.0967 -0.0301,-0.0523 -0.0555,-0.0983 -0.0555,-0.10301 0,-0.0206 0.0285,0 0.0555,0.0412 z m -0.69886,0.0396 c -0.006,0.0127 -0.0158,0.0238 -0.0238,0.0238 -0.008,0 -0.0143,-0.0111 -0.0143,-0.0238 0,-0.0127 0.0111,-0.0238 0.0238,-0.0238 0.0143,0 0.019,0.01 0.0143,0.0238 z m 5.342091,0.0586 c -0.02219,0.0982 -0.02219,0.30426 0,0.393 0.02219,0.0824 0.0206,0.0888 -0.01268,0.13788 -0.04279,0.0634 -0.08399,0.0745 -0.136286,0.0364 -0.02377,-0.0158 -0.06814,-0.0333 -0.09984,-0.0396 l -0.05705,-0.0111 0.04595,-0.10459 c 0.08716,-0.19333 0.131531,-0.27257 0.153717,-0.27257 0.01426,0 0.01902,-0.01 0.01268,-0.0254 -0.0079,-0.0222 0.02219,-0.0998 0.05705,-0.14579 0.03011,-0.0365 0.04913,-0.0206 0.03645,0.0317 z m 3.972889,-0.0317 c -0.01109,0.0111 -0.01902,0.0301 -0.01902,0.046 0,0.0174 -0.04596,0.046 -0.137871,0.0887 -0.07765,0.0365 -0.142624,0.0618 -0.145794,0.0586 -0.01743,-0.0159 0.11093,-0.13154 0.186997,-0.16798 0.09825,-0.046 0.147379,-0.0571 0.115685,-0.0254 z m -0.702031,0.17432 c 0.0016,0.008 -0.01902,0.0127 -0.04596,0.0127 -0.05388,0 -0.05863,-0.0127 -0.0206,-0.084 l 0.02536,-0.0507 0.0206,0.0555 c 0.01109,0.0301 0.0206,0.0602 0.0206,0.0666 z m -8.644639,-0.0269 c -0.01,0.0254 -0.038,0.0333 -0.038,0.0111 0,-0.0174 0.0174,-0.0349 0.0333,-0.0349 0.008,0 0.01,0.0111 0.005,0.0238 z m 5.080608,0.0174 c 0,0.005 -0.0095,0.0285 -0.02218,0.0507 -0.0127,0.0238 -0.0475,0.0983 -0.0777,0.16481 l -0.0571,0.12203 -0.10776,-0.01 c -0.0713,-0.006 -0.12203,-0.0206 -0.15055,-0.0428 -0.0777,-0.0555 -0.0792,-0.0523 0.23929,-0.21711 0.14738,-0.0761 0.175903,-0.0872 0.175903,-0.0681 z m -4.139288,0.057 c 0.006,0.0333 -0.0428,0.0396 -0.0729,0.01 -0.0317,-0.0317 -0.0222,-0.0475 0.0238,-0.0412 0.027,0.003 0.046,0.0158 0.0491,0.0317 z m 8.212014,0.1141 c 0,0.0808 0.02377,0.12995 0.07765,0.16164 0.05705,0.0333 0.06339,0.0539 0.01743,0.0539 -0.01585,0 -0.04437,0.0159 -0.0618,0.0349 -0.03011,0.0301 -0.0412,0.0333 -0.123608,0.019 -0.08558,-0.0127 -0.09191,-0.0174 -0.08716,-0.0539 0.0048,-0.0507 -0.0095,-0.0713 -0.06814,-0.0903 -0.06656,-0.0222 -0.06022,-0.0555 0.02377,-0.12202 0.05863,-0.0444 0.08558,-0.0555 0.147378,-0.0555 l 0.07448,-0.002 z m -8.963174,0.0602 c 0.008,0.0333 0.005,0.0444 -0.0127,0.0444 -0.0301,0 -0.046,-0.0475 -0.0238,-0.0745 0.0222,-0.0254 0.0222,-0.0254 0.0364,0.0301 z m -1.10137,0.0539 c 0.003,0.003 0.002,0.0222 -0.005,0.0444 -0.01,0.0365 -0.0143,0.038 -0.0523,0.0238 -0.0222,-0.008 -0.0618,-0.0111 -0.0872,-0.005 -0.0254,0.005 -0.0682,0 -0.0935,-0.01 -0.0507,-0.0222 -0.0491,-0.019 -0.0365,-0.0539 0.008,-0.0206 0.0301,-0.0222 0.13787,-0.0143 0.0713,0.005 0.13312,0.0111 0.13629,0.0143 z m -0.55149,0.15213 c 0.0713,-0.002 0.1347,-0.008 0.14263,-0.0127 0.008,-0.005 0.0143,0 0.0143,0.008 0,0.01 -0.008,0.0174 -0.0159,0.0174 -0.01,0 -0.0412,0.0523 -0.0713,0.1141 -0.0317,0.0634 -0.0523,0.10301 -0.0475,0.0872 0.008,-0.0301 -0.0111,-0.0349 -0.0571,-0.0111 -0.0269,0.0158 -0.0285,0.0143 -0.0111,-0.0254 0.0174,-0.0365 0.0143,-0.0444 -0.019,-0.0713 -0.0555,-0.0444 -0.11093,-0.065 -0.14421,-0.0539 -0.0238,0.008 -0.0301,0.002 -0.0301,-0.0301 0,-0.0792 0.0143,-0.0903 0.065,-0.0539 0.0396,0.0285 0.065,0.0333 0.17432,0.0317 z m 1.71784,-0.0349 c 0.005,0.008 0.002,0.0159 -0.006,0.0159 -0.01,0 -0.0174,-0.008 -0.0174,-0.0159 0,-0.01 0.003,-0.0159 0.006,-0.0159 0.005,0 0.0127,0.006 0.0174,0.0159 z m 0.0792,0.11251 c -0.005,0.0127 -0.0222,0.0317 -0.0396,0.0428 -0.0269,0.0159 -0.0317,0.0127 -0.0412,-0.038 -0.008,-0.0412 -0.005,-0.0618 0.0111,-0.0713 0.0285,-0.0174 0.0824,0.0349 0.0697,0.0666 z m -0.1141,0.46908 c 0.0317,0.0206 0.0586,0.0396 0.0586,0.0428 0,0.003 -0.19809,-0.038 -0.21552,-0.0444 -0.002,-0.002 -0.008,-0.0254 -0.0143,-0.0555 l -0.0111,-0.0539 0.0602,0.0365 c 0.0349,0.0206 0.0888,0.0539 0.12202,0.0745 z m -0.0158,0.0507 c 0.0238,0.01 0.019,0.019 -0.0349,0.0618 -0.0349,0.0269 -0.0665,0.0697 -0.0713,0.0935 -0.01,0.0396 -0.019,0.0444 -0.0729,0.0476 -0.0349,0 -0.0634,-0.003 -0.0634,-0.0111 0,-0.006 0.0174,-0.038 0.0396,-0.0713 0.0222,-0.0317 0.046,-0.0792 0.0507,-0.10459 0.008,-0.0444 0.0127,-0.046 0.0666,-0.0365 0.0317,0.006 0.0697,0.0159 0.0856,0.0206 z m 9.543173,0.10618 c 0.0523,0.0254 0.09825,0.0475 0.09984,0.0491 0.0032,0.002 0.0016,0.0174 -0.0048,0.0349 -0.0079,0.0254 -0.02377,0.0333 -0.06339,0.0333 -0.02852,0 -0.06339,-0.005 -0.07765,-0.01 -0.0206,-0.008 -0.09825,-0.10459 -0.142626,-0.17749 -0.01426,-0.0238 0.02219,-0.01 0.188583,0.0697 z m -10.367233,0.187 c -0.0253,0.0301 -0.0507,0.0475 -0.0586,0.0396 -0.01,-0.008 -0.0365,0.005 -0.0634,0.0301 -0.0444,0.0396 -0.0428,0.0365 0.006,-0.0222 0.0491,-0.0571 0.10459,-0.0935 0.14738,-0.0998 0.008,-0.002 -0.006,0.0222 -0.0317,0.0523 z m 0.20126,0.0539 c 0.0602,0.0713 0.0238,0.12677 -0.0412,0.065 -0.0428,-0.0396 -0.0475,-0.0285 -0.0206,0.0475 0.0158,0.0428 0.0143,0.0571 -0.006,0.0777 -0.0238,0.0222 -0.0285,0.0206 -0.0571,-0.0143 -0.0174,-0.0206 -0.0444,-0.0602 -0.0586,-0.0888 l -0.0285,-0.0507 0.0634,-0.0697 0.0618,-0.0697 0.0285,0.0333 c 0.0143,0.0174 0.0412,0.0507 0.0586,0.0697 z m 0.11093,0.0697 c -0.002,0.0317 -0.065,0.12361 -0.0856,0.12361 -0.003,0 -0.002,-0.0206 0.006,-0.046 0.0285,-0.10142 0.0792,-0.15213 0.0792,-0.0776 z m -0.12836,0.21869 c 0,0.0159 -0.01,0.0111 -0.0301,-0.0143 -0.0269,-0.0301 -0.0285,-0.0412 -0.0127,-0.0618 0.0174,-0.0206 0.0222,-0.0174 0.0301,0.0143 0.006,0.0206 0.0111,0.0491 0.0127,0.0618 z m -1.18695,-0.01 c 0,0.0301 -0.0349,0.0571 -0.0745,0.0571 -0.0428,0 -0.0444,-0.005 -0.0111,-0.0555 0.0143,-0.0206 0.0206,-0.046 0.0143,-0.0571 -0.006,-0.01 0.006,-0.005 0.0301,0.01 0.0222,0.0159 0.0412,0.0365 0.0412,0.046 z m -0.19968,0.0523 c 0.0285,0.0159 0.0285,0.0174 -0.008,0.0365 -0.0206,0.0111 -0.0571,0.038 -0.0808,0.0602 -0.0254,0.0222 -0.0444,0.0349 -0.0444,0.0285 0,-0.0254 0.0872,-0.16639 0.0951,-0.15371 0.005,0.006 0.0222,0.019 0.038,0.0285 z m 10.215099,0.0127 c -0.05388,0.0571 -0.115684,0.0777 -0.161641,0.0539 -0.01902,-0.0111 -0.0412,-0.019 -0.04754,-0.0174 -0.01902,0.005 -0.01585,-0.0254 0.0032,-0.0365 0.02536,-0.0159 0.212351,-0.0523 0.226615,-0.0444 0.0079,0.005 -0.0016,0.0254 -0.0206,0.0444 z m -9.365689,-0.0127 c 0,0.0317 -0.1759,0.2266201 -0.20443,0.2266201 -0.0333,0 -0.0174,-0.0301 0.0824,-0.1394601 0.10459,-0.11885 0.12202,-0.12995 0.12202,-0.0872 z m 0.78285,0.0634 c -0.006,0.0428 -0.0254,0.0935 -0.0412,0.11727 -0.0254,0.0333 -0.0269,0.0475 -0.0127,0.084 0.01,0.0254 0.0143,0.0491 0.01,0.0523 -0.003,0.005 -0.0111,-0.008 -0.0174,-0.0269 -0.006,-0.019 -0.019,-0.0301 -0.0301,-0.0269 -0.0127,0.005 -0.0396,-0.0317 -0.0697,-0.0919 l -0.0491,-0.0998 0.0507,-0.0412 c 0.0333,-0.0254 0.0713,-0.0396 0.11093,-0.0412 h 0.0602 z m -1.27411,-0.0365 c 0,0.0111 0.0396,0.0586 0.0887,0.10459 0.0475,0.046 0.0856,0.084 0.0824,0.0856 -0.003,0.002 -0.0238,0.0111 -0.0475,0.0206 -0.038,0.0174 -0.0428,0.0143 -0.0602,-0.0269 -0.0111,-0.0254 -0.0539,-0.0792 -0.0967,-0.11885 -0.0428,-0.0396 -0.0777,-0.0761 -0.0777,-0.0792 0,-0.005 0.0254,-0.008 0.0555,-0.008 0.0364,0 0.0555,0.008 0.0555,0.0222 z m 0.47541,0.12678 c 0,0.0634 -0.0222,0.1204401 -0.046,0.1204401 -0.0571,0 -0.065,-0.0349 -0.0206,-0.0888 0.046,-0.0555 0.0666,-0.0665 0.0666,-0.0317 z m 2.2297,0.2900001 c 0.0491,0.30427 0.0491,0.35815 -0.006,0.3423 -0.0349,-0.01 -0.13153,-0.23295 -0.13153,-0.30426 0,-0.038 -0.0143,-0.0666 -0.0539,-0.10618 -0.0539,-0.0539 -0.0539,-0.057 -0.0349,-0.1141 0.019,-0.0539 0.0254,-0.0586 0.0776,-0.0539 0.0444,0.005 0.0571,-0.002 0.0666,-0.0269 0.005,-0.019 0.0158,-0.0333 0.0206,-0.0333 0.006,0 0.0349,0.1331351 0.0618,0.2963551 z m -0.32803,-0.17749 c 0,0.0127 -0.0206,0.046 -0.046,0.0761 -0.0254,0.0285 -0.0523,0.0713 -0.0571,0.0951 -0.0127,0.0507 -0.0111,0.0491 -0.0713,0.019 -0.0602,-0.0317 -0.0602,-0.0412 0.006,-0.0776 0.0301,-0.0159 0.0777,-0.0523 0.10617,-0.0824 0.0586,-0.0618 0.0618,-0.0618 0.0618,-0.0301 z m 7.124892,0.019 c -0.02694,0.10301 -0.02535,0.0998 -0.09191,0.0998 -0.03486,0 -0.126778,0.008 -0.202843,0.019 -0.152134,0.019 -0.206014,0.0111 -0.174319,-0.0269 0.0095,-0.0111 0.0523,-0.0333 0.09191,-0.046 0.0412,-0.0127 0.103007,-0.0333 0.137871,-0.0475 0.03486,-0.0127 0.104591,-0.0238 0.155301,-0.0254 0.08082,0 0.09192,0.003 0.08399,0.0269 z m 0.142625,-0.0143 c 0.0095,0.006 0.01426,0.0364 0.0095,0.0697 -0.0048,0.0444 -0.01426,0.0602 -0.03486,0.0602 -0.03011,0 -0.04437,-0.0444 -0.03486,-0.10776 0.0048,-0.0349 0.02853,-0.0444 0.06022,-0.0222 z m -7.714407,0.14896 c 0.0285,0.0285 0.0238,0.0428 -0.0127,0.0396 -0.019,-0.002 -0.0317,-0.0127 -0.0317,-0.0301 0,-0.0333 0.0174,-0.0365 0.0444,-0.01 z m 0.14579,0.046 c 0,0.008 -0.006,0.0143 -0.0159,0.0143 -0.008,0 -0.0158,-0.0111 -0.0158,-0.0253 0,-0.0127 0.008,-0.019 0.0158,-0.0143 0.01,0.005 0.0159,0.0159 0.0159,0.0254 z m 7.351511,0.0333 c -0.0032,0.0206 0,0.046 0.0079,0.0586 0.01109,0.0159 0.0048,0.019 -0.02219,0.01 -0.08557,-0.0269 -0.139455,-0.0555 -0.147378,-0.0792 -0.0079,-0.019 0.0048,-0.0238 0.07765,-0.0238 0.08241,0 0.08716,0.003 0.08399,0.0349 z m 0.183827,-0.003 c 0.0048,0.008 0.02377,0.0158 0.0412,0.0158 0.01585,0 0.03011,0.003 0.03011,0.006 0,0.003 0.0048,0.019 0.01109,0.0349 0.0063,0.019 0.0048,0.0238 -0.0095,0.0158 -0.0095,-0.006 -0.03645,0 -0.06022,0.0143 -0.03803,0.0254 -0.04279,0.0254 -0.08082,-0.003 -0.05388,-0.0396 -0.0618,-0.0682 -0.0206,-0.0682 0.01902,0 0.03328,-0.008 0.03328,-0.0158 0,-0.01 0.0095,-0.0159 0.02219,-0.0159 0.01268,0 0.02853,0.006 0.03328,0.0159 z m -0.465907,0.0159 c 0.01743,0.0111 0.03011,0.0333 0.03011,0.0586 0,0.0412 0,0.0412 -0.03328,0.0111 -0.0729,-0.065 -0.07131,-0.10776 0.0032,-0.0697 z m -0.0523,0.0824 c 0.03803,0.0412 0.06656,0.0856 0.06339,0.0998 -0.0032,0.0222 -0.03169,0.01 -0.137872,-0.0618 -0.120438,-0.0792 -0.129946,-0.0887 -0.09825,-0.10142 0.06814,-0.0254 0.104592,-0.0111 0.172734,0.0634 z m 0.304267,0.0475 c 0.08241,0.0697 0.0935,0.10301 0.05863,0.1664 l -0.01902,0.0349 -0.0729,-0.0555 c -0.05071,-0.0365 -0.07607,-0.0697 -0.08399,-0.10301 -0.0048,-0.0269 -0.02377,-0.0681 -0.0412,-0.0935 -0.01743,-0.0238 -0.03169,-0.0491 -0.03169,-0.0539 0,-0.0222 0.117268,0.0412 0.190166,0.10459 z m -7.614568,0.0951 c -0.0333,0.008 -0.0745,0.0238 -0.0888,0.038 -0.0254,0.0222 -0.0285,0.0222 -0.0365,-0.006 -0.006,-0.0174 -0.01,-0.0666 -0.008,-0.11093 l 0.003,-0.0808 0.0967,0.0745 0.0951,0.0729 z m 7.693804,-0.0713 c 0,0.0206 -0.01109,0.0159 -0.04754,-0.019 -0.02536,-0.0254 -0.04754,-0.0475 -0.04754,-0.0507 0,-0.003 0.02218,0.005 0.04754,0.019 0.02694,0.0143 0.04754,0.0365 0.04754,0.0507 z m -6.901444,0.0777 0.0634,0.0127 -0.0475,0.0111 c -0.084,0.019 -0.11093,0.0143 -0.13153,-0.019 -0.0206,-0.0317 -0.019,-0.0333 0.0159,-0.0254 0.019,0.005 0.065,0.0143 0.0998,0.0206 z m 0.81613,0.0761 c -0.0159,0.0222 -0.01,0.0364 0.0412,0.0998 0.0349,0.0412 0.0634,0.0903 0.065,0.10776 0.002,0.0174 0.008,0.0539 0.0143,0.0808 0.0143,0.0745 -0.038,0.62913 -0.0618,0.64339 -0.0143,0.008 -0.0222,-0.019 -0.0317,-0.0951 -0.0159,-0.11885 -0.0222,-0.12994 -0.0935,-0.15213 -0.0444,-0.0143 -0.0539,-0.0269 -0.0618,-0.0808 -0.01,-0.057 -0.006,-0.0681 0.0396,-0.10618 0.038,-0.0333 0.0428,-0.0428 0.0222,-0.0444 -0.0159,0 -0.0285,-0.006 -0.0285,-0.0127 0,-0.0174 0.0618,-0.0745 0.10935,-0.0982 l 0.038,-0.0206 -0.038,-0.0206 c -0.0206,-0.0111 -0.0539,-0.0206 -0.0729,-0.0222 -0.0507,0 -0.0444,-0.0238 0.0111,-0.0475 0.0269,-0.0111 0.0476,-0.0269 0.0476,-0.0349 0,-0.008 -0.006,-0.01 -0.0159,-0.005 -0.008,0.005 -0.0159,-0.002 -0.0159,-0.0143 0,-0.0159 -0.01,-0.0206 -0.0238,-0.0159 -0.0269,0.0111 -0.0301,-0.0143 -0.008,-0.0586 0.0111,-0.0206 0.0111,-0.0301 0,-0.0301 -0.0174,0 -0.0222,-0.10776 -0.006,-0.15055 0.01,-0.0238 0.0159,-0.0222 0.0507,0.0143 0.0333,0.0333 0.0365,0.0428 0.019,0.0634 z m -4.15197,0.0111 c 0,0.0317 0.0222,0.0824 0.0602,0.13946 l 0.0618,0.0887 -0.0903,0.005 c -0.0713,0.002 -0.0951,-0.003 -0.11727,-0.0269 -0.0254,-0.0269 -0.0254,-0.0301 0.006,-0.038 0.0253,-0.006 0.0317,-0.0206 0.0317,-0.0792 0,-0.0396 -0.008,-0.0776 -0.019,-0.084 -0.0111,-0.008 -0.008,-0.0174 0.0111,-0.0333 0.0444,-0.0317 0.0555,-0.0254 0.0555,0.0285 z m 10.902865,-0.0143 c 0,0.0111 -0.0079,0.0317 -0.01585,0.0444 -0.01902,0.0317 -0.0523,0 -0.03803,-0.0365 0.01109,-0.0317 0.05388,-0.0364 0.05388,-0.008 z m -0.728971,0.0634 c 0,0.0301 -0.06022,0.008 -0.07606,-0.0285 l -0.01902,-0.0396 0.04754,0.0285 c 0.02536,0.0143 0.04754,0.0333 0.04754,0.0396 z m -7.321394,0.0206 c 0,0.0396 0,0.0396 -0.057,0.0159 -0.0317,-0.0127 -0.0618,-0.0254 -0.0682,-0.0254 -0.008,-0.002 0.0602,-0.019 0.1141,-0.0285 0.006,0 0.0111,0.0159 0.0111,0.038 z m 0.58159,-0.019 c 0.003,0.003 -0.006,0.0396 -0.0206,0.0824 -0.0206,0.0571 -0.0222,0.0903 -0.0127,0.13312 0.0127,0.0475 0.008,0.0729 -0.0301,0.16005 -0.0428,0.0967 -0.11885,0.19968 -0.1347,0.18225 -0.005,-0.003 -0.019,-0.0824 -0.0349,-0.17591 l -0.0269,-0.16798 0.0697,-0.0301 c 0.0396,-0.0159 0.0761,-0.0301 0.084,-0.0301 0.008,0 0.0285,-0.019 0.0475,-0.0428 l 0.0333,-0.0412 -0.0444,-0.0475 -0.0444,-0.0475 0.0539,0.0111 c 0.0301,0.005 0.0571,0.0127 0.0602,0.0143 z m -2.92222,0.25673 c 0.0792,0.0507 0.0729,0.0776 -0.0238,0.10142 -0.046,0.01 -0.0983,0.0333 -0.11727,0.0507 l -0.0349,0.0333 -0.0174,-0.0555 c -0.0111,-0.0317 -0.0301,-0.065 -0.0428,-0.0745 -0.0111,-0.0111 -0.0222,-0.0364 -0.0222,-0.0571 0,-0.0317 0.008,-0.038 0.0507,-0.038 0.0586,0 0.10776,-0.038 0.10935,-0.0856 0,-0.0222 0.01,-0.0111 0.0238,0.0301 0.0143,0.038 0.0428,0.0761 0.0745,0.0951 z m 9.631915,-0.10776 c -0.01268,0.0238 -0.01585,0.0238 -0.01743,0.003 0,-0.0269 0.01585,-0.0507 0.02853,-0.0396 0.0032,0.005 -0.0016,0.0206 -0.01109,0.0365 z m -7.077355,0.16164 0.0396,0.12202 -0.0301,0.0872 c -0.0365,0.10776 -0.0951,0.22186 -0.0967,0.187 0,-0.0127 -0.0206,-0.0444 -0.0475,-0.0697 l -0.046,-0.0444 0.038,-0.0365 c 0.0206,-0.019 0.0428,-0.0539 0.0491,-0.0777 0.0143,-0.0555 -0.0365,-0.187 -0.0666,-0.1759 -0.0127,0.005 -0.0333,0.0143 -0.046,0.019 -0.0618,0.0254 0.003,-0.103 0.0745,-0.15055 0.065,-0.0412 0.0745,-0.0317 0.13153,0.13946 z m 7.974306,0.0586 c -0.0032,0.003 -0.02377,-0.003 -0.04754,-0.0143 -0.05705,-0.0253 -0.05705,-0.0824 0.0016,-0.11251 l 0.04279,-0.0222 0.0048,0.0713 c 0.0032,0.0396 0.0016,0.0745 -0.0016,0.0777 z m -7.490966,-0.0586 c 0,0.0523 -0.038,0.1759 -0.0523,0.1759 -0.003,0 -0.003,-0.0206 0.002,-0.0475 l 0.006,-0.0475 -0.057,0.0238 c -0.0317,0.0127 -0.0571,0.0206 -0.0571,0.0159 0,-0.0301 0.0745,-0.15055 0.10142,-0.16481 0.0523,-0.0254 0.057,-0.0206 0.057,0.0444 z m 6.798444,0.0571 c -0.01109,0.0143 -0.02377,0.0206 -0.02694,0.0174 -0.01109,-0.0111 0.01109,-0.0412 0.03011,-0.0412 0.0095,0 0.0095,0.01 -0.0032,0.0238 z m 0.922306,0.11727 c -0.0063,0.046 -0.0048,0.046 -0.25514,0.1553 l -0.0523,0.0222 0.03169,-0.0444 c 0.04437,-0.0618 0.07924,-0.0903 0.169565,-0.13628 0.103008,-0.0539 0.1141,-0.0523 0.106177,0.003 z m -0.294758,0.0428 -0.02377,0.046 -0.0016,-0.0491 c 0,-0.0539 0.01426,-0.0777 0.03645,-0.0555 0.0079,0.008 0.0048,0.0317 -0.01109,0.0586 z m -7.809492,0.16639 c -0.005,0.0586 -0.0127,0.11252 -0.019,0.12202 -0.01,0.0143 -0.0539,-0.003 -0.13311,-0.0523 -0.002,-0.002 0.0222,-0.0666 0.0555,-0.14263 l 0.0586,-0.13945 0.0222,0.0539 c 0.0143,0.0349 0.0206,0.0903 0.0159,0.15847 z m 0.46274,-0.17749 c 0,0.019 -0.0174,0.0365 -0.0428,0.046 -0.0254,0.008 -0.0586,0.0206 -0.0761,0.0269 -0.0222,0.01 -0.0159,-0.003 0.0222,-0.0444 0.0602,-0.065 0.0967,-0.0745 0.0967,-0.0285 z m -0.2488,0.13153 c -0.046,0.046 -0.0888,0.0761 -0.0951,0.0697 -0.0127,-0.0143 0.13312,-0.15213 0.16165,-0.15213 0.008,0 -0.0222,0.0364 -0.0666,0.0824 z m 0.20126,0.0602 c 0,0.065 0.0285,0.12044 0.0745,0.14104 l 0.0396,0.019 -0.0586,0.0396 c -0.0491,0.0333 -0.0697,0.038 -0.12836,0.0285 -0.0729,-0.0111 -0.0919,-0.0396 -0.0412,-0.0681 0.0459,-0.0269 -0.0475,-0.0222 -0.10142,0.005 -0.0539,0.0285 -0.0697,0.0206 -0.0697,-0.0349 0.002,-0.0586 0.15689,-0.17749 0.23295,-0.17749 0.0475,0 0.0523,0.005 0.0523,0.0475 z m 7.495714,0.0777 c 0,0.0792 0.03169,0.14104 0.09191,0.17749 l 0.05864,0.0349 -0.05071,0.0143 c -0.02853,0.008 -0.05863,0.0269 -0.06656,0.0428 -0.01426,0.0254 -0.02536,0.0269 -0.110931,0.0127 -0.09191,-0.0143 -0.09667,-0.0174 -0.09667,-0.0602 0,-0.0507 -0.02536,-0.0586 -0.0729,-0.0222 -0.03169,0.0238 -0.212352,0.0349 -0.212352,0.0111 0.0016,-0.01 0.174319,-0.14738 0.232953,-0.18541 0.01426,-0.01 0.03962,-0.0285 0.05547,-0.0444 0.01902,-0.0174 0.05388,-0.0269 0.09984,-0.0269 0.06814,0 0.07131,0.002 0.07131,0.046 z m -7.836434,0.0808 c 0.005,0.008 -0.002,0.0158 -0.0158,0.0158 -0.0143,0 -0.0206,-0.008 -0.0159,-0.0158 0.005,-0.01 0.0127,-0.0159 0.0159,-0.0159 0.003,0 0.0111,0.006 0.0158,0.0159 z m 7.318231,0.019 c -0.01109,0.0475 -0.05071,0.0919 -0.08082,0.0919 -0.01743,0 -0.0206,-0.0127 -0.01268,-0.0507 0.01109,-0.0539 0.0317,-0.0761 0.07607,-0.0761 0.01902,0 0.02377,0.01 0.01743,0.0349 z m -6.338871,0.10301 c -0.0159,0.187 -0.0222,0.21235 -0.0491,0.2076 -0.0317,-0.006 -0.0555,-0.10935 -0.0349,-0.16164 0.008,-0.0206 0.01,-0.0428 0.003,-0.0491 -0.01,-0.01 0.057,-0.0697 0.0776,-0.0713 0.006,0 0.008,0.0333 0.003,0.0745 z m -1.03799,0.0475 c -0.0222,0.0254 -0.0475,0.0571 -0.0555,0.0729 -0.0127,0.0253 -0.019,0.0222 -0.0602,-0.0222 -0.046,-0.0475 -0.046,-0.0491 -0.0174,-0.0713 0.0174,-0.0127 0.0634,-0.0222 0.10301,-0.0222 h 0.0713 z m -1.18537,0.0967 c 0,0.008 -0.0238,0.0253 -0.0539,0.038 -0.0396,0.019 -0.0571,0.0222 -0.0713,0.008 -0.0301,-0.0301 -0.0206,-0.0412 0.0428,-0.0476 0.0317,-0.003 0.0634,-0.006 0.0713,-0.008 0.006,-0.002 0.0111,0.003 0.0111,0.01 z m 1.09345,0.22503 c 0,0.008 -0.0697,0.0475 -0.084,0.0475 -0.002,0 -0.002,-0.0285 0.002,-0.065 l 0.006,-0.0634 0.038,0.0349 c 0.0206,0.019 0.038,0.0396 0.038,0.046 z m -1.80816,0.22186 c 0.0269,0.0555 0.046,0.10301 0.0444,0.10459 -0.005,0.005 -0.23612,0.0539 -0.25197,0.0539 -0.008,0 -0.0127,-0.0222 -0.0127,-0.0491 0,-0.0729 -0.0586,-0.16322 -0.12837,-0.20284 -0.0349,-0.019 -0.0618,-0.038 -0.0618,-0.0412 0,-0.005 0.0333,-0.0238 0.0729,-0.0444 l 0.0729,-0.0365 0.10776,0.0555 c 0.10301,0.0539 0.11252,0.0634 0.15689,0.16006 z m -0.0713,-0.19651 c 0.0174,0.0444 0.0111,0.0555 -0.0222,0.038 -0.0174,-0.01 -0.0269,-0.0254 -0.0222,-0.0396 0.0127,-0.0317 0.0317,-0.0301 0.0444,0.002 z m 0.65924,0.13312 c 0.0159,0.038 0.0349,0.0523 0.0888,0.0666 0.038,0.0111 0.0697,0.0254 0.0697,0.0333 0,0.008 -0.0222,0.0349 -0.0507,0.0618 -0.0459,0.0428 -0.0523,0.0444 -0.0618,0.0174 -0.019,-0.046 -0.0159,-0.0523 0.019,-0.0475 0.019,0.002 0.038,-0.006 0.0412,-0.0174 0.005,-0.0127 -0.008,-0.019 -0.038,-0.019 -0.065,-0.002 -0.11726,-0.0507 -0.11251,-0.10934 0.005,-0.0555 0.0174,-0.0523 0.0444,0.0143 z m 0.51028,0.0602 c -0.005,0.057 0,0.0808 0.019,0.0967 0.0222,0.019 0.0333,0.0143 0.0824,-0.038 0.0507,-0.0539 0.0571,-0.0571 0.0824,-0.0349 0.0159,0.0143 0.0729,0.0301 0.1347,0.0365 0.0586,0.006 0.10618,0.0159 0.10618,0.0206 0,0.005 -0.0127,0.0555 -0.0285,0.11093 -0.0269,0.0967 -0.0269,0.10776 -0.002,0.2377098 0.0174,0.0967 0.0428,0.16481 0.084,0.23454 0.0507,0.084 0.0571,0.103 0.0412,0.13153 -0.0111,0.0222 -0.0159,0.0713 -0.01,0.13153 l 0.01,0.0982 -0.0301,-0.0634 c -0.0523,-0.11568 -0.0697,-0.11727 -0.14738,-0.0127 -0.038,0.0507 -0.0729,0.0935 -0.0792,0.0967 -0.008,0.003 -0.0127,0.0159 -0.0127,0.0285 0,0.0333 -0.01,0.0285 -0.10776,-0.0475 -0.11885,-0.0919 -0.16164,-0.13946 -0.23295,-0.26307 -0.0555,-0.0951 -0.18383,-0.3835 -0.1759,-0.39142 0.002,-0.003 0.0333,0.008 0.0697,0.0206 0.0555,0.0222 0.0729,0.0238 0.11569,0.006 0.0428,-0.019 0.0475,-0.0269 0.0396,-0.0697 -0.0111,-0.0507 -0.11252,-0.1679798 -0.14738,-0.1679798 -0.0365,0 -0.0206,-0.0222 0.0428,-0.0666 0.0444,-0.0301 0.0634,-0.0555 0.0634,-0.0824 0,-0.0317 0.0491,-0.0856 0.0808,-0.0872 0.005,-0.002 0.006,0.0333 0.002,0.0745 z m 9.25634,0.16956 c 0.112514,0.0523 0.13787,0.0697 0.13787,0.0983 0,0.0317 -0.0079,0.0364 -0.06814,0.0364 -0.03803,0 -0.07923,-0.01 -0.09191,-0.0206 -0.03486,-0.0269 -0.150548,-0.19175 -0.13153,-0.18382 0.0095,0.003 0.07923,0.0349 0.153717,0.0697 z m -2.648064,0.0159 c 0.03645,0.0634 0.09984,0.10301 0.163226,0.10301 0.03645,0 0.03962,0.005 0.03169,0.0349 -0.0095,0.0333 -0.09667,0.12202 -0.120438,0.12361 -0.0063,0 -0.01426,-0.0222 -0.01743,-0.0491 -0.0063,-0.0412 -0.0032,-0.0475 0.02377,-0.0396 0.03486,0.008 0.07448,-0.003 0.07448,-0.0238 0,-0.008 -0.02219,-0.0143 -0.04913,-0.0143 -0.03011,0 -0.06814,-0.0159 -0.09667,-0.0396 -0.02536,-0.0222 -0.0618,-0.0412 -0.08082,-0.0428 -0.01902,0 -0.04596,-0.003 -0.05863,-0.003 -0.01426,-0.002 -0.02219,-0.0143 -0.01902,-0.0333 0.01585,-0.0903 0.09984,-0.0983 0.148965,-0.0159 z m -7.624076,-0.005 c 0.0111,0.0206 0.0396,0.0539 0.065,0.0761 l 0.046,0.0396 -0.0238,0.1663998 c -0.0127,0.0919 -0.0349,0.20601 -0.0491,0.25355 -0.0824,0.27733 -0.10935,0.33438 -0.12202,0.2488 -0.003,-0.0222 -0.0269,-0.0459 -0.0682,-0.0666 l -0.0634,-0.0317 0.0634,-0.0317 c 0.0761,-0.038 0.0872,-0.0872 0.0491,-0.21711 -0.0206,-0.0681 -0.0428,-0.0998 -0.12361,-0.17115 -0.0967,-0.0872 -0.0967,-0.0887 -0.0713,-0.12836 0.0143,-0.0206 0.0285,-0.0555 0.0317,-0.0777 0.005,-0.0317 0.0222,-0.0412 0.11569,-0.065 0.0602,-0.0143 0.1141,-0.0269 0.12044,-0.0285 0.006,0 0.0206,0.0143 0.0301,0.0333 z m 7.082102,0.2044298 c 0,0.008 -0.01109,0.0143 -0.02377,0.0143 -0.01426,0 -0.02377,-0.0143 -0.02377,-0.0333 0,-0.0285 0.0032,-0.0301 0.02377,-0.0143 0.01268,0.0111 0.02377,0.0253 0.02377,0.0333 z m 0.05388,0.11093 c 0.03328,0.17115 -0.02219,0.51503 -0.144209,0.87318 -0.04437,0.12994 -0.06339,0.15213 -0.07131,0.0792 -0.0032,-0.0333 -0.02219,-0.0523 -0.09191,-0.0903 l -0.08716,-0.0459 0.04754,-0.01 c 0.06973,-0.0143 0.118854,-0.0507 0.129947,-0.0935 0.01109,-0.0475 -0.03486,-0.25356 -0.06814,-0.3011 -0.01585,-0.0222 -0.01902,-0.0412 -0.0095,-0.0539 0.0079,-0.0111 0.05863,-0.0745 0.11093,-0.14421 0.08558,-0.10934 0.09825,-0.13311 0.09825,-0.19333 0,-0.0634 0.0032,-0.0697 0.03803,-0.0697 0.02853,0 0.03962,0.0111 0.04754,0.0491 z m 0.101423,0.0586 0.03169,0.0428 -0.03803,0.0475 -0.03803,0.0475 v -0.0919 c 0,-0.0491 0.0032,-0.0903 0.0063,-0.0903 0.0048,0 0.0206,0.019 0.03803,0.0444 z m -5.345255,0.84307 c 0.005,0.008 0.002,0.0159 -0.006,0.0159 -0.01,0 -0.0174,-0.008 -0.0174,-0.0159 0,-0.01 0.003,-0.0159 0.006,-0.0159 0.005,0 0.0127,0.006 0.0174,0.0159 z"
       id="path970"
       style="fill:#c87137;stroke:none;stroke-width:0.00158471" />
    <rect
       style="fill:#aa8800;fill-rule:evenodd;stroke-width:0.264583"
       id="rect964"
       width="35.855377"
       height="35.582123"
       x="1.9160619"
       y="19.488045" />
    <rect
       style="fill:#d4aa00;fill-opacity:1;fill-rule:evenodd;stroke:#785302;stroke-width:0.127957;stroke-linecap:round;stroke-linejoin:round;stroke-miterlimit:4;stroke-dasharray:none;stroke-opacity:1"
       id="rect851-9-3-2-29-8-8"
       width="35.855377"
       height="1.9887087"
       x="1.9160619"
       y="41.751778" />
    <rect
       style="fill:#d4aa00;fill-opacity:1;fill-rule:evenodd;stroke:#785302;stroke-width:0.127957;stroke-linecap:round;stroke-linejoin:round;stroke-miterlimit:4;stroke-dasharray:none;stroke-opacity:1"
       id="rect851-9-3-2-29"
       width="35.855377"
       height="1.9887087"
       x="1.9160619"
       y="17.499336" />
    <rect
       style="fill:#d4aa00;fill-opacity:1;fill-rule:evenodd;stroke:#785302;stroke-width:0.127957;stroke-linecap:round;stroke-linejoin:round;stroke-miterlimit:4;stroke-dasharray:none;stroke-opacity:1"
       id="rect851-9-3-2-29-4"
       width="35.855377"
       height="1.9887087"
       x="1.9160619"
       y="55.070168" />
    <rect
       style="fill:#d4aa00;fill-opacity:1;fill-rule:evenodd;stroke:#785302;stroke-width:0.127957;stroke-linecap:round;stroke-linejoin:round;stroke-miterlimit:4;stroke-dasharray:none;stroke-opacity:1"
       id="rect851-9-3-2-29-8"
       width="35.855377"
       height="1.9887087"
       x="1.9160621"
       y="30.042755" />
    <g
       aria-label="the
"
       id="text1428"
       style="font-style:normal;font-weight:normal;font-size:4.23333px;line-height:1.25;font-family:sans-serif;fill:#000000;fill-opacity:1;stroke:none;stroke-width:0.264583">
      <path
         d="m 5.2586212,29.956682 c 0.5969,0 1.0795,-0.1143 1.4097,-0.254 l -0.3048,-1.3081 c -0.1778,0.0762 -0.3937,0.1016 -0.5969,0.1016 -0.4953,0 -0.8128,-0.2921 -0.8128,-1.0033 v -2.5146 h 1.5113 v -1.4605 h -1.5113 v -1.9304 h -1.5494 l -0.2159,1.9304 -0.9651999,0.0762 v 1.3843 h 0.8635999 v 2.54 c 0,1.4605 0.6096,2.4384 2.1717,2.4384 z"
         style="font-style:normal;font-variant:normal;font-weight:bold;font-stretch:normal;font-size:12.7px;font-family:'Source Sans 3';-inkscape-font-specification:'Source Sans 3 Bold';fill:#ff6600;stroke:#785302;stroke-width:0.264583;stroke-opacity:1"
         id="path863" />
      <path
         d="M 7.167846,29.816982 H 9.9512538 V 29.319567 L 9.4538387,29.213734 c -0.010583,-0.518581 -0.010583,-1.174746 -0.010583,-1.619245 v -1.545161 c 0.3280823,-0.306916 0.6561643,-0.486832 0.9419133,-0.486832 0.433915,0 0.571498,0.232832 0.571498,0.920747 v 1.111246 c 0,0.455082 0,1.09008 -0.01058,1.608662 l -0.550332,0.116416 v 0.497415 h 2.783408 v -0.497415 l -0.529165,-0.105833 c -0.01058,-0.518581 -0.01058,-1.153579 -0.01058,-1.619245 v -1.227662 c 0,-1.227663 -0.613831,-1.830911 -1.545162,-1.830911 -0.624415,0 -1.1218293,0.232832 -1.6827442,0.878414 V 23.721002 L 9.4538448,22.23934 9.284512,22.122923 7.093769,22.599172 v 0.455082 l 0.6667479,0.105833 v 4.434402 c 0,0.444499 0,1.079497 -0.010583,1.598079 L 7.167846,29.319567 Z"
         style="font-style:normal;font-variant:normal;font-weight:normal;font-stretch:normal;font-size:10.5833px;font-family:'Source Serif 4';-inkscape-font-specification:'Source Serif 4, ';fill:#0063b4;fill-opacity:1;stroke-width:0.264583"
         id="path865" />
      <path
         d="m 16.343553,25.086247 c 0.391582,0 0.698498,0.306916 0.698498,1.037164 0,0.476248 -0.127,0.666748 -0.656165,0.666748 h -0.89958 c 0.04233,-1.291163 0.423332,-1.703912 0.857247,-1.703912 z m 0.07408,4.889485 c 1.111246,0 1.756828,-0.433916 2.21191,-1.269996 L 18.26971,28.409403 c -0.328082,0.380999 -0.719664,0.560915 -1.259412,0.560915 -0.783164,0 -1.439329,-0.507998 -1.523995,-1.629828 h 3.069156 c 0.04233,-0.169333 0.0635,-0.338665 0.0635,-0.571498 0,-1.280579 -0.857247,-2.233076 -2.275409,-2.233076 -1.492245,0 -2.635242,1.02658 -2.635242,2.783408 0,1.714494 1.12183,2.656408 2.709325,2.656408 z"
         style="font-style:normal;font-variant:normal;font-weight:normal;font-stretch:normal;font-size:10.5833px;font-family:'Source Serif 4';-inkscape-font-specification:'Source Serif 4, ';fill:#008000;stroke-width:0.264583"
         id="path867" />
    </g>
    <g
       aria-label="Mett"
       id="text1428-7"
       style="font-style:normal;font-weight:normal;font-size:10.5833px;line-height:1.25;font-family:sans-serif;fill:#000000;fill-opacity:1;stroke:none;stroke-width:0.264583">
      <path
         d="m 1.6148624,41.434875 h 3.0988 v -0.6858 l -1.0414,-0.165099 v -3.0988 l -0.0635,-2.5654 2.4256999,6.515099 h 0.9779 l 2.2606,-6.464299 -0.0254,2.794 c 0,0.8382 0,1.8415 -0.0254,2.8702 l -0.9144,0.114299 v 0.6858 h 4.0385997 v -0.6858 l -0.9525,-0.101599 c -0.0254,-1.0414 -0.0254,-2.0955 -0.0254,-3.1496 v -0.4699 c 0,-1.0541 0,-2.1209 0.0254,-3.1623 l 0.9144,-0.1016 v -0.6731 H 9.1078623 l -1.9558,5.588 -2.0700999,-5.588 h -3.2258 v 0.6731 l 0.9906,0.1143 v 6.7183 l -1.2319,0.152399 z"
         style="font-style:normal;font-variant:normal;font-weight:normal;font-stretch:normal;font-size:12.7px;font-family:'Source Serif 4';-inkscape-font-specification:'Source Serif 4, ';fill:#ff0000;stroke:#785302;stroke-width:0.264583;stroke-opacity:1"
         id="path870" />
      <path
         d="m 15.707619,36.704141 c 0.391582,0 0.698498,0.306915 0.698498,1.037163 0,0.476248 -0.127,0.666748 -0.656165,0.666748 h -0.899581 c 0.04233,-1.291163 0.423332,-1.703911 0.857248,-1.703911 z m 0.07408,4.889484 c 1.111246,0 1.756828,-0.433915 2.211909,-1.269996 l -0.359832,-0.296332 c -0.328082,0.380998 -0.719664,0.560915 -1.259412,0.560915 -0.783165,0 -1.439329,-0.507999 -1.523996,-1.629829 h 3.069157 c 0.04233,-0.169332 0.0635,-0.338665 0.0635,-0.571498 0,-1.280579 -0.857247,-2.233076 -2.275409,-2.233076 -1.492246,0 -2.635242,1.02658 -2.635242,2.783408 0,1.714494 1.12183,2.656408 2.709325,2.656408 z"
         style="font-style:normal;font-variant:normal;font-weight:normal;font-stretch:normal;font-size:10.5833px;font-family:'Source Serif 4';-inkscape-font-specification:'Source Serif 4, ';fill:#00ffff;stroke-width:0.264583"
         id="path872" />
      <path
         d="m 20.586519,41.593625 c 0.772581,0 1.269996,-0.306916 1.555745,-0.846664 l -0.264583,-0.253999 c -0.201082,0.158749 -0.380999,0.232832 -0.571498,0.232832 -0.317499,0 -0.539748,-0.222249 -0.539748,-0.719664 v -2.963324 h 1.111246 v -0.719664 h -1.111246 l 0.02117,-1.492245 h -1.079496 l -0.539748,1.492245 -0.772581,0.09525 v 0.624415 h 0.687914 v 2.02141 c 0,0.412749 -0.01058,0.687915 -0.01058,1.05833 0,1.047747 0.560915,1.471079 1.513412,1.471079 z"
         style="font-style:normal;font-variant:normal;font-weight:normal;font-stretch:normal;font-size:10.5833px;font-family:'Source Serif 4';-inkscape-font-specification:'Source Serif 4, ';fill:#99ff55;fill-opacity:1;stroke-width:0.264583"
         id="path874" />
      <path
         d="m 24.375339,41.593625 c 0.772581,0 1.269996,-0.306916 1.555745,-0.846664 l -0.264583,-0.253999 c -0.201082,0.158749 -0.380998,0.232832 -0.571498,0.232832 -0.317499,0 -0.539748,-0.222249 -0.539748,-0.719664 v -2.963324 h 1.111246 v -0.719664 h -1.111246 l 0.02117,-1.492245 h -1.079497 l -0.539748,1.492245 -0.772581,0.09525 v 0.624415 h 0.687914 v 2.02141 c 0,0.412749 -0.01058,0.687915 -0.01058,1.05833 0,1.047747 0.560915,1.471079 1.513412,1.471079 z"
         style="font-style:normal;font-variant:normal;font-weight:normal;font-stretch:normal;font-size:10.5833px;font-family:'Source Serif 4';-inkscape-font-specification:'Source Serif 4, ';fill:#000080;fill-opacity:1;stroke-width:0.264583"
         id="path876" />
      <path
         d="m 30.249067,41.583042 c 0.634998,0 1.015997,-0.22225 1.269996,-0.793748 l -0.285749,-0.190499 c -0.116416,0.179916 -0.201083,0.232832 -0.317499,0.232832 -0.148166,0 -0.243416,-0.09525 -0.243416,-0.306915 v -2.370659 c 0,-1.418163 -0.529165,-2.000244 -1.89441,-2.000244 -1.513412,0 -2.370659,0.603248 -2.423576,1.481662 0.08467,0.349249 0.328082,0.529165 0.709081,0.529165 0.412749,0 0.751414,-0.285749 0.772581,-0.984247 l 0.05292,-0.465665 c 0.105833,-0.01058 0.1905,-0.01058 0.28575,-0.01058 0.677331,0 0.86783,0.275165 0.86783,1.217079 v 0.359832 c -0.275166,0.07408 -0.539748,0.137583 -0.814914,0.211666 -1.640411,0.444499 -2.042577,0.99483 -2.042577,1.746245 0,0.878413 0.571498,1.354662 1.386413,1.354662 0.730247,0 1.058329,-0.285749 1.523995,-0.772581 0.148166,0.476249 0.529165,0.761998 1.153579,0.761998 z m -3.058573,-6.360563 h 2.836324 v -0.941914 h -2.836324 z m 0.560915,4.794234 c 0,-0.529165 0.243415,-0.941913 0.888997,-1.142996 0.126999,-0.04233 0.253999,-0.08467 0.402165,-0.127 v 1.767411 c -0.264582,0.169333 -0.444498,0.22225 -0.656164,0.22225 -0.359833,0 -0.634998,-0.22225 -0.634998,-0.719665 z"
         style="font-style:normal;font-variant:normal;font-weight:normal;font-stretch:normal;font-size:10.5833px;font-family:'Source Serif 4';-inkscape-font-specification:'Source Serif 4, ';fill:#fff6d5;fill-opacity:1;stroke-width:0.264583"
         id="path878" />
    </g>
    <g
       aria-label="Shelf"
       id="text1428-7-4"
       style="font-style:normal;font-weight:normal;font-size:12.7px;line-height:1.25;font-family:sans-serif;fill:#000000;fill-opacity:1;stroke:none;stroke-width:0.264583">
      <path
         d="m 4.7827888,55.066621 c 2.159,0 3.3146999,-1.0668 3.3146999,-2.5654 0,-1.2827 -0.6730999,-1.9812 -2.2859999,-2.7178 l -0.5969,-0.2667 c -0.762,-0.3429 -1.1557,-0.6985 -1.1557,-1.3716 0,-0.6858 0.5842,-1.1557 1.3081,-1.1557 0.3048,0 0.5842,0.0635 0.8509,0.1778 l 0.2413,1.4986 h 1.1683999 l 0.1016,-1.778 c -0.6222999,-0.4064 -1.4858999,-0.6477 -2.4002999,-0.6477 -1.9177,0 -3.1496,0.9271 -3.1496,2.4511 0,1.397 0.8636,2.159 2.3495,2.8448 l 0.5461,0.2413 c 0.762,0.3429 1.0922,0.6477 1.0922,1.3208 0,0.6858 -0.4826,1.2065 -1.397,1.2065 -0.4699,0 -0.8509,-0.0762 -1.2319,-0.2286 l -0.254,-1.5621 h -1.1811 l -0.0762,1.8796 c 0.7239,0.4572 1.8034,0.6731 2.7559,0.6731 z"
         style="font-style:normal;font-variant:normal;font-weight:normal;font-stretch:normal;font-size:12.7px;font-family:'Source Serif 4';-inkscape-font-specification:'Source Serif 4, ';fill:#ffff00;fill-opacity:1;stroke:#785302;stroke-width:0.264583;stroke-opacity:1"
         id="path881" />
      <path
         d="m 8.8213692,54.825321 h 3.3400998 v -0.5969 l -0.5969,-0.127 c -0.0127,-0.6223 -0.0127,-1.4097 -0.0127,-1.9431 v -1.8542 c 0.3937,-0.3683 0.7874,-0.5842 1.1303,-0.5842 0.5207,0 0.6858,0.2794 0.6858,1.1049 v 1.3335 c 0,0.5461 0,1.3081 -0.0127,1.9304 l -0.6604,0.1397 v 0.5969 h 3.3401 v -0.5969 l -0.635,-0.127 c -0.0127,-0.6223 -0.0127,-1.3843 -0.0127,-1.9431 v -1.4732 c 0,-1.4732 -0.7366,-2.1971 -1.8542,-2.1971 -0.7493,0 -1.3462,0.2794 -2.0193,1.0541 v -2.032 l 0.0508,-1.778 -0.2032,-0.1397 -2.6288998,0.5715 v 0.5461 l 0.8001,0.127 v 5.3213 c 0,0.5334 0,1.2954 -0.0127,1.9177 l -0.6985,0.1524 z"
         style="font-style:normal;font-variant:normal;font-weight:normal;font-stretch:normal;font-size:12.7px;font-family:'Source Serif 4';-inkscape-font-specification:'Source Serif 4, ';fill:#e5b8f1;fill-opacity:1;stroke-width:0.264583"
         id="path883" />
      <path
         d="m 19.679853,49.351621 c 0.9525,0 1.4986,0.6477 1.4986,1.8415 h -3.2131 c 0.1651,-1.3208 0.9525,-1.8415 1.7145,-1.8415 z m 0.1651,5.6261 c 0.8382,0 1.4986,-0.2667 2.0447,-0.635 l -0.381,-0.6858 c -0.4318,0.2921 -0.9525,0.4699 -1.5367,0.4699 -1.0414,0 -1.9304,-0.7239 -2.032,-2.1082 h 4.1275 c 0.0381,-0.2032 0.0508,-0.4064 0.0508,-0.6223 0,-1.7526 -0.8636,-2.8956 -2.4511,-2.8956 -1.4224,0 -2.794,1.2319 -2.794,3.2385 0,2.0447 1.3081,3.2385 2.9718,3.2385 z"
         style="font-style:normal;font-variant:normal;font-weight:normal;font-stretch:normal;font-size:12.7px;font-family:'Source Sans 3';-inkscape-font-specification:'Source Sans 3, ';fill:#00ff00;stroke-width:0.264583"
         id="path885" />
      <path
         d="m 22.931032,54.825321 h 3.4798 v -0.5969 l -0.6985,-0.1397 c -0.0127,-0.6477 -0.0254,-1.2827 -0.0254,-1.9304 v -4.6482 l 0.0508,-1.778 -0.2032,-0.1397 -2.667,0.5715 v 0.5461 l 0.8001,0.127 v 5.3213 c 0,0.635 -0.0127,1.2827 -0.0254,1.9177 l -0.7112,0.1524 z"
         style="font-style:normal;font-variant:normal;font-weight:normal;font-stretch:normal;font-size:12.7px;font-family:'Source Serif 4';-inkscape-font-specification:'Source Serif 4, ';fill:#ffaf10;fill-opacity:1;stroke:none;stroke-width:0.264583;stroke-opacity:1"
         id="path887" />
      <path
         d="m 27.08393,54.825321 h 3.7338 v -0.5969 l -0.9779,-0.2032 c -0.0127,-0.6223 -0.0127,-1.2446 -0.0127,-1.8669 v -2.6035 h 1.3335 v -0.8636 h -1.3589 c -0.0381,-1.3716 0.0889,-1.8288 0.4572,-2.4003 0.0381,-0.0508 0.0635,-0.1016 0.1016,-0.1397 l 0.1143,0.1651 c 0.3683,0.6858 0.7112,0.9144 1.143,0.9144 0.5715,0 0.9017,-0.3683 0.9144,-0.8509 -0.1651,-0.6477 -0.8128,-0.9144 -1.524,-0.9144 -0.7366,0 -1.524,0.2794 -2.1082,0.8128 -0.6604,0.6223 -0.9271,1.2827 -1.0668,2.4257 l -0.8509,0.1016 v 0.7493 h 0.8255 v 2.6035 c 0,0.6477 -0.0127,1.2827 -0.0254,1.9304 l -0.6985,0.1397 z"
         style="font-style:normal;font-variant:normal;font-weight:normal;font-stretch:normal;font-size:12.7px;font-family:'Source Serif 4';-inkscape-font-specification:'Source Serif 4, ';fill:#0000ff;fill-opacity:1;stroke-width:0.264583"
         id="path889" />
    </g>
    <text
       xml:space="preserve"
       id="text860"
       style="font-size:4.23333px;line-height:1.25;font-family:sans-serif;white-space:pre;shape-inside:url(#rect862);" />
    <rect
       style="fill:#d4aa00;fill-opacity:1;fill-rule:evenodd;stroke:#785302;stroke-width:0.134184;stroke-linecap:round;stroke-linejoin:round;stroke-miterlimit:4;stroke-dasharray:none;stroke-opacity:1"
       id="rect851-9-3-2"
       width="1.9824826"
       height="39.553318"
       x="0.067092061"
       y="17.502449" />
    <rect
       style="fill:#d4aa00;fill-opacity:1;fill-rule:evenodd;stroke:#785302;stroke-width:0.134184;stroke-linecap:round;stroke-linejoin:round;stroke-miterlimit:4;stroke-dasharray:none;stroke-opacity:1"
       id="rect851-9-3-2-2"
       width="1.9824826"
       height="39.553318"
       x="37.637924"
       y="17.502449" />
    <text
       xml:space="preserve"
       id="text1000"
       style="font-size:4.23333px;line-height:1.25;font-family:sans-serif;white-space:pre;shape-inside:url(#rect1002);" />
  </g>
</svg>
