<?xml version="1.0" encoding="UTF-8" standalone="no"?>
<svg
   xmlns:dc="http://purl.org/dc/elements/1.1/"
   xmlns:cc="http://creativecommons.org/ns#"
   xmlns:rdf="http://www.w3.org/1999/02/22-rdf-syntax-ns#"
   xmlns:svg="http://www.w3.org/2000/svg"
   xmlns="http://www.w3.org/2000/svg"
   xmlns:sodipodi="http://sodipodi.sourceforge.net/DTD/sodipodi-0.dtd"
   xmlns:inkscape="http://www.inkscape.org/namespaces/inkscape"
   version="1.1"
   id="Capa_1"
   x="0px"
   y="0px"
   viewBox="0 0 25 25"
   xml:space="preserve"
   sodipodi:docname="add-blue.svg"
   width="25"
   height="25"
   inkscape:version="1.0.2-2 (e86c870879, 2021-01-15)"><metadata
   id="metadata26"><rdf:RDF><cc:Work
       rdf:about=""><dc:format>image/svg+xml</dc:format><dc:type
         rdf:resource="http://purl.org/dc/dcmitype/StillImage" /><dc:title></dc:title></cc:Work></rdf:RDF></metadata><defs
   id="defs47" /><sodipodi:namedview
   id="namedview45"
   pagecolor="#ffffff"
   bordercolor="#666666"
   borderopacity="1.0"
   inkscape:pageshadow="2"
   inkscape:pageopacity="0.0"
   inkscape:pagecheckerboard="0"
   showgrid="false"
   width="25px"
   inkscape:zoom="32.5"
   inkscape:cx="7.315149"
   inkscape:cy="10.589856"
   inkscape:window-width="3840"
   inkscape:window-height="2072"
   inkscape:window-x="-5"
   inkscape:window-y="-5"
   inkscape:window-maximized="1"
   inkscape:current-layer="Capa_1"
   inkscape:document-rotation="0" />

<g
   id="g12"
   transform="matrix(0.06303686,0,0,0.06303686,-3.6181855,-3.6980344)"
   style="fill:#00008b;fill-opacity:1">
	<g
   id="g10"
   style="fill:#00008b;fill-opacity:1">
		<path
   d="M 355.148,234.386 H 275.83 v -79.318 c 0,-10.946 -8.864,-19.83 -19.83,-19.83 -10.966,0 -19.83,8.884 -19.83,19.83 v 79.318 h -79.318 c -10.966,0 -19.83,8.884 -19.83,19.83 0,10.946 8.864,19.83 19.83,19.83 h 79.318 v 79.318 c 0,10.946 8.864,19.83 19.83,19.83 10.966,0 19.83,-8.884 19.83,-19.83 v -79.318 h 79.318 c 10.966,0 19.83,-8.884 19.83,-19.83 0,-10.946 -8.864,-19.83 -19.83,-19.83 z"
   id="path8"
   style="fill:#00008b;fill-opacity:1" />
	</g>
</g>
<g
   id="g14">
</g>
<g
   id="g16">
</g>
<g
   id="g18">
</g>
<g
   id="g20">
</g>
<g
   id="g22">
</g>
<g
   id="g24">
</g>
<g
   id="g26">
</g>
<g
   id="g28">
</g>
<g
   id="g30">
</g>
<g
   id="g32">
</g>
<g
   id="g34">
</g>
<g
   id="g36">
</g>
<g
   id="g38">
</g>
<g
   id="g40">
</g>
<g
   id="g42">
</g>
<circle
   style="fill:none;fill-rule:evenodd;stroke:#00008b;stroke-width:1;stroke-opacity:1;stroke-miterlimit:4;stroke-dasharray:none"
   id="path855"
   cx="12.5"
   cy="12.5"
   r="12.028981" /></svg>
