<?xml version="1.0" encoding="UTF-8" standalone="no"?>
<svg
   xmlns:dc="http://purl.org/dc/elements/1.1/"
   xmlns:cc="http://creativecommons.org/ns#"
   xmlns:rdf="http://www.w3.org/1999/02/22-rdf-syntax-ns#"
   xmlns:svg="http://www.w3.org/2000/svg"
   xmlns="http://www.w3.org/2000/svg"
   xmlns:sodipodi="http://sodipodi.sourceforge.net/DTD/sodipodi-0.dtd"
   xmlns:inkscape="http://www.inkscape.org/namespaces/inkscape"
   version="1.1"
   id="Ebene_1"
   x="0px"
   y="0px"
   width="600px"
   height="800px"
   viewBox="0 0 600 800"
   enable-background="new 0 0 600 800"
   xml:space="preserve"
   sodipodi:docname="azw3_file_icon2.svg"
   inkscape:version="1.0.2-2 (e86c870879, 2021-01-15)"><metadata
   id="metadata19"><rdf:RDF><cc:Work
       rdf:about=""><dc:format>image/svg+xml</dc:format><dc:type
         rdf:resource="http://purl.org/dc/dcmitype/StillImage" /><dc:title></dc:title></cc:Work></rdf:RDF></metadata><defs
   id="defs17" /><sodipodi:namedview
   pagecolor="#ffffff"
   bordercolor="#666666"
   borderopacity="1"
   objecttolerance="10"
   gridtolerance="10"
   guidetolerance="10"
   inkscape:pageopacity="0"
   inkscape:pageshadow="2"
   inkscape:window-width="2114"
   inkscape:window-height="1606"
   id="namedview15"
   showgrid="false"
   inkscape:zoom="1.26"
   inkscape:cx="300"
   inkscape:cy="400"
   inkscape:window-x="0"
   inkscape:window-y="0"
   inkscape:window-maximized="0"
   inkscape:current-layer="Ebene_1" />


<path
   d="M 465.72563,15.63492 H 136.65531 c -68.048982,0 -123.401338,52.300984 -123.401338,116.59863 v 310.92971 c 0,64.29767 55.352356,116.59865 123.401338,116.59865 h 329.07032 c 68.04899,0 123.40137,-52.30098 123.40137,-116.59865 V 132.23355 C 589.127,67.935878 533.77462,15.63492 465.72563,15.63492 Z M 231.52357,428.09614 c 6.11522,-5.79106 41.28458,-26.90837 46.79653,-29.33105 4.77151,16.28495 18.68844,18.52622 22.30821,32.50511 2.01555,7.79917 5.41597,13.87524 9.81726,18.55216 6.75967,7.20321 10.05036,3.40724 16.31641,0.32388 29.79457,34.20227 26.54502,27.99662 24.69398,50.20219 -38.36412,-6.20565 -88.43763,-29.629 -164.7134,-40.18765 z M 196.32675,319.20596 c 8.2816,1.83969 6.58139,5.63563 13.43703,11.64694 10.44798,9.15946 7.0613,-2.1506 15.0687,4.00322 -5.30626,3.22588 -28.69769,18.25414 -34.60724,17.80073 -1.93329,-9.1854 1.8099,-26.1829 6.10151,-33.45089 z m 365.37771,123.9573 c 0,34.11158 -20.07328,63.87018 -49.62107,79.35186 -14.47908,0.73847 -27.99839,-0.66073 -44.28736,-2.94088 3.85286,-3.07043 8.80265,-5.23393 8.81633,-10.157 0.0275,-11.54329 -6.78707,1.30848 -39.11824,-13.60318 -9.77612,-4.50848 -22.32193,-12.16512 -31.68673,-18.0728 -26.42159,-16.67363 -26.77807,-25.75533 -39.461,-46.49695 l -6.21121,-8.14892 c 6.29348,-2.87611 7.36296,-2.72064 4.19565,-10.39023 -7.52744,-18.15056 -11.25695,-12.73519 -16.75515,-23.838 l -36.8833,-64.24582 c 18.30454,-16.19424 22.17112,-22.50352 42.16213,-27.98367 l 3.40039,-2.50042 c 18.07146,-11.1546 13.65642,-6.8275 18.89414,-21.51891 1.61792,-4.52145 2.07038,-4.78052 3.4141,-9.97564 21.63635,-24.93916 41.36686,-51.96413 48.12651,-67.14788 l -39.79006,-0.41458 c -17.60529,20.46956 -46.20696,47.57222 -59.71255,67.8993 7.77428,5.60967 3.78431,-1.81378 6.66366,5.7781 -9.69387,17.39911 -50.22434,35.32939 -70.35248,40.12287 -3.7706,-3.49792 -4.51101,-5.93358 -11.70943,-6.59429 7.82915,-10.15704 3.27701,-11.42666 -5.40222,-18.02094 l -23.98099,-28.82579 c -11.39406,-16.84202 -16.96086,-34.28 -21.23875,-41.54798 -4.71668,-7.99348 -7.76059,-4.15871 -7.25325,-9.66478 4.5247,-4.96187 5.01828,-2.3967 12.25787,1.45104 36.03319,19.14809 29.54774,-6.67203 38.56976,-5.53196 4.68925,-8.82261 6.3072,-4.21049 7.8977,-15.93513 l 11.07869,-2.82429 c -0.32908,-13.77158 -7.45892,-22.82745 4.92234,-31.59824 -4.68924,-0.77735 6.96531,-2.47447 0.0686,-0.0519 -0.0275,0.0131 -0.0412,0.0388 -0.0686,0.0519 0.58958,0.10363 1.37112,0.19435 2.56399,0.24616 1.0695,0.052 1.52196,0.1425 1.65908,0.23321 0.21939,-0.0777 0.45246,-0.14252 0.83637,-0.25912 3.72948,-1.02347 0.86383,-0.64776 4.49731,-3.48501 4.64811,-10.79187 9.41963,-17.82664 4.66182,-30.36746 -3.66091,-9.65178 -10.98271,-16.271985 -12.916,-23.20315 -20.4435,-8.408044 -0.41133,-22.646034 -47.13932,-26.092178 -8.5147,-0.621857 -1.38485,-0.699594 -9.14541,-3.472051 -6.27974,-2.241279 -20.48464,-0.712549 -27.07973,0.647778 -9.37852,1.943311 -30.48016,20.754559 -33.26354,24.705948 -7.93882,11.284163 -13.09424,27.789353 -13.13539,44.087273 1.17917,17.63231 -0.60329,24.49865 5.49822,32.3885 l 6.00553,4.66395 c 0.19198,-0.36276 0.90492,0.36273 1.31629,0.63481 -3.81171,8.55056 -1.98814,6.85342 -6.86934,10.58458 -4.09967,-2.97976 -9.3648,-4.00325 -15.02756,-3.84777 -15.20577,19.8995 2.82455,7.34572 -36.033183,36.53422 -12.737763,22.30922 -27.257987,30.16021 -35.032283,69.41509 l -3.702042,11.0898 -0.8501,42.31237 7.335541,65.01023 c 0.726693,8.6153 -1.412279,17.50275 -0.534754,25.15939 l 20.306381,0.66072 c -5.786136,4.70282 -10.009224,5.10442 9.789854,25.17234 -15.233229,3.45911 -29.931703,3.92548 -45.617376,8.13598 -1.41225,0.37574 -2.605138,0.82912 -3.962552,1.23079 -1.384837,-6.07612 -2.125251,-12.3595 -2.125251,-18.81126 V 132.23358 c 0,-49.994917 43.067077,-90.68784 95.978815,-90.68784 h 329.07032 c 52.91175,0 95.97883,40.692923 95.97883,90.68784 z"
   id="path2"
   style="stroke-width:13.3282" /><g
   id="g893"
   transform="matrix(14.69317,0,0,14.91316,-86.844687,642.94721)"><path
     fill="#ff9900"
     d="m 15.799071,9.7542857 -3.0756,-3.7288 h -0.015 v 3.7288 h -1.106 v -10.7316 h 1.106 v 6.0934 h 0.015 l 2.6364,-2.5314 h 1.4392 l -3.1514,2.9254 3.5606,4.2442 z"
     id="path18"
     style="stroke-width:0.2" /><path
     fill="#ff9900"
     d="m 18.495671,1.0840857 c -0.4242,0 -0.7726,-0.3486 -0.7726,-0.773 0,-0.4246 0.3484,-0.773 0.7726,-0.773 0.4242,0 0.7726,0.3484 0.7726,0.773 0,0.4244 -0.3484,0.773 -0.7726,0.773 z m -0.5454,8.6702 v -7.1696 h 1.1058 v 7.1696 z"
     id="path20"
     style="stroke-width:0.2" /><path
     fill="#ff9900"
     d="m 25.271871,9.7542857 v -4.4108 c 0,-0.8944 -0.1514,-1.8948 -1.2424,-1.8948 -0.8788,0 -1.6816,0.6214 -2.227,1.0916 v 5.2142 h -1.106 v -7.1698 h 0.909 l 0.1516,0.864 c 0.7876,-0.6062 1.5606,-1.0458 2.5606,-1.0458 1.03,0 2.0604,0.7426 2.0604,2.5314 v 4.8202 h -1.1062 z"
     id="path22"
     style="stroke-width:0.2" /><path
     fill="#ff9900"
     d="m 31.256071,9.9058857 c -1.9998,0 -3.6816,-1.167 -3.6816,-3.6378 0,-2.228 1.6058,-3.8652 3.6966,-3.8652 0.515,0 0.879,0.0454 1.1666,0.1212 v -3.5014 h 1.106 v 10.3678 c -0.4392,0.2578 -1.2724,0.5154 -2.2876,0.5154 z m 1.1818,-6.351 c -0.2876,-0.1062 -0.5454,-0.1818 -1.1058,-0.1818 -1.4092,0 -2.6364,1.1066 -2.6364,2.8194 0,1.6218 0.894,2.7738 2.7574,2.7738 0.3634,0 0.7576,-0.0758 0.9848,-0.1818 z"
     id="path24"
     style="stroke-width:0.2" /><path
     fill="#ff9900"
     d="m 36.422271,9.9058857 c -0.8788,0 -1.2574,-0.5608 -1.2574,-1.3188 v -9.5644 h 1.106 v 9.0642 c 0,0.682 0.1666,0.8186 0.5908,0.8186 0.0758,0 0.197,0 0.3788,-0.0454 l 0.1366,0.8034 c -0.3336,0.1666 -0.5912,0.2424 -0.9548,0.2424 z"
     id="path26"
     style="stroke-width:0.2" /><path
     fill="#ff9900"
     d="m 39.164271,6.3590857 c 0,1.3642 0.7878,2.5916 2.3332,2.5916 0.6516,0 1.3182,-0.2574 1.7424,-0.5302 l 0.3484,0.788 c -0.5302,0.3638 -1.4392,0.6972 -2.2272,0.6972 -2.2876,0 -3.3788,-1.834 -3.3788,-3.8804 0,-2.0766 1.1818,-3.6226 2.909,-3.6226 1.8484,0 2.8634,1.4704 2.8634,3.6986 0,0.0758 0,0.1666 0,0.2578 z m 1.7422,-3.0164 c -1.0604,0 -1.7272,0.9398 -1.7272,2.0766 h 3.3788 c 0,-1.0004 -0.5604,-2.0766 -1.6516,-2.0766 z"
     id="path28"
     style="stroke-width:0.2" /></g><text
   xml:space="preserve"
   style="font-style:normal;font-weight:normal;font-size:99.1871px;line-height:1.25;font-family:sans-serif;fill:#b4000a;fill-opacity:1;stroke:none;stroke-width:2.47965"
   x="362.95755"
   y="133.31718"
   id="text837"
   transform="scale(0.86301501,1.1587284)"><tspan
     sodipodi:role="line"
     id="tspan835"
     x="362.95755"
     y="133.31718"
     style="fill:#b4000a;fill-opacity:1;stroke-width:2.47965">azw3</tspan></text></svg>
