<?xml version="1.0" encoding="UTF-8" standalone="no"?>
<svg
   xmlns:dc="http://purl.org/dc/elements/1.1/"
   xmlns:cc="http://creativecommons.org/ns#"
   xmlns:rdf="http://www.w3.org/1999/02/22-rdf-syntax-ns#"
   xmlns:svg="http://www.w3.org/2000/svg"
   xmlns="http://www.w3.org/2000/svg"
   xmlns:sodipodi="http://sodipodi.sourceforge.net/DTD/sodipodi-0.dtd"
   xmlns:inkscape="http://www.inkscape.org/namespaces/inkscape"
   id="Icons"
   height="50"
   viewBox="0 0 7.2265625 7.2265625"
   width="50"
   version="1.1"
   sodipodi:docname="newdownloads.svg"
   inkscape:version="1.0.2-2 (e86c870879, 2021-01-15)">
  <metadata
     id="metadata13">
    <rdf:RDF>
      <cc:Work
         rdf:about="">
        <dc:format>image/svg+xml</dc:format>
        <dc:type
           rdf:resource="http://purl.org/dc/dcmitype/StillImage" />
        <dc:title></dc:title>
      </cc:Work>
    </rdf:RDF>
  </metadata>
  <defs
     id="defs11" />
  <sodipodi:namedview
     pagecolor="#ffffff"
     bordercolor="#666666"
     borderopacity="1"
     objecttolerance="10"
     gridtolerance="10"
     guidetolerance="10"
     inkscape:pageopacity="0"
     inkscape:pageshadow="2"
     inkscape:window-width="2904"
     inkscape:window-height="1527"
     id="namedview9"
     showgrid="false"
     inkscape:zoom="7.875"
     inkscape:cx="110.86531"
     inkscape:cy="56.765157"
     inkscape:window-x="501"
     inkscape:window-y="179"
     inkscape:window-maximized="0"
     inkscape:current-layer="Icons"
     inkscape:document-rotation="0" />
  <path
     d="M 7.1183189,7.22657 H 0.10824369 A 0.10824365,0.10323661 0 0 1 0,7.1233333 V 5.6190728 a 0.10824365,0.10323661 0 0 1 0.21648728,0 V 7.0200967 H 7.0100753 V 5.6190728 a 0.10824365,0.10323661 0 0 1 0.2164872,0 V 7.1233333 A 0.10824365,0.10323661 0 0 1 7.1183189,7.22657 Z"
     id="path2"
     style="stroke-width:0.10571" />
  <path
     d="M 3.5903274,6.056582 A 0.10434446,0.10323661 0 0 1 3.4859829,5.9533454 V 0.10323665 a 0.1043445,0.10323665 0 0 1 0.208689,0 V 5.9533454 A 0.10434446,0.10323661 0 0 1 3.5903274,6.056582 Z"
     id="path4"
     style="stroke-width:0.103789" />
  <path
     d="M 3.5903274,6.056582 A 0.10434446,0.10323661 0 0 1 3.5165559,6.0263337 L 2.0745155,4.5996038 A 0.10434446,0.10323661 0 0 1 2.2220586,4.4536272 L 3.5903274,5.8072656 4.9584919,4.4536272 A 0.10434446,0.10323661 0 0 1 5.106035,4.5996038 L 3.6639946,6.0263337 a 0.10434446,0.10323661 0 0 1 -0.073667,0.030248 z"
     id="path6"
     style="stroke-width:0.103789" />
  <path
     d="M 1.5451041,3.8313037 A 0.10434446,0.0644812 0 0 1 1.4407596,3.7668226 V 0.11286635 a 0.10434446,0.0644812 0 0 1 0.2086889,0 V 3.7668226 a 0.10434446,0.0644812 0 0 1 -0.1043444,0.064481 z"
     id="path4-3"
     style="stroke-width:0.0820258" />
  <path
     d="M 5.6815641,3.7919141 A 0.10434446,0.0644812 0 0 1 5.5772197,3.7274329 V 0.07347675 a 0.10434446,0.0644812 0 0 1 0.2086889,0 V 3.7274329 a 0.10434446,0.0644812 0 0 1 -0.1043445,0.064481 z"
     id="path4-3-7"
     style="stroke-width:0.0820258" />
  <path
     d="M 5.6815641,4.0412305 A 0.10434446,0.10323661 0 0 1 5.6077931,4.0109822 L 4.1657527,2.5842523 A 0.10434446,0.10323661 0 0 1 4.3132953,2.4382756 L 5.6815641,3.7919141 7.0497286,2.4382756 A 0.10434446,0.10323661 0 0 1 7.1972717,2.5842523 L 5.7552313,4.0109822 a 0.10434446,0.10323661 0 0 1 -0.073667,0.030248 z"
     id="path6-6"
     style="stroke-width:0.103789" />
  <path
     d="M 1.5451041,4.0806201 A 0.10434446,0.10323661 0 0 1 1.4713321,4.0503718 L 0.02929167,2.6236419 A 0.10434446,0.10323661 0 0 1 0.17683477,2.4776653 L 1.5451037,3.8313037 2.9132682,2.4776653 a 0.10434446,0.10323661 0 0 1 0.147543,0.1459766 L 1.6187709,4.0503718 a 0.10434446,0.10323661 0 0 1 -0.073667,0.030248 z"
     id="path6-9"
     style="stroke-width:0.103789" />
</svg>
