<?xml version="1.0" encoding="UTF-8" standalone="no"?>
<svg
   xmlns:dc="http://purl.org/dc/elements/1.1/"
   xmlns:cc="http://creativecommons.org/ns#"
   xmlns:rdf="http://www.w3.org/1999/02/22-rdf-syntax-ns#"
   xmlns:svg="http://www.w3.org/2000/svg"
   xmlns="http://www.w3.org/2000/svg"
   xmlns:sodipodi="http://sodipodi.sourceforge.net/DTD/sodipodi-0.dtd"
   xmlns:inkscape="http://www.inkscape.org/namespaces/inkscape"
   version="1.1"
   x="0px"
   y="0px"
   viewBox="0 0 50 50"
   enable-background="new 0 0 1000 1000"
   xml:space="preserve"
   id="svg38"
   sodipodi:docname="download.svg"
   width="50"
   height="50"
   inkscape:version="1.0.2-2 (e86c870879, 2021-01-15)"><defs
   id="defs42" /><sodipodi:namedview
   pagecolor="#ffffff"
   bordercolor="#666666"
   borderopacity="1"
   objecttolerance="10"
   gridtolerance="10"
   guidetolerance="10"
   inkscape:pageopacity="0"
   inkscape:pageshadow="2"
   inkscape:window-width="2982"
   inkscape:window-height="1922"
   id="namedview40"
   showgrid="false"
   inkscape:zoom="11.404218"
   inkscape:cx="21.900576"
   inkscape:cy="46.395566"
   inkscape:window-x="467"
   inkscape:window-y="95"
   inkscape:window-maximized="0"
   inkscape:current-layer="svg38" />
<metadata
   id="metadata2"> Svg Vector Icons : http://www.onlinewebfonts.com/icon <rdf:RDF><cc:Work
     rdf:about=""><dc:format>image/svg+xml</dc:format><dc:type
       rdf:resource="http://purl.org/dc/dcmitype/StillImage" /><dc:title></dc:title></cc:Work></rdf:RDF></metadata>
<g
   id="g36"
   transform="matrix(0.05842544,0,0,0.05102041,-4.2124742,-0.5102041)"><path
     d="m 926.8,671.7 c -1.7,-3.4 -5.2,-5.5 -8.9,-5.5 H 872.1 V 20 c 0,-5.5 -4.5,-10 -10,-10 H 199.3 C 129.2,10 72.1,67.1 72.1,137.2 V 900 c 0,49.6 40.4,90 90,90 H 862 c 0,0 0.1,0 0.1,0 0.6,0 1.1,-0.1 1.7,-0.2 0.1,0 0.2,0 0.3,-0.1 0.5,-0.1 1,-0.3 1.5,-0.5 0.2,-0.1 0.3,-0.1 0.4,-0.2 0.4,-0.2 0.9,-0.4 1.3,-0.7 0.2,-0.1 0.3,-0.2 0.5,-0.3 0.4,-0.3 0.8,-0.6 1.1,-0.9 0.1,-0.1 0.3,-0.3 0.4,-0.4 0.1,-0.1 0.2,-0.2 0.4,-0.4 0.1,-0.1 0.1,-0.2 0.2,-0.3 0.3,-0.4 0.5,-0.7 0.8,-1.1 0.1,-0.2 0.2,-0.4 0.3,-0.6 0.2,-0.4 0.4,-0.8 0.5,-1.2 0.1,-0.2 0.1,-0.4 0.2,-0.7 0.1,-0.4 0.2,-0.8 0.2,-1.2 0,-0.3 0.1,-0.5 0.1,-0.8 0,-0.2 0.1,-0.4 0.1,-0.6 V 820 757.2 l 53.9,-75 c 2.2,-3.1 2.5,-7.1 0.8,-10.5 z M 92.2,137.2 c 0,-49.7 34,-91.5 79.9,-103.6 v 667.9 c 0,5.5 4.5,10 10,10 5.5,0 10,-4.5 10,-10 V 30.4 c 2.4,-0.2 4.7,-0.3 7.1,-0.3 H 852 V 666.3 H 795.1 V 380 c 0,-5.5 -4.5,-10 -10,-10 H 614.2 c -5.5,0 -10,4.5 -10,10 V 666.3 H 481.4 c -3.8,0 -7.2,2.1 -8.9,5.5 -1.7,3.4 -1.4,7.4 0.8,10.4 L 565.1,810 H 192.2 v -31.1 c 0,-5.5 -4.5,-10 -10,-10 -5.5,0 -10,4.5 -10,10 V 810 h -10 c -28.2,0 -53.4,13.1 -69.9,33.4 V 137.2 Z m 0,762.8 c 0,-38.6 31.4,-69.9 69.9,-69.9 h 417.4 l 27,37.6 H 162.2 c -5.5,0 -10,4.5 -10,10 0,5.5 4.5,10 10,10 H 620.9 L 642,917 H 162.2 c -5.5,0 -10,4.5 -10,10 0,5.5 4.5,10 10,10 H 656.4 L 680,969.9 H 162.1 c -38.5,0 -69.9,-31.4 -69.9,-69.9 z m 650.6,37.1 h 31.6 c 5.5,0 10,-4.5 10,-10 0,-5.5 -4.5,-10 -10,-10 h -17.1 l 62.5,-86.9 h 21.6 c -11.7,16.5 -26.8,43.1 -26.8,69.9 0,30.8 13.2,54.8 24.7,69.9 h -120 z M 834.7,900 c 0,-17.5 8.7,-35.8 17.3,-49.7 V 953.1 C 843.4,940.5 834.7,922.2 834.7,900 Z M 852,810 H 834.2 L 852,785.2 Z M 699.6,962.7 501,686.4 h 113.3 c 5.5,0 10,-4.5 10,-10 V 390.1 H 775 v 286.3 c 0,5.5 4.5,10 10,10 h 113.3 z"
     id="path4" /><g
     id="g6" /><g
     id="g8" /><g
     id="g10" /><g
     id="g12" /><g
     id="g14" /><g
     id="g16" /><g
     id="g18" /><g
     id="g20" /><g
     id="g22" /><g
     id="g24" /><g
     id="g26" /><g
     id="g28" /><g
     id="g30" /><g
     id="g32" /><g
     id="g34" /></g>
</svg>
