<?xml version="1.0" encoding="UTF-8" standalone="no"?>
<svg
   xmlns:dc="http://purl.org/dc/elements/1.1/"
   xmlns:cc="http://creativecommons.org/ns#"
   xmlns:rdf="http://www.w3.org/1999/02/22-rdf-syntax-ns#"
   xmlns:svg="http://www.w3.org/2000/svg"
   xmlns="http://www.w3.org/2000/svg"
   xmlns:sodipodi="http://sodipodi.sourceforge.net/DTD/sodipodi-0.dtd"
   xmlns:inkscape="http://www.inkscape.org/namespaces/inkscape"
   version="1.1"
   id="Capa_1"
   x="0px"
   y="0px"
   viewBox="0 0 54 29"
   xml:space="preserve"
   sodipodi:docname="grid.svg"
   width="54"
   height="29"
   inkscape:version="1.0.2-2 (e86c870879, 2021-01-15)"><rect
   style="fill:none;fill-rule:evenodd;stroke:#000000;stroke-width:1;stroke-linecap:butt;stroke-linejoin:miter;stroke-miterlimit:4;stroke-dasharray:none;stroke-opacity:1"
   id="rect851-0-1"
   width="3.8084605"
   height="3.8084621"
   x="2.5"
   y="2.5" /><metadata
   id="metadata26"><rdf:RDF><cc:Work
       rdf:about=""><dc:format>image/svg+xml</dc:format><dc:type
         rdf:resource="http://purl.org/dc/dcmitype/StillImage" /><dc:title></dc:title></cc:Work></rdf:RDF></metadata><defs
   id="defs47"><rect
     x="56.481514"
     y="32.026497"
     width="35.246552"
     height="37.85741"
     id="rect874" /></defs><sodipodi:namedview
   id="namedview45"
   pagecolor="#ffffff"
   bordercolor="#666666"
   borderopacity="1.0"
   inkscape:pageshadow="2"
   inkscape:pageopacity="0.0"
   inkscape:pagecheckerboard="0"
   showgrid="false"
   width="25px"
   inkscape:zoom="11.490485"
   inkscape:cx="28.232953"
   inkscape:cy="6.9740586"
   inkscape:window-width="3840"
   inkscape:window-height="2072"
   inkscape:window-x="-5"
   inkscape:window-y="-5"
   inkscape:window-maximized="1"
   inkscape:current-layer="Capa_1"
   inkscape:document-rotation="0" />


<g
   id="g14">
</g>
<g
   id="g16">
</g>
<g
   id="g18">
</g>
<g
   id="g20">
</g>
<g
   id="g22">
</g>
<g
   id="g24">
</g>
<g
   id="g26">
</g>
<g
   id="g28">
</g>
<g
   id="g30">
</g>
<g
   id="g32">
</g>
<g
   id="g34">
</g>
<g
   id="g36">
</g>
<g
   id="g38">
</g>
<g
   id="g40">
</g>
<g
   id="g42">
</g>
<rect
   style="fill:none;fill-rule:evenodd;stroke:#000000;stroke-width:1;stroke-linecap:butt;stroke-linejoin:miter;stroke-miterlimit:4;stroke-dasharray:none;stroke-opacity:1"
   id="rect851-0-1-8"
   width="3.8084605"
   height="3.8084621"
   x="2.5"
   y="9.2031155" /><rect
   style="fill:none;fill-rule:evenodd;stroke:#000000;stroke-width:1;stroke-linecap:butt;stroke-linejoin:miter;stroke-miterlimit:4;stroke-dasharray:none;stroke-opacity:1"
   id="rect851-0-1-3"
   width="3.8084605"
   height="3.8084621"
   x="2.5"
   y="15.858425" /><rect
   style="fill:none;fill-rule:evenodd;stroke:#000000;stroke-width:1;stroke-linecap:butt;stroke-linejoin:miter;stroke-miterlimit:4;stroke-dasharray:none;stroke-opacity:1"
   id="rect851-0-1-30"
   width="3.8084605"
   height="3.8084621"
   x="2.5"
   y="22.45582" /><rect
   style="fill:none;fill-rule:evenodd;stroke:#000000;stroke-width:1;stroke-linecap:butt;stroke-linejoin:miter;stroke-miterlimit:4;stroke-dasharray:none;stroke-opacity:1"
   id="rect851-0-1-0"
   width="3.8084605"
   height="3.8084621"
   x="9.0892334"
   y="2.5" /><rect
   style="fill:none;fill-rule:evenodd;stroke:#000000;stroke-width:1;stroke-linecap:butt;stroke-linejoin:miter;stroke-miterlimit:4;stroke-dasharray:none;stroke-opacity:1"
   id="rect851-0-1-8-9"
   width="3.8084605"
   height="3.8084621"
   x="9.0892334"
   y="9.2322321" /><rect
   style="fill:none;fill-rule:evenodd;stroke:#000000;stroke-width:1;stroke-linecap:butt;stroke-linejoin:miter;stroke-miterlimit:4;stroke-dasharray:none;stroke-opacity:1"
   id="rect851-0-1-3-0"
   width="3.8084605"
   height="3.8084621"
   x="9.0892334"
   y="15.887542" /><rect
   style="fill:none;fill-rule:evenodd;stroke:#000000;stroke-width:1;stroke-linecap:butt;stroke-linejoin:miter;stroke-miterlimit:4;stroke-dasharray:none;stroke-opacity:1"
   id="rect851-0-1-30-5"
   width="3.8084605"
   height="3.8084621"
   x="9.0892334"
   y="22.45582" /><rect
   style="fill:none;fill-rule:evenodd;stroke:#000000;stroke-width:1;stroke-linecap:butt;stroke-linejoin:miter;stroke-miterlimit:4;stroke-dasharray:none;stroke-opacity:1"
   id="rect851-0-1-2"
   width="3.8084605"
   height="3.8084621"
   x="15.678467"
   y="2.5" /><rect
   style="fill:none;fill-rule:evenodd;stroke:#000000;stroke-width:1;stroke-linecap:butt;stroke-linejoin:miter;stroke-miterlimit:4;stroke-dasharray:none;stroke-opacity:1"
   id="rect851-0-1-8-3"
   width="3.8084605"
   height="3.8084621"
   x="15.678467"
   y="9.1553087" /><rect
   style="fill:none;fill-rule:evenodd;stroke:#000000;stroke-width:1;stroke-linecap:butt;stroke-linejoin:miter;stroke-miterlimit:4;stroke-dasharray:none;stroke-opacity:1"
   id="rect851-0-1-3-1"
   width="3.8084605"
   height="3.8084621"
   x="15.678467"
   y="15.810619" /><rect
   style="fill:none;fill-rule:evenodd;stroke:#000000;stroke-width:1;stroke-linecap:butt;stroke-linejoin:miter;stroke-miterlimit:4;stroke-dasharray:none;stroke-opacity:1"
   id="rect851-0-1-30-7"
   width="3.8084605"
   height="3.8084621"
   x="15.678467"
   y="22.45582" /><rect
   style="fill:none;fill-rule:evenodd;stroke:#000000;stroke-width:1;stroke-linecap:butt;stroke-linejoin:miter;stroke-miterlimit:4;stroke-dasharray:none;stroke-opacity:1"
   id="rect851-0-1-5"
   width="3.8084605"
   height="3.8084621"
   x="22.267696"
   y="2.5" /><rect
   style="fill:none;fill-rule:evenodd;stroke:#000000;stroke-width:1;stroke-linecap:butt;stroke-linejoin:miter;stroke-miterlimit:4;stroke-dasharray:none;stroke-opacity:1"
   id="rect851-0-1-8-39"
   width="3.8084605"
   height="3.8084621"
   x="22.267696"
   y="9.2014637" /><rect
   style="fill:none;fill-rule:evenodd;stroke:#000000;stroke-width:1;stroke-linecap:butt;stroke-linejoin:miter;stroke-miterlimit:4;stroke-dasharray:none;stroke-opacity:1"
   id="rect851-0-1-3-5"
   width="3.8084605"
   height="3.8084621"
   x="22.267696"
   y="15.856772" /><rect
   style="fill:none;fill-rule:evenodd;stroke:#000000;stroke-width:1;stroke-linecap:butt;stroke-linejoin:miter;stroke-miterlimit:4;stroke-dasharray:none;stroke-opacity:1"
   id="rect851-0-1-30-55"
   width="3.8084605"
   height="3.8084621"
   x="22.267696"
   y="22.45582" /><path
   d="m 34.239245,18.01268 q -0.715,0 -1.32,-0.253 -0.594,-0.253 -1.023,-0.726 -0.429,-0.484 -0.671,-1.177 -0.242,-0.704 -0.242,-1.584 0,-0.869 0.242,-1.562 0.253,-0.693 0.693,-1.177 0.44,-0.484 1.045,-0.737 0.616,-0.264 1.331,-0.264 0.374,0 0.682,0.077 0.319,0.077 0.572,0.209 0.264,0.121 0.462,0.286 0.209,0.154 0.363,0.319 l -0.506,0.594 q -0.275,-0.286 -0.638,-0.484 -0.363,-0.198 -0.913,-0.198 -0.55,0 -0.99,0.209 -0.44,0.198 -0.748,0.583 -0.308,0.374 -0.484,0.913 -0.165,0.539 -0.165,1.21 0,0.682 0.154,1.232 0.165,0.539 0.462,0.924 0.308,0.385 0.748,0.594 0.451,0.209 1.034,0.209 0.385,0 0.726,-0.11 0.352,-0.121 0.572,-0.319 v -1.881 h -1.529 v -0.759 h 2.365 v 3.036 q -0.352,0.363 -0.924,0.605 -0.572,0.231 -1.298,0.231 z"
   style="font-style:normal;font-variant:normal;font-weight:normal;font-stretch:normal;font-size:11px;line-height:1.25;font-family:'Source Sans Pro';-inkscape-font-specification:'Source Sans Pro';fill:#000000"
   id="path880" /><path
   d="m 38.100231,12.53468 h 0.748 l 0.077,0.968 h 0.033 q 0.275,-0.506 0.66,-0.803 0.396,-0.297 0.858,-0.297 0.319,0 0.572,0.11 l -0.176,0.792 q -0.132,-0.044 -0.242,-0.066 -0.11,-0.022 -0.275,-0.022 -0.341,0 -0.715,0.275 -0.363,0.275 -0.638,0.957 v 3.432 h -0.902 z"
   style="font-style:normal;font-variant:normal;font-weight:normal;font-stretch:normal;font-size:11px;line-height:1.25;font-family:'Source Sans Pro';-inkscape-font-specification:'Source Sans Pro';fill:#000000"
   id="path882" /><path
   d="m 41.917211,12.53468 h 0.902 v 5.346 h -0.902 z m 0.462,-1.1 q -0.264,0 -0.451,-0.165 -0.176,-0.165 -0.176,-0.418 0,-0.264 0.176,-0.418 0.187,-0.165 0.451,-0.165 0.264,0 0.44,0.165 0.187,0.154 0.187,0.418 0,0.253 -0.187,0.418 -0.176,0.165 -0.44,0.165 z"
   style="font-style:normal;font-variant:normal;font-weight:normal;font-stretch:normal;font-size:11px;line-height:1.25;font-family:'Source Sans Pro';-inkscape-font-specification:'Source Sans Pro';fill:#000000"
   id="path884" /><path
   d="m 46.449193,18.01268 q -1.012,0 -1.617,-0.726 -0.594,-0.726 -0.594,-2.068 0,-0.649 0.187,-1.166 0.198,-0.528 0.517,-0.891 0.319,-0.363 0.737,-0.561 0.418,-0.198 0.88,-0.198 0.462,0 0.803,0.165 0.341,0.165 0.693,0.451 l -0.044,-0.913 v -2.057 h 0.913 v 7.832 h -0.748 l -0.077,-0.627 h -0.033 q -0.319,0.308 -0.737,0.539 -0.407,0.22 -0.88,0.22 z m 0.198,-0.759 q 0.374,0 0.704,-0.176 0.33,-0.187 0.66,-0.561 v -2.794 q -0.341,-0.308 -0.66,-0.429 -0.308,-0.132 -0.638,-0.132 -0.319,0 -0.605,0.154 -0.275,0.143 -0.484,0.418 -0.209,0.264 -0.33,0.638 -0.121,0.374 -0.121,0.836 0,0.968 0.385,1.507 0.385,0.539 1.089,0.539 z"
   style="font-style:normal;font-variant:normal;font-weight:normal;font-stretch:normal;font-size:11px;line-height:1.25;font-family:'Source Sans Pro';-inkscape-font-specification:'Source Sans Pro';fill:#000000"
   id="path886" /><text
   xml:space="preserve"
   id="text872"
   style="font-size:16px;line-height:1.25;font-family:sans-serif;white-space:pre;shape-inside:url(#rect874);" /><rect
   style="fill:none;fill-rule:evenodd;stroke:#bbbbbb;stroke-width:1.205;stroke-opacity:1;stroke-miterlimit:4;stroke-dasharray:none"
   id="rect878"
   width="52.795422"
   height="27.795427"
   x="0.60228479"
   y="0.60228479" /></svg>
