<svg id="Layer_1" data-name="Layer 1" xmlns="http://www.w3.org/2000/svg" viewBox="0 0 61.49 14.56"><defs><style>.cls-1{fill:#222;}</style></defs><title>Internet archive logo</title><path class="cls-1" d="M12.94,13.88v.67H0v-.67Zm-.51-1v.85H.51v-.85ZM1.76,3.72l.14.07L2,4.94,2,6.79V8.57L2,10.8v1.49l-.2.06H1.05l-.22-.06L.75,10.8.68,8.58V6.8L.75,4.94.82,3.79,1,3.72ZM12,3.72l.14.07.08,1.15.07,1.85V8.57l-.07,2.23,0,1.49-.2.06h-.71l-.21-.06L11,10.8l-.08-2.22V6.8L11,4.94,11,3.79l.15-.07Zm-7.15,0L5,3.79,5,4.94l.07,1.85V8.57L5,10.8l0,1.49-.2.06H4.11l-.21-.06L3.82,10.8,3.75,8.58V6.8l.07-1.86.06-1.15L4,3.72Zm3.92,0,.14.07L9,4.94,9,6.79V8.57L9,10.8v1.49l-.2.06H8l-.22-.06L7.73,10.8,7.66,8.58V6.8l.07-1.86L7.8,3.79l.14-.07ZM12.43,2.2V3.38H.51V2.2ZM6.35,0,12.6,1.42l-.25.44H.37L0,1.51Z" transform="translate(0 0)"/><g id="Layer_1-2" data-name="Layer 1-2"><g id="A"><path class="cls-1" d="M15.5,5.76V5.54c.68,0,.77-.17.78-.8V1c0-.63-.1-.81-.77-.81V0H18V.21c-.67,0-.77.18-.77.81V4.74c0,.62.1.81.77.81v.21Z" transform="translate(0 0)"/><path class="cls-1" d="M23.77,5.77l-3-4.88V5.76h-.59V1.1c0-.81-.12-.77-.92-.92V0h2l2.75,4.67V0h.57V5.77Z" transform="translate(0 0)"/><path class="cls-1" d="M30.49,1.33c0-.68-.3-.88-1-.88H28.9V5.76h-1V.4h-.61c-.69,0-.91.2-1,.85h-.26V0h4.56V1.33Z" transform="translate(0 0)"/><path class="cls-1" d="M36.53,5.76H33V1.16c0-.82,0-.85-.85-1V0H36.4V1.33h-.23c0-.64-.34-.87-1-.87H34.5c-.42,0-.57,0-.57.45V2.55H35c.51,0,.65-.22.73-.66H36v1.8h-.26c0-.49-.22-.74-.73-.74H33.92V4.86c0,.47.12.5.57.5h1c.61,0,.75-.29.81-.85h.24Z" transform="translate(0 0)"/><path class="cls-1" d="M41.91,5.76,40.33,3.11h-.55V5.75h-1V1.16c0-.82,0-.86-.85-1V0h2.29c1.08,0,2.4.23,2.4,1.54a1.32,1.32,0,0,1-1.36,1.4l1.63,2.82ZM40.39.46c-.65,0-.61.24-.61.78v1.4h.51c.77,0,1.4-.28,1.4-1.11S41.32.4,40.39.4Z" transform="translate(0 0)"/><path class="cls-1" d="M48.7,5.76,45.78.88V5.75h-.54V1.09c0-.8-.13-.76-.9-.91V0h2L49,4.66V0h.61V5.76Z" transform="translate(0 0)"/><path class="cls-1" d="M55.4,5.76H51.87V1.16c0-.82,0-.85-.84-1V0h4.23V1.33H55c0-.64-.33-.87-1-.87h-.59c-.42,0-.57,0-.57.45V2.55h1c.51,0,.64-.22.72-.66h.26v1.8h-.26c0-.49-.21-.74-.72-.74H52.81V4.86c0,.47.12.5.57.5h1c.61,0,.75-.29.81-.85h.24Z" transform="translate(0 0)"/><path class="cls-1" d="M61.23,1.33c0-.73-.29-.93-1-.93h-.62V5.76h-1V.4h-.61c-.69,0-.93.2-1,.85h-.26l0-1.24h4.61V1.33Z" transform="translate(0 0)"/></g></g><g id="Layer_1-2-2" data-name="Layer 1-2"><g id="A-2" data-name="A"><path class="cls-1" d="M19,14.45l-.67-1.9H16.48l-.56,1.89h-.45l1.47-4.93A4.88,4.88,0,0,0,17.06,9c0-.38-.34-.38-.57-.42v-.2h1.44l1.87,6.11Zm-1.6-5-.78,2.64h1.61Z" transform="translate(0 0)"/><path class="cls-1" d="M24.52,14.47l-1.35-2.84h-.48v2.84h-.82V9.57c0-.86,0-.9-.71-1v-.2H23.1c.92,0,2,.24,2,1.64A1.33,1.33,0,0,1,24,11.47l1.4,3Zm-1.31-5.7c-.52,0-.52.24-.52.82v1.62h.44A1,1,0,0,0,24.3,10C24.3,9.15,23.93,8.77,23.21,8.77Z" transform="translate(0 0)"/><path class="cls-1" d="M29.08,14.4c-1.74,0-2.23-1.33-2.23-3.17s.48-3,2.11-3a4.47,4.47,0,0,1,1.51.34V10h-.22a1.54,1.54,0,0,0-.15-.55,1.22,1.22,0,0,0-1.18-.79c-1.17,0-1.29,1.48-1.29,2.53-.09,1.31.47,2.5,1.25,2.66a.79.79,0,0,0,.22,0,1.93,1.93,0,0,0,1.32-.45v.69A2.89,2.89,0,0,1,29.08,14.4Z" transform="translate(0 0)"/><path class="cls-1" d="M35.55,14.47v-3h-2v3h-.81V9.56c0-.81-.12-.83-.73-.91v-.2l1.54-.2v2.82h2V8.35h.81v6.12Z" transform="translate(0 0)"/><path class="cls-1" d="M37.75,14.47v-.28c.58,0,.65-.18.65-.84V9.4c0-.66-.07-.84-.65-.84V8.34h2.14v.22c-.56,0-.65.2-.65.84v4c0,.64.09.84.65.84v.22Z" transform="translate(0 0)"/><path class="cls-1" d="M44.3,14.47h-.64l-1.45-5c-.21-.76-.25-.82-.88-1v-.2h1.42l1.44,5h0l1.43-5h.48Z" transform="translate(0 0)"/><path class="cls-1" d="M51.32,14.47h-3V9.57c0-.86,0-.88-.71-1v-.2h3.6V9.69H51c0-.68-.28-.92-.81-.92h-.59c-.35,0-.47,0-.47.48v1.81H50c.44,0,.56-.24.62-.7h.22v1.91h-.22c0-.52-.17-.78-.62-.78h-.9v2c0,.49.09.53.47.53h.84c.52,0,.64-.32.68-.91h.21Z" transform="translate(0 0)"/></g></g></svg>