<?xml version="1.0" encoding="UTF-8" standalone="no"?>
<svg
   height="50"
   viewBox="0 0 17.578093 5.5664062"
   width="150"
   version="1.1"
   id="svg9"
   sodipodi:docname="library.svg"
   inkscape:version="1.2.1 (9c6d41e410, 2022-07-14)"
   xmlns:inkscape="http://www.inkscape.org/namespaces/inkscape"
   xmlns:sodipodi="http://sodipodi.sourceforge.net/DTD/sodipodi-0.dtd"
   xmlns="http://www.w3.org/2000/svg"
   xmlns:svg="http://www.w3.org/2000/svg"
   xmlns:rdf="http://www.w3.org/1999/02/22-rdf-syntax-ns#"
   xmlns:cc="http://creativecommons.org/ns#"
   xmlns:dc="http://purl.org/dc/elements/1.1/">
  <metadata
     id="metadata15">
    <rdf:RDF>
      <cc:Work
         rdf:about="">
        <dc:format>image/svg+xml</dc:format>
        <dc:type
           rdf:resource="http://purl.org/dc/dcmitype/StillImage" />
      </cc:Work>
    </rdf:RDF>
  </metadata>
  <defs
     id="defs13">
    <rect
       x="65.680495"
       y="5.0793651"
       width="56.732204"
       height="26.134623"
       id="rect702" />
    <rect
       x="59.428571"
       y="15.416649"
       width="79.238095"
       height="34.583351"
       id="rect678" />
    <rect
       x="71.619048"
       y="19.301587"
       width="78.380952"
       height="30.698413"
       id="rect672" />
    <rect
       x="67.047619"
       y="12.08331"
       width="57.396825"
       height="18.900817"
       id="rect666" />
    <rect
       x="75"
       y="18.793651"
       width="41.31746"
       height="18.285714"
       id="rect660" />
  </defs>
  <sodipodi:namedview
     pagecolor="#ffffff"
     bordercolor="#666666"
     borderopacity="1"
     objecttolerance="10"
     gridtolerance="10"
     guidetolerance="10"
     inkscape:pageopacity="0"
     inkscape:pageshadow="2"
     inkscape:window-width="3840"
     inkscape:window-height="2066"
     id="namedview11"
     showgrid="false"
     inkscape:zoom="1.96875"
     inkscape:cx="38.349206"
     inkscape:cy="256.50794"
     inkscape:window-x="-11"
     inkscape:window-y="-11"
     inkscape:window-maximized="1"
     inkscape:current-layer="svg9"
     inkscape:document-rotation="0"
     inkscape:showpageshadow="2"
     inkscape:pagecheckerboard="0"
     inkscape:deskcolor="#d1d1d1" />
  <g
     id="Page-1"
     fill="none"
     fill-rule="evenodd"
     transform="matrix(-0.09765625,0,0,0.09765625,5.859375,0)">
    <g
       id="029---Book-Shelf"
       fill="#000000"
       fill-rule="nonzero">
      <path
         id="Shape"
         d="M 57,43 H 56 V 8 C 56,6.3431457 54.656854,5 53,5 h -3 c -1.656854,0 -3,1.3431457 -3,3 v 3.184 C 46.679743,11.065562 46.34144,11.003314 46,11 h -3 c -0.34144,0.0033 -0.679743,0.06556 -1,0.184 V 3 C 42,1.3431458 40.656854,0 39,0 H 29 C 27.343146,0 26,1.3431458 26,3 V 8.184 C 25.679743,8.0655623 25.34144,8.0033144 25,8 H 21 C 20.604047,7.999729 20.212034,8.0786076 19.847,8.232 19.534527,7.2667645 18.755372,6.5248555 17.776,6.26 l -2.9,-0.776 C 14.10726,5.2775257 13.287978,5.385024 12.598526,5.782828 11.909074,6.180632 11.405978,6.8361274 11.2,7.605 L 6.162,26.405 4.733,31.753 2.4,40.446 c -0.2085848,0.768574 -0.1005341,1.588679 0.3,2.277 0.061224,0.09903 0.127997,0.194512 0.2,0.286 C 1.2858094,43.062831 0.0039479,44.384917 0,46 v 2 c 0,1.656854 1.3431457,3 3,3 h 1 v 3 c 0,1.656854 1.3431457,3 3,3 h 4 c 1.656854,0 3,-1.343146 3,-3 v -3 h 32 v 3 c 0,1.656854 1.343146,3 3,3 h 4 c 1.656854,0 3,-1.343146 3,-3 v -3 h 1 c 1.656854,0 3,-1.343146 3,-3 v -2 c 0,-1.656854 -1.343146,-3 -3,-3 z m -15,0 v -7 h 5 v 7 z m -14,0 v -4 h 12 v 4 z m -8,0 v -3 h 6 v 3 z m -8.983,0 c 0.026,-0.075 0.06,-0.146 0.081,-0.224 L 18,17.016 V 43 Z M 9.29,22.478 l 1.258,-4.7 4.829,1.294 L 11.754,32.6 6.924,31.306 Z M 28,8 H 40 V 37 H 28 Z M 54,32 H 49 V 18 h 5 z m -7,1 v 1 H 42 V 22 h 5 z M 26,38 H 20 V 15 h 6 z m 23,-3 v -1 h 5 v 9 H 49 Z M 49,8 c 0,-0.5522848 0.447715,-1 1,-1 h 3 c 0.552285,0 1,0.4477152 1,1 v 8 h -5 z m -6,5 h 3 c 0.552285,0 1,0.447715 1,1 v 6 h -5 v -6 c 0,-0.552285 0.447715,-1 1,-1 z M 29,2 h 10 c 0.552285,0 1,0.4477153 1,1 V 6 H 28 V 3 c 0,-0.5522847 0.447715,-1 1,-1 z m -8,8 h 4 c 0.552285,0 1,0.447715 1,1 v 2 h -6 v -2 c 0,-0.552285 0.447715,-1 1,-1 z M 13.136,8.123 C 13.279,7.5899486 13.826808,7.2735268 14.36,7.416 l 2.9,0.776 c 0.256217,0.068663 0.474655,0.2363106 0.607248,0.466051 C 17.999841,8.8877914 18.035724,9.1607997 17.967,9.417 L 15.9,17.145 11.07,15.85 Z m -8.8,32.841 2.07,-7.727 4.831,1.294 -2.071,7.727 C 9.0973484,42.514439 8.9295471,42.733058 8.6995759,42.865675 8.4696048,42.998293 8.1963388,43.034027 7.94,42.965 L 5.04,42.189 C 4.7837834,42.120337 4.5653447,41.952689 4.4327517,41.722949 4.3001586,41.493209 4.2642761,41.2202 4.333,40.964 Z M 12,54 c 0,0.552285 -0.447715,1 -1,1 H 7 C 6.4477152,55 6,54.552285 6,54 v -3 h 6 z m 42,0 c 0,0.552285 -0.447715,1 -1,1 h -4 c -0.552285,0 -1,-0.447715 -1,-1 v -3 h 6 z m 4,-6 c 0,0.552285 -0.447715,1 -1,1 H 3 C 2.4477153,49 2,48.552285 2,48 v -2 c 0,-0.552285 0.4477153,-1 1,-1 h 54 c 0.552285,0 1,0.447715 1,1 z" />
      <path
         id="path3"
         d="m 31,13 h 6 c 0.552285,0 1,-0.447715 1,-1 0,-0.552285 -0.447715,-1 -1,-1 h -6 c -0.552285,0 -1,0.447715 -1,1 0,0.552285 0.447715,1 1,1 z" />
      <path
         id="path5"
         d="m 31,17 h 6 c 0.552285,0 1,-0.447715 1,-1 0,-0.552285 -0.447715,-1 -1,-1 h -6 c -0.552285,0 -1,0.447715 -1,1 0,0.552285 0.447715,1 1,1 z" />
    </g>
  </g>
  <text
     xml:space="preserve"
     transform="matrix(0.11718729,0,0,0.11718729,0,-0.14647907)"
     id="text664"
     style="font-size:17.3333px;white-space:pre;shape-inside:url(#rect666);display:inline;fill:#24221c" />
  <text
     xml:space="preserve"
     transform="matrix(0.13572154,0,0,0.16609471,-2.0440547,-0.83020133)"
     id="text676"
     style="font-size:18.6667px;white-space:pre;shape-inside:url(#rect678);shape-padding:1.52381;display:inline;fill:#24221c"><tspan
       x="60.953125"
       y="33.925774"
       id="tspan854"><tspan
         style="font-weight:600;font-family:'Source Sans 3';-inkscape-font-specification:'Source Sans 3 Semi-Bold'"
         id="tspan852">LIBRARY</tspan></tspan></text>
  <text
     xml:space="preserve"
     transform="matrix(0.11718729,0,0,0.11718729,2.0424068,-0.97828488)"
     id="text700"
     style="font-size:21.3333px;white-space:pre;shape-inside:url(#rect702);display:inline;fill:#24221c"><tspan
       x="65.679688"
       y="24.490718"
       id="tspan858"><tspan
         style="font-weight:600;font-family:'Source Sans 3';-inkscape-font-specification:'Source Sans 3 Semi-Bold'"
         id="tspan856">IN</tspan></tspan></text>
</svg>
