<?xml version="1.0" encoding="UTF-8" standalone="no"?>
<svg
   xmlns:dc="http://purl.org/dc/elements/1.1/"
   xmlns:cc="http://creativecommons.org/ns#"
   xmlns:rdf="http://www.w3.org/1999/02/22-rdf-syntax-ns#"
   xmlns:svg="http://www.w3.org/2000/svg"
   xmlns="http://www.w3.org/2000/svg"
   xmlns:sodipodi="http://sodipodi.sourceforge.net/DTD/sodipodi-0.dtd"
   xmlns:inkscape="http://www.inkscape.org/namespaces/inkscape"
   version="1.1"
   id="Capa_1"
   x="0px"
   y="0px"
   viewBox="0 0 54 29"
   xml:space="preserve"
   sodipodi:docname="list.svg"
   width="54"
   height="29"
   inkscape:version="1.0.2-2 (e86c870879, 2021-01-15)"><rect
   style="fill:none;fill-rule:evenodd;stroke:#000000;stroke-width:1;stroke-linecap:butt;stroke-linejoin:miter;stroke-miterlimit:4;stroke-dasharray:none;stroke-opacity:1"
   id="rect851-0-1"
   width="3.8084605"
   height="3.8084621"
   x="27.664722"
   y="2.7195115" /><metadata
   id="metadata26"><rdf:RDF><cc:Work
       rdf:about=""><dc:format>image/svg+xml</dc:format><dc:type
         rdf:resource="http://purl.org/dc/dcmitype/StillImage" /><dc:title></dc:title></cc:Work></rdf:RDF></metadata><defs
   id="defs47" /><sodipodi:namedview
   id="namedview45"
   pagecolor="#ffffff"
   bordercolor="#666666"
   borderopacity="1.0"
   inkscape:pageshadow="2"
   inkscape:pageopacity="0.0"
   inkscape:pagecheckerboard="0"
   showgrid="false"
   width="25px"
   inkscape:zoom="11.490485"
   inkscape:cx="34.80939"
   inkscape:cy="20.024972"
   inkscape:window-width="3840"
   inkscape:window-height="2072"
   inkscape:window-x="-5"
   inkscape:window-y="-5"
   inkscape:window-maximized="1"
   inkscape:current-layer="Capa_1"
   inkscape:document-rotation="0" />


<g
   id="g14">
</g>
<g
   id="g16">
</g>
<g
   id="g18">
</g>
<g
   id="g20">
</g>
<g
   id="g22">
</g>
<g
   id="g24">
</g>
<g
   id="g26">
</g>
<g
   id="g28">
</g>
<g
   id="g30">
</g>
<g
   id="g32">
</g>
<g
   id="g34">
</g>
<g
   id="g36">
</g>
<g
   id="g38">
</g>
<g
   id="g40">
</g>
<g
   id="g42">
</g>
<rect
   style="fill:none;fill-rule:evenodd;stroke:#000000;stroke-width:1;stroke-linecap:butt;stroke-linejoin:miter;stroke-miterlimit:4;stroke-dasharray:none;stroke-opacity:1"
   id="rect851-0"
   width="17.806017"
   height="3.806011"
   x="33.602558"
   y="2.7219627" /><rect
   style="fill:none;fill-rule:evenodd;stroke:#000000;stroke-width:1;stroke-linecap:butt;stroke-linejoin:miter;stroke-miterlimit:4;stroke-dasharray:none;stroke-opacity:1"
   id="rect851-0-1-8"
   width="3.8084605"
   height="3.8084621"
   x="27.664722"
   y="9.3748207" /><rect
   style="fill:none;fill-rule:evenodd;stroke:#000000;stroke-width:1;stroke-linecap:butt;stroke-linejoin:miter;stroke-miterlimit:4;stroke-dasharray:none;stroke-opacity:1"
   id="rect851-0-2"
   width="17.806017"
   height="3.806011"
   x="33.602558"
   y="9.3772717" /><rect
   style="fill:none;fill-rule:evenodd;stroke:#000000;stroke-width:1;stroke-linecap:butt;stroke-linejoin:miter;stroke-miterlimit:4;stroke-dasharray:none;stroke-opacity:1"
   id="rect851-0-1-3"
   width="3.8084605"
   height="3.8084621"
   x="27.664722"
   y="16.03013" /><rect
   style="fill:none;fill-rule:evenodd;stroke:#000000;stroke-width:1;stroke-linecap:butt;stroke-linejoin:miter;stroke-miterlimit:4;stroke-dasharray:none;stroke-opacity:1"
   id="rect851-0-4"
   width="17.806017"
   height="3.806011"
   x="33.602558"
   y="16.032581" /><rect
   style="fill:none;fill-rule:evenodd;stroke:#000000;stroke-width:1;stroke-linecap:butt;stroke-linejoin:miter;stroke-miterlimit:4;stroke-dasharray:none;stroke-opacity:1"
   id="rect851-0-1-30"
   width="3.8084605"
   height="3.8084621"
   x="27.664722"
   y="22.675331" /><rect
   style="fill:none;fill-rule:evenodd;stroke:#000000;stroke-width:1;stroke-linecap:butt;stroke-linejoin:miter;stroke-miterlimit:4;stroke-dasharray:none;stroke-opacity:1"
   id="rect851-0-0"
   width="17.806017"
   height="3.806011"
   x="33.602558"
   y="22.675331" /><path
   d="m 6.2549751,10.838737 h 0.913 v 6.435 h 3.1569999 v 0.781 H 6.2549751 Z"
   style="font-style:normal;font-variant:normal;font-weight:normal;font-stretch:normal;font-size:11px;line-height:1.25;font-family:'Source Sans Pro';-inkscape-font-specification:'Source Sans Pro'"
   id="path894" /><path
   d="m 11.512955,12.708737 h 0.902 v 5.346 h -0.902 z m 0.462,-1.1 q -0.264,0 -0.451,-0.165 -0.176,-0.165 -0.176,-0.418 0,-0.264 0.176,-0.418 0.187,-0.165 0.451,-0.165 0.264,0 0.44,0.165 0.187,0.154 0.187,0.418 0,0.253 -0.187,0.418 -0.176,0.165 -0.44,0.165 z"
   style="font-style:normal;font-variant:normal;font-weight:normal;font-stretch:normal;font-size:11px;line-height:1.25;font-family:'Source Sans Pro';-inkscape-font-specification:'Source Sans Pro'"
   id="path896" /><path
   d="m 15.615937,18.186737 q -0.572,0 -1.089,-0.209 -0.517,-0.209 -0.902,-0.528 l 0.451,-0.605 q 0.352,0.286 0.715,0.462 0.374,0.176 0.858,0.176 0.528,0 0.792,-0.242 0.264,-0.242 0.264,-0.594 0,-0.209 -0.11,-0.363 -0.11,-0.154 -0.286,-0.264 -0.165,-0.121 -0.385,-0.209 -0.22,-0.088 -0.44,-0.176 -0.286,-0.099 -0.572,-0.22 -0.286,-0.132 -0.517,-0.308 -0.22,-0.187 -0.363,-0.429 -0.143,-0.242 -0.143,-0.583 0,-0.319 0.121,-0.594 0.132,-0.286 0.363,-0.484 0.242,-0.209 0.583,-0.319 0.341,-0.121 0.77,-0.121 0.506,0 0.924,0.176 0.429,0.176 0.737,0.429 l -0.429,0.572 q -0.275,-0.209 -0.572,-0.341 -0.297,-0.132 -0.649,-0.132 -0.506,0 -0.748,0.231 -0.231,0.231 -0.231,0.539 0,0.187 0.099,0.33 0.099,0.132 0.264,0.242 0.165,0.099 0.374,0.187 0.22,0.077 0.451,0.165 0.286,0.11 0.572,0.231 0.297,0.121 0.528,0.308 0.231,0.176 0.374,0.44 0.154,0.264 0.154,0.638 0,0.33 -0.132,0.616 -0.121,0.286 -0.374,0.506 -0.242,0.22 -0.616,0.341 -0.363,0.132 -0.836,0.132 z"
   style="font-style:normal;font-variant:normal;font-weight:normal;font-stretch:normal;font-size:11px;line-height:1.25;font-family:'Source Sans Pro';-inkscape-font-specification:'Source Sans Pro'"
   id="path898" /><path
   d="m 20.290918,18.186737 q -0.429,0 -0.726,-0.132 -0.286,-0.132 -0.473,-0.363 -0.176,-0.231 -0.253,-0.561 -0.077,-0.33 -0.077,-0.726 v -2.959 h -0.792 v -0.682 l 0.836,-0.055 0.11,-1.496 h 0.759 v 1.496 h 1.441 v 0.737 h -1.441 v 2.97 q 0,0.495 0.176,0.77 0.187,0.264 0.649,0.264 0.143,0 0.308,-0.044 0.165,-0.044 0.297,-0.099 l 0.176,0.682 q -0.22,0.077 -0.484,0.132 -0.253,0.066 -0.506,0.066 z"
   style="font-style:normal;font-variant:normal;font-weight:normal;font-stretch:normal;font-size:11px;line-height:1.25;font-family:'Source Sans Pro';-inkscape-font-specification:'Source Sans Pro'"
   id="path900" /><rect
   style="fill:none;fill-rule:evenodd;stroke:#bdbdbd;stroke-width:1.10362;stroke-opacity:1"
   id="rect892"
   width="52.896378"
   height="27.896383"
   x="0.55180997"
   y="0.55180997" /></svg>
