<?xml version="1.0" encoding="UTF-8" standalone="no"?><!DOCTYPE svg PUBLIC "-//W3C//DTD SVG 1.1//EN" "http://www.w3.org/Graphics/SVG/1.1/DTD/svg11.dtd"><svg width="100%" height="100%" viewBox="0 0 209 209" version="1.1" xmlns="http://www.w3.org/2000/svg" xmlns:xlink="http://www.w3.org/1999/xlink" xml:space="preserve" xmlns:serif="http://www.serif.com/" style="fill-rule:evenodd;clip-rule:evenodd;stroke-linecap:round;stroke-linejoin:round;stroke-miterlimit:1.5;"><path d="M78.125,34.722l112.847,0l0,8.681l-112.847,-0l0,-8.681Zm0,147.57l112.847,-0l0,-8.681l-112.847,0l0,8.681Zm0,-69.445l112.847,0l0,-8.68l-112.847,-0l0,8.68Zm-39.062,-82.465c-4.763,-0 -8.681,3.918 -8.681,8.681c-0,4.762 3.918,8.68 8.681,8.68c4.762,0 8.68,-3.918 8.68,-8.68c0,-4.763 -3.918,-8.681 -8.68,-8.681Zm-0,69.444c-4.763,0 -8.681,3.919 -8.681,8.681c-0,4.762 3.918,8.681 8.681,8.681c4.762,-0 8.68,-3.919 8.68,-8.681c0,-4.762 -3.918,-8.681 -8.68,-8.681Zm-0,69.445c-4.763,-0 -8.681,3.918 -8.681,8.68c-0,4.762 3.918,8.681 8.681,8.681c4.762,-0 8.68,-3.919 8.68,-8.681c0,-4.762 -3.918,-8.68 -8.68,-8.68Z" style="fill-rule:nonzero;"/><rect x="0" y="0" width="208.333" height="208.333" style="fill:none;fill-rule:nonzero;"/><g id="Layer1"><path d="M118.194,49.877l71.863,0" style="fill:none;stroke:#000;stroke-width:0.26px;"/><path d="M118.194,55.606l71.863,0" style="fill:none;stroke:#000;stroke-width:0.26px;"/><path d="M118.194,61.335l71.863,0" style="fill:none;stroke:#000;stroke-width:0.26px;"/><path d="M118.194,67.065l71.863,-0" style="fill:none;stroke:#000;stroke-width:0.26px;"/><path d="M118.194,73.054l71.863,0" style="fill:none;stroke:#000;stroke-width:0.26px;"/><path d="M118.194,78.783l71.863,0" style="fill:none;stroke:#000;stroke-width:0.26px;"/><path d="M118.194,84.513l71.863,-0" style="fill:none;stroke:#000;stroke-width:0.26px;"/><path d="M118.194,90.242l71.863,-0" style="fill:none;stroke:#000;stroke-width:0.26px;"/><path d="M118.194,119.408l71.863,0" style="fill:none;stroke:#000;stroke-width:0.26px;"/><path d="M118.194,125.138l71.863,-0" style="fill:none;stroke:#000;stroke-width:0.26px;"/><path d="M118.194,130.867l71.863,-0" style="fill:none;stroke:#000;stroke-width:0.26px;"/><path d="M118.194,136.596l71.863,-0" style="fill:none;stroke:#000;stroke-width:0.26px;"/><path d="M118.194,142.585l71.863,0" style="fill:none;stroke:#000;stroke-width:0.26px;"/></g><path d="M118.194,188.419l71.863,-0" style="fill:none;stroke:#000;stroke-width:0.26px;"/><path d="M118.194,194.148l71.863,-0" style="fill:none;stroke:#000;stroke-width:0.26px;"/><path d="M118.194,199.877l71.863,0" style="fill:none;stroke:#000;stroke-width:0.26px;"/></svg>