<?xml version="1.0" encoding="UTF-8" standalone="no"?>
<svg
   xmlns:dc="http://purl.org/dc/elements/1.1/"
   xmlns:cc="http://creativecommons.org/ns#"
   xmlns:rdf="http://www.w3.org/1999/02/22-rdf-syntax-ns#"
   xmlns:svg="http://www.w3.org/2000/svg"
   xmlns="http://www.w3.org/2000/svg"
   xmlns:sodipodi="http://sodipodi.sourceforge.net/DTD/sodipodi-0.dtd"
   xmlns:inkscape="http://www.inkscape.org/namespaces/inkscape"
   id="Icons"
   height="512"
   viewBox="0 0 74 74"
   width="512"
   version="1.1"
   sodipodi:docname="downloads.svg"
   inkscape:version="1.0.2-2 (e86c870879, 2021-01-15)">
  <metadata
     id="metadata13">
    <rdf:RDF>
      <cc:Work
         rdf:about="">
        <dc:format>image/svg+xml</dc:format>
        <dc:type
           rdf:resource="http://purl.org/dc/dcmitype/StillImage" />
        <dc:title></dc:title>
      </cc:Work>
    </rdf:RDF>
  </metadata>
  <defs
     id="defs11" />
  <sodipodi:namedview
     pagecolor="#ffffff"
     bordercolor="#666666"
     borderopacity="1"
     objecttolerance="10"
     gridtolerance="10"
     guidetolerance="10"
     inkscape:pageopacity="0"
     inkscape:pageshadow="2"
     inkscape:window-width="2904"
     inkscape:window-height="1527"
     id="namedview9"
     showgrid="false"
     inkscape:zoom="1.96875"
     inkscape:cx="256"
     inkscape:cy="256"
     inkscape:window-x="501"
     inkscape:window-y="179"
     inkscape:window-maximized="0"
     inkscape:current-layer="Icons" />
  <path
     d="m69.381 72h-64.762a1 1 0 0 1 -1-1v-14.571a1 1 0 0 1 2 0v13.571h62.762v-13.571a1 1 0 0 1 2 0v14.571a1 1 0 0 1 -1 1z"
     id="path2" />
  <path
     d="m37 60.667a1 1 0 0 1 -1-1v-56.667a1 1 0 0 1 2 0v56.667a1 1 0 0 1 -1 1z"
     id="path4" />
  <path
     d="m37 60.667a1 1 0 0 1 -.707-.293l-13.82-13.82a1 1 0 0 1 1.414-1.414l13.113 13.112 13.112-13.112a1 1 0 0 1 1.414 1.414l-13.82 13.82a1 1 0 0 1 -.706.293z"
     id="path6" />
  <path
     d="m 17.39931,39.111872 a 1,0.62459629 0 0 1 -1,-0.624596 V 3.0932783 a 1,0.62459629 0 0 1 2,0 V 38.487276 a 1,0.62459629 0 0 1 -1,0.624596 z"
     id="path4-3"
     style="stroke-width:0.790314" />
  <path
     d="m 57.041666,38.730325 a 1,0.62459629 0 0 1 -1,-0.624596 V 2.7117314 a 1,0.62459629 0 0 1 2,0 V 38.105729 a 1,0.62459629 0 0 1 -1,0.624596 z"
     id="path4-3-7"
     style="stroke-width:0.790314" />
  <path
     d="m 57.041666,41.145325 a 1,1 0 0 1 -0.707,-0.293 l -13.82,-13.82 a 1,1 0 0 1 1.414,-1.414001 l 13.113,13.112001 13.112,-13.112001 a 1,1 0 0 1 1.414,1.414001 l -13.82,13.82 a 1,1 0 0 1 -0.706,0.293 z"
     id="path6-6" />
  <path
     d="m 17.39931,41.526872 a 1,1 0 0 1 -0.707,-0.293 l -13.8200004,-13.82 a 1,1 0 0 1 1.414,-1.414 l 13.1130004,13.112 13.112,-13.112 a 1,1 0 0 1 1.414,1.414 l -13.82,13.82 a 1,1 0 0 1 -0.706,0.293 z"
     id="path6-9" />
</svg>
