<?xml version="1.0" encoding="UTF-8" standalone="no"?>
<svg
   xmlns:dc="http://purl.org/dc/elements/1.1/"
   xmlns:cc="http://creativecommons.org/ns#"
   xmlns:rdf="http://www.w3.org/1999/02/22-rdf-syntax-ns#"
   xmlns:svg="http://www.w3.org/2000/svg"
   xmlns="http://www.w3.org/2000/svg"
   xmlns:sodipodi="http://sodipodi.sourceforge.net/DTD/sodipodi-0.dtd"
   xmlns:inkscape="http://www.inkscape.org/namespaces/inkscape"
   version="1.1"
   id="Layer_1"
   x="0px"
   y="0px"
   viewBox="0 0 512 512"
   style="enable-background:new 0 0 512 512;"
   xml:space="preserve"
   sodipodi:docname="volume-up.svg"
   inkscape:version="1.0.2-2 (e86c870879, 2021-01-15)"><metadata
   id="metadata51"><rdf:RDF><cc:Work
       rdf:about=""><dc:format>image/svg+xml</dc:format><dc:type
         rdf:resource="http://purl.org/dc/dcmitype/StillImage" /></cc:Work></rdf:RDF></metadata><defs
   id="defs49" /><sodipodi:namedview
   pagecolor="#ffffff"
   bordercolor="#666666"
   borderopacity="1"
   objecttolerance="10"
   gridtolerance="10"
   guidetolerance="10"
   inkscape:pageopacity="0"
   inkscape:pageshadow="2"
   inkscape:window-width="2625"
   inkscape:window-height="1636"
   id="namedview47"
   showgrid="false"
   inkscape:zoom="1.96875"
   inkscape:cx="256"
   inkscape:cy="256"
   inkscape:window-x="0"
   inkscape:window-y="0"
   inkscape:window-maximized="0"
   inkscape:current-layer="Layer_1" />
<path
   style="fill:#2D527C;"
   d="M292.513,440.119c-5.673,0-11.361-1.313-16.655-3.959l-140.767-70.389H41.063  C18.42,365.771,0,347.351,0,324.708V187.288c0-22.641,18.42-41.063,41.063-41.063h94.031L275.86,75.839  c11.614-5.803,25.139-5.197,36.183,1.627c11.042,6.826,17.635,18.65,17.635,31.633v175.823c0,7.987-6.476,14.461-14.461,14.461  c-7.985,0-14.461-6.474-14.461-14.461V109.1c0-4.159-2.742-6.301-3.919-7.029c-1.177-0.727-4.318-2.223-8.043-0.362l-143.818,71.913  c-2.009,1.004-4.223,1.527-6.468,1.527H41.063c-6.694,0-12.141,5.446-12.141,12.141v137.419c0,6.694,5.447,12.141,12.141,12.141  h97.444c2.246,0,4.46,0.522,6.468,1.527l143.82,71.914c3.718,1.861,6.863,0.367,8.04-0.362c1.179-0.729,3.92-2.872,3.92-7.029  V371.69c0-7.987,6.476-14.461,14.461-14.461c7.985,0,14.461,6.474,14.461,14.461v31.211c0,12.983-6.594,24.808-17.637,31.633  C306.03,438.247,299.284,440.119,292.513,440.119z"
   id="path2" />
<path
   style="fill:#70bcf1;fill-opacity:0.49794239"
   d="M134.763,160.686h-93.7c-14.692,0-26.602,11.91-26.602,26.602v68.71v68.71  c0,14.692,11.91,26.602,26.602,26.602h93.7L134.763,160.686L134.763,160.686z"
   id="path4" />
<g
   id="g14">
	<path
   style="fill:#2D527C;"
   d="M134.762,365.771H41.063C18.42,365.771,0,347.351,0,324.708V187.288   c0-22.641,18.42-41.063,41.063-41.063h93.698c7.985,0,14.461,6.474,14.461,14.461V351.31   C149.223,359.297,142.748,365.771,134.762,365.771z M41.063,175.147c-6.694,0-12.141,5.446-12.141,12.141v137.419   c0,6.694,5.447,12.141,12.141,12.141h79.237V175.147H41.063z"
   id="path6" />
	<path
   style="fill:#2D527C;"
   d="M251.603,328.304c-7.985,0-14.461-6.474-14.461-14.461V104.137c0-7.987,6.476-14.461,14.461-14.461   c7.985,0,14.461,6.474,14.461,14.461v209.707C266.064,321.83,259.59,328.304,251.603,328.304z"
   id="path8" />
	<path
   style="fill:#2D527C;"
   d="M497.539,270.461H381.65c-7.985,0-14.461-6.474-14.461-14.461s6.476-14.461,14.461-14.461h115.889   c7.985,0,14.461,6.474,14.461,14.461S505.524,270.461,497.539,270.461z"
   id="path10" />
	<path
   style="fill:#2D527C;"
   d="M439.594,328.404c-7.985,0-14.461-6.474-14.461-14.461V198.055c0-7.987,6.476-14.461,14.461-14.461   c7.985,0,14.461,6.474,14.461,14.461v115.889C454.055,321.93,447.581,328.404,439.594,328.404z"
   id="path12" />
</g>
<g
   id="g16">
</g>
<g
   id="g18">
</g>
<g
   id="g20">
</g>
<g
   id="g22">
</g>
<g
   id="g24">
</g>
<g
   id="g26">
</g>
<g
   id="g28">
</g>
<g
   id="g30">
</g>
<g
   id="g32">
</g>
<g
   id="g34">
</g>
<g
   id="g36">
</g>
<g
   id="g38">
</g>
<g
   id="g40">
</g>
<g
   id="g42">
</g>
<g
   id="g44">
</g>
</svg>
