<?xml version="1.0" encoding="UTF-8" standalone="no"?>
<svg
   xmlns:dc="http://purl.org/dc/elements/1.1/"
   xmlns:cc="http://creativecommons.org/ns#"
   xmlns:rdf="http://www.w3.org/1999/02/22-rdf-syntax-ns#"
   xmlns:svg="http://www.w3.org/2000/svg"
   xmlns="http://www.w3.org/2000/svg"
   xmlns:sodipodi="http://sodipodi.sourceforge.net/DTD/sodipodi-0.dtd"
   xmlns:inkscape="http://www.inkscape.org/namespaces/inkscape"
   version="1.1"
   id="Layer_1"
   x="0px"
   y="0px"
   viewBox="0 0 512 512"
   style="enable-background:new 0 0 512 512;"
   xml:space="preserve"
   sodipodi:docname="volume-down.svg"
   inkscape:version="1.0.2-2 (e86c870879, 2021-01-15)"><metadata
   id="metadata49"><rdf:RDF><cc:Work
       rdf:about=""><dc:format>image/svg+xml</dc:format><dc:type
         rdf:resource="http://purl.org/dc/dcmitype/StillImage" /></cc:Work></rdf:RDF></metadata><defs
   id="defs47" /><sodipodi:namedview
   pagecolor="#ffffff"
   bordercolor="#666666"
   borderopacity="1"
   objecttolerance="10"
   gridtolerance="10"
   guidetolerance="10"
   inkscape:pageopacity="0"
   inkscape:pageshadow="2"
   inkscape:window-width="2968"
   inkscape:window-height="1613"
   id="namedview45"
   showgrid="false"
   inkscape:zoom="1.96875"
   inkscape:cx="256"
   inkscape:cy="256"
   inkscape:window-x="0"
   inkscape:window-y="0"
   inkscape:window-maximized="0"
   inkscape:current-layer="Layer_1" />
<path
   style="fill:#2D527C;"
   d="M310.028,451.144c-6.011,0-12.041-1.392-17.65-4.196l-149.196-74.603h-99.66  C19.523,372.344,0,352.821,0,328.822V183.175c0-23.997,19.523-43.522,43.522-43.522h99.66l149.196-74.6  c12.307-6.152,26.643-5.508,38.346,1.724c11.705,7.234,18.693,19.767,18.693,33.527v186.351c0,8.465-6.862,15.327-15.327,15.327  s-15.327-6.862-15.327-15.327V100.304c0-4.408-2.906-6.679-4.154-7.45c-1.249-0.772-4.58-2.354-8.522-0.383l-152.431,76.219  c-2.129,1.064-4.474,1.619-6.854,1.619H43.522c-7.095,0-12.868,5.772-12.868,12.868v145.648c0,7.095,5.774,12.868,12.868,12.868  H146.8c2.38,0,4.727,0.553,6.854,1.619l152.431,76.22c3.944,1.971,7.273,0.389,8.522-0.383c1.249-0.771,4.154-3.042,4.154-7.45  v-33.081c0-8.465,6.862-15.327,15.327-15.327s15.327,6.862,15.327,15.327v33.081c0,13.76-6.988,26.293-18.693,33.527  C324.354,449.159,317.204,451.144,310.028,451.144z"
   id="path2" />
<path
   style="fill:#6ebaf0;fill-opacity:0.5"
   d="M142.832,154.979h-99.31c-15.572,0-28.195,12.623-28.195,28.195v72.824v72.824  c0,15.572,12.623,28.195,28.195,28.195h99.31L142.832,154.979L142.832,154.979z"
   id="path4" />
<g
   id="g12">
	<path
   style="fill:#2D527C;"
   d="M142.832,372.344h-99.31C19.523,372.344,0,352.821,0,328.822V183.175   c0-23.997,19.523-43.522,43.522-43.522h99.31c8.465,0,15.327,6.862,15.327,15.327v202.038   C158.159,365.483,151.297,372.344,142.832,372.344z M43.522,170.308c-7.095,0-12.868,5.772-12.868,12.868v145.648   c0,7.095,5.774,12.868,12.868,12.868h83.983V170.308H43.522z"
   id="path6" />
	<path
   style="fill:#2D527C;"
   d="M266.668,332.634c-8.465,0-15.327-6.862-15.327-15.327V95.044c0-8.465,6.862-15.327,15.327-15.327   s15.327,6.862,15.327,15.327v222.263C281.995,325.772,275.133,332.634,266.668,332.634z"
   id="path8" />
	<path
   style="fill:#2D527C;"
   d="M496.673,271.327h-92.171c-8.465,0-15.327-6.862-15.327-15.327c0-8.465,6.862-15.327,15.327-15.327   h92.171c8.465,0,15.327,6.862,15.327,15.327C512,264.465,505.138,271.327,496.673,271.327z"
   id="path10" />
</g>
<g
   id="g14">
</g>
<g
   id="g16">
</g>
<g
   id="g18">
</g>
<g
   id="g20">
</g>
<g
   id="g22">
</g>
<g
   id="g24">
</g>
<g
   id="g26">
</g>
<g
   id="g28">
</g>
<g
   id="g30">
</g>
<g
   id="g32">
</g>
<g
   id="g34">
</g>
<g
   id="g36">
</g>
<g
   id="g38">
</g>
<g
   id="g40">
</g>
<g
   id="g42">
</g>
</svg>
